SplineFontDB: 3.0
FontName: Exo-ExtraBoldItalic
FullName: Exo ExtraBold Italic
FamilyName: Exo
Weight: Heavy
Copyright: Copyright (c) 2011 Natanael Gama (exo@ndiscovered.com), with Reserved Font Name "Exo"
Version: 1.00
ItalicAngle: 0
UnderlinePosition: -50
UnderlineWidth: 50
Ascent: 800
Descent: 200
sfntRevision: 0x00010000
LayerCount: 2
Layer: 0 1 "Back"  1
Layer: 1 1 "Fore"  0
XUID: [1021 513 89848665 7811253]
FSType: 0
OS2Version: 4
OS2_WeightWidthSlopeOnly: 0
OS2_UseTypoMetrics: 1
CreationTime: 1317848505
ModificationTime: 1328305023
PfmFamily: 17
TTFWeight: 800
TTFWidth: 5
LineGap: 0
VLineGap: 0
Panose: 2 0 8 3 0 0 0 0 0 0
OS2TypoAscent: 202
OS2TypoAOffset: 1
OS2TypoDescent: -127
OS2TypoDOffset: 1
OS2TypoLinegap: 0
OS2WinAscent: 4
OS2WinAOffset: 1
OS2WinDescent: 19
OS2WinDOffset: 1
HheadAscent: 4
HheadAOffset: 1
HheadDescent: -19
HheadDOffset: 1
OS2SubXSize: 650
OS2SubYSize: 700
OS2SubXOff: 0
OS2SubYOff: 140
OS2SupXSize: 650
OS2SupYSize: 700
OS2SupXOff: 0
OS2SupYOff: 480
OS2StrikeYSize: 49
OS2StrikeYPos: 258
OS2Vendor: 'PfEd'
OS2CodePages: 20000093.00000000
OS2UnicodeRanges: a00000ef.4000204b.00000000.00000000
Lookup: 4 0 0 "'ordn' Ordinals lookup 0"  {"'ordn' Ordinals lookup 0 subtable"  } ['ordn' ('DFLT' <'dflt' > 'grek' <'dflt' > 'latn' <'dflt' > ) ]
Lookup: 1 0 0 "'smcp' Lowercase to Small Capitals lookup 1"  {"'smcp' Lowercase to Small Capitals lookup 1 subtable"  } ['smcp' ('DFLT' <'dflt' > 'grek' <'dflt' > 'latn' <'FRA ' 'dflt' > ) ]
Lookup: 1 0 0 "'c2sc' Capitals to Small Capitals in Latin lookup 2"  {"'c2sc' Capitals to Small Capitals in Latin lookup 2 subtable"  } ['c2sc' ('latn' <'dflt' > ) ]
Lookup: 4 0 0 "'dlig' Discretionary Ligatures lookup 3"  {"'dlig' Discretionary Ligatures lookup 3 subtable"  } ['dlig' ('DFLT' <'dflt' > 'grek' <'dflt' > 'latn' <'dflt' > ) ]
Lookup: 4 0 1 "'liga' Standard Ligatures lookup 4"  {"'liga' Standard Ligatures lookup 4 subtable"  } ['liga' ('DFLT' <'dflt' > 'grek' <'dflt' > 'latn' <'FRA ' 'dflt' > ) ]

StartChar: .notdef
Encoding: 0 -1 0
AltUni2: 000000.ffffffff.0
Width: 758
Flags: W
LayerCount: 2
Fore
SplineSet
100 0 m 1,0,-1
 100 531 l 1,1,-1
 658 531 l 1,2,-1
 658 0 l 1,3,-1
 100 0 l 1,0,-1
114 22 m 1,4,-1
 370 266 l 1,5,-1
 114 507 l 1,6,-1
 114 22 l 1,4,-1
124 518 m 1,7,-1
 381 276 l 1,8,-1
 635 518 l 1,9,-1
 124 518 l 1,7,-1
127 13 m 1,10,-1
 634 13 l 1,11,-1
 381 256 l 1,12,-1
 127 13 l 1,10,-1
392 266 m 1,13,-1
 644 25 l 1,14,-1
 644 506 l 1,15,-1
 392 266 l 1,13,-1
EndSplineSet
EndChar

StartChar: exclam
Encoding: 33 33 4
Width: 274
GlyphClass: 2
Flags: W
LayerCount: 2
Fore
SplineSet
108 150 m 2,0,-1
 208 150 l 2,1,2
 231 150 231 150 228 125 c 1,3,-1
 211 23 l 2,4,5
 208 0 208 0 185 0 c 2,6,-1
 85 0 l 2,7,8
 61 0 61 0 64 23 c 2,9,-1
 80 125 l 2,10,11
 84 150 84 150 108 150 c 2,0,-1
101 197 m 1,12,-1
 170 731 l 1,13,-1
 331 731 l 1,14,-1
 229 197 l 1,15,-1
 101 197 l 1,12,-1
EndSplineSet
Substitution2: "'smcp' Lowercase to Small Capitals lookup 1 subtable" exclam.smcp
EndChar

StartChar: quotedbl
Encoding: 34 34 5
Width: 468
GlyphClass: 2
Flags: W
LayerCount: 2
Fore
SplineSet
153 531 m 1,0,-1
 162 665 l 1,1,-1
 173 732 l 1,2,-1
 330 732 l 1,3,-1
 319 665 l 1,4,-1
 288 531 l 1,5,-1
 153 531 l 1,0,-1
349 531 m 1,6,-1
 360 665 l 1,7,-1
 370 732 l 1,8,-1
 527 732 l 1,9,-1
 516 665 l 1,10,-1
 485 531 l 1,11,-1
 349 531 l 1,6,-1
EndSplineSet
Substitution2: "'smcp' Lowercase to Small Capitals lookup 1 subtable" quotedbl.smcp
EndChar

StartChar: numbersign
Encoding: 35 35 6
Width: 733
GlyphClass: 2
Flags: W
LayerCount: 2
Fore
SplineSet
45 202 m 1,0,-1
 80 314 l 1,1,-1
 230 314 l 1,2,-1
 264 419 l 1,3,-1
 113 419 l 1,4,-1
 149 531 l 1,5,-1
 304 531 l 1,6,-1
 373 732 l 1,7,-1
 485 732 l 1,8,-1
 416 531 l 1,9,-1
 523 531 l 1,10,-1
 592 732 l 1,11,-1
 704 732 l 1,12,-1
 635 531 l 1,13,-1
 805 531 l 1,14,-1
 770 419 l 1,15,-1
 600 419 l 1,16,-1
 565 313 l 1,17,-1
 736 313 l 1,18,-1
 702 201 l 1,19,-1
 523 201 l 1,20,-1
 454 0 l 1,21,-1
 342 0 l 1,22,-1
 411 201 l 1,23,-1
 303 202 l 1,24,-1
 234 0 l 1,25,-1
 122 0 l 1,26,-1
 191 202 l 1,27,-1
 45 202 l 1,0,-1
342 314 m 1,28,-1
 453 313 l 1,29,-1
 488 419 l 1,30,-1
 376 419 l 1,31,-1
 342 314 l 1,28,-1
EndSplineSet
Substitution2: "'smcp' Lowercase to Small Capitals lookup 1 subtable" numbersign.smcp
EndChar

StartChar: dollar
Encoding: 36 36 7
Width: 568
GlyphClass: 2
Flags: W
LayerCount: 2
Fore
SplineSet
314 140 m 0,0,1
 390 140 390 140 399 194 c 1,2,-1
 403 223 l 2,3,4
 406 241 406 241 404 254 c 1,5,6
 402 281 402 281 352 281 c 2,7,-1
 274 281 l 2,8,9
 173 281 173 281 134 351 c 0,10,11
 110 393 110 393 110 458 c 0,12,13
 110 478 110 478 114 502 c 2,14,-1
 123 564 l 2,15,16
 140 681 140 681 230 717 c 0,17,18
 279 736 279 736 352 738 c 1,19,-1
 366 824 l 1,20,-1
 461 824 l 1,21,-1
 448 737 l 1,22,23
 538 733 538 733 617 707 c 1,24,-1
 597 580 l 1,25,26
 485 589 485 589 376 589 c 0,27,28
 332 589 332 589 311.5 578 c 128,-1,29
 291 567 291 567 284 530 c 1,30,-1
 280 505 l 2,31,32
 279 495 279 495 279 481.5 c 128,-1,33
 279 468 279 468 289 456.5 c 128,-1,34
 299 445 299 445 342 445 c 2,35,-1
 423 445 l 2,36,37
 465 445 465 445 496 429.5 c 128,-1,38
 527 414 527 414 542 390 c 0,39,40
 574 339 574 339 574 287 c 0,41,42
 574 270 574 270 570 224 c 1,43,-1
 564 182 l 1,44,45
 542 46 542 46 447 10 c 0,46,47
 399 -8 399 -8 330 -8 c 1,48,-1
 317 -90 l 1,49,-1
 222 -90 l 1,50,-1
 235 -7 l 1,51,52
 177 -5 177 -5 145.5 1 c 128,-1,53
 114 7 114 7 64 24 c 1,54,-1
 84 150 l 1,55,56
 212 140 212 140 314 140 c 0,0,1
EndSplineSet
Substitution2: "'smcp' Lowercase to Small Capitals lookup 1 subtable" dollar.smcp
EndChar

StartChar: percent
Encoding: 37 37 8
Width: 965
GlyphClass: 2
Flags: W
LayerCount: 2
Fore
SplineSet
381 732 m 2,0,1
 497 732 497 732 497 625 c 0,2,3
 497 609 497 609 494 590 c 2,4,-1
 476 472 l 2,5,6
 469 428 469 428 451 402 c 1,7,8
 417 349 417 349 319 349 c 2,9,-1
 218 349 l 2,10,11
 151 349 151 349 122 388 c 0,12,13
 101 417 101 417 101 460 c 0,14,15
 101 475 101 475 104 493 c 2,16,-1
 122 611 l 2,17,18
 132 675 132 675 167.5 703.5 c 128,-1,19
 203 732 203 732 280 732 c 2,20,-1
 381 732 l 2,0,1
218 504 m 2,21,22
 216 496 216 496 216 486.5 c 128,-1,23
 216 477 216 477 222 468 c 128,-1,24
 228 459 228 459 253 459 c 2,25,-1
 317 459 l 2,26,27
 344 459 344 459 355 469.5 c 128,-1,28
 366 480 366 480 370 504 c 2,29,-1
 381 577 l 1,30,31
 384 606 384 606 378 612 c 0,32,33
 369 622 369 622 344 622 c 2,34,-1
 281 622 l 2,35,36
 249 622 249 622 238 605 c 0,37,38
 231 595 231 595 229 577 c 2,39,-1
 218 504 l 2,21,22
200 0 m 1,40,-1
 766 732 l 1,41,-1
 876 732 l 1,42,-1
 316 0 l 1,43,-1
 200 0 l 1,40,-1
763 385 m 2,44,-1
 864 385 l 2,45,46
 933 385 933 385 961 347 c 0,47,48
 981 319 981 319 981 275 c 0,49,50
 981 259 981 259 978 242 c 2,51,-1
 961 124 l 2,52,53
 951 58 951 58 914.5 30 c 128,-1,54
 878 2 878 2 802 2 c 2,55,-1
 700 2 l 2,56,57
 633 2 633 2 606 39 c 0,58,59
 586 66 586 66 586 109 c 0,60,61
 586 125 586 125 588 142 c 2,62,-1
 606 260 l 2,63,64
 616 326 616 326 651.5 355.5 c 128,-1,65
 687 385 687 385 763 385 c 2,44,-1
701 157 m 2,66,67
 700 149 700 149 700 139.5 c 128,-1,68
 700 130 700 130 706 121 c 128,-1,69
 712 112 712 112 738 112 c 2,70,-1
 800 112 l 2,71,72
 828 112 828 112 839 123 c 128,-1,73
 850 134 850 134 853 157 c 2,74,-1
 864 230 l 2,75,76
 866 240 866 240 866 250.5 c 128,-1,77
 866 261 866 261 859.5 268 c 128,-1,78
 853 275 853 275 828 275 c 2,79,-1
 765 275 l 2,80,81
 729 275 729 275 719 253 c 0,82,83
 715 244 715 244 712 230 c 2,84,-1
 701 157 l 2,66,67
EndSplineSet
Substitution2: "'smcp' Lowercase to Small Capitals lookup 1 subtable" percent.smcp
EndChar

StartChar: ampersand
Encoding: 38 38 9
Width: 689
GlyphClass: 2
Flags: W
LayerCount: 2
Fore
SplineSet
51 190 m 0,0,1
 51 288 51 288 154 365 c 2,2,-1
 243 432 l 1,3,-1
 207 496 l 2,4,5
 185 535 185 535 185 574.5 c 128,-1,6
 185 614 185 614 203 647.5 c 128,-1,7
 221 681 221 681 250.5 702.5 c 128,-1,8
 280 724 280 724 318 730 c 0,9,10
 364 737 364 737 404.5 737 c 128,-1,11
 445 737 445 737 480 733 c 0,12,13
 539 726 539 726 605 710 c 1,14,-1
 586 590 l 1,15,-1
 435 590 l 2,16,17
 376 590 376 590 365 572 c 0,18,19
 363 568 363 568 363 554.5 c 128,-1,20
 363 541 363 541 385 501 c 2,21,-1
 500 300 l 1,22,-1
 636 416 l 1,23,-1
 684 345 l 1,24,-1
 614 223 l 1,25,-1
 568 179 l 1,26,-1
 671 0 l 1,27,-1
 490 0 l 1,28,-1
 440 88 l 1,29,-1
 364 30 l 2,30,31
 317 -7 317 -7 250 -7 c 0,32,33
 209 -7 209 -7 161 12.5 c 128,-1,34
 113 32 113 32 82 85 c 128,-1,35
 51 138 51 138 51 190 c 0,0,1
315 162 m 1,36,-1
 368 206 l 1,37,-1
 305 311 l 1,38,-1
 248 270 l 1,39,40
 205 237 205 237 205 205 c 0,41,42
 205 189 205 189 215 174 c 0,43,44
 253 116 253 116 315 162 c 1,36,-1
EndSplineSet
AlternateSubs2: "'salt' Stylistic Alternatives in Latin lookup 16 subtable" ampersand.salt
Substitution2: "'smcp' Lowercase to Small Capitals lookup 1 subtable" ampersand.smcp
EndChar

StartChar: quotesingle
Encoding: 39 39 10
Width: 238
GlyphClass: 2
Flags: W
LayerCount: 2
Fore
SplineSet
132 531 m 1,0,-1
 142 665 l 1,1,-1
 153 732 l 1,2,-1
 318 732 l 1,3,-1
 307 665 l 1,4,-1
 276 531 l 1,5,-1
 132 531 l 1,0,-1
EndSplineSet
Substitution2: "'smcp' Lowercase to Small Capitals lookup 1 subtable" quotesingle.smcp
EndChar

StartChar: parenleft
Encoding: 40 40 11
Width: 392
GlyphClass: 2
Flags: W
LayerCount: 2
Fore
SplineSet
311 449.5 m 128,-1,1
 279 363 279 363 266 282 c 128,-1,2
 253 201 253 201 253 159 c 128,-1,3
 253 117 253 117 254.5 69.5 c 128,-1,4
 256 22 256 22 271 -44 c 0,5,6
 298 -164 298 -164 333 -230 c 2,7,-1
 346 -255 l 1,8,-1
 198 -255 l 1,9,10
 148 -196 148 -196 114 -74 c 0,11,12
 88 22 88 22 88 135 c 0,13,14
 88 294 88 294 134 442 c 0,15,16
 168 550 168 550 229 652 c 1,17,18
 267 713 267 713 324 775 c 0,19,20
 343 796 343 796 355 805 c 1,21,-1
 366 815 l 1,22,-1
 516 815 l 1,23,24
 489 782 489 782 447.5 718.5 c 128,-1,25
 406 655 406 655 374.5 595.5 c 128,-1,0
 343 536 343 536 311 449.5 c 128,-1,1
EndSplineSet
Substitution2: "'case' Case-Sensitive Forms lookup 18 subtable" parenleft.alt
Substitution2: "'c2sc' Capitals to Small Capitals in Latin lookup 2 subtable" parenleft.smcp
Substitution2: "'smcp' Lowercase to Small Capitals lookup 1 subtable" parenleft.smcp
EndChar

StartChar: parenright
Encoding: 41 41 12
Width: 394
GlyphClass: 2
Flags: W
LayerCount: 2
Fore
SplineSet
184.5 104.5 m 128,-1,1
 217 193 217 193 229.5 273.5 c 128,-1,2
 242 354 242 354 242 394.5 c 128,-1,3
 242 435 242 435 240.5 482.5 c 128,-1,4
 239 530 239 530 224 597 c 0,5,6
 197 718 197 718 163 788 c 2,7,-1
 150 815 l 1,8,-1
 298 815 l 1,9,10
 347 749 347 749 381 625 c 0,11,12
 408 525 408 525 408 411 c 0,13,14
 408 265 408 265 363 112 c 1,15,16
 329 0 329 0 272 -101 c 0,17,18
 237 -161 237 -161 185 -218 c 0,19,20
 167 -238 167 -238 156 -247 c 2,21,-1
 146 -255 l 1,22,-1
 -20 -255 l 1,23,24
 8 -224 8 -224 49 -163 c 128,-1,25
 90 -102 90 -102 121 -43 c 128,-1,0
 152 16 152 16 184.5 104.5 c 128,-1,1
EndSplineSet
Substitution2: "'case' Case-Sensitive Forms lookup 18 subtable" parenright.alt
Substitution2: "'c2sc' Capitals to Small Capitals in Latin lookup 2 subtable" parenright.smcp
Substitution2: "'smcp' Lowercase to Small Capitals lookup 1 subtable" parenright.smcp
EndChar

StartChar: asterisk
Encoding: 42 42 13
Width: 422
GlyphClass: 2
Flags: W
LayerCount: 2
Fore
SplineSet
122 566 m 1,0,-1
 132 628 l 1,1,-1
 275 650 l 1,2,-1
 266 561 l 1,3,-1
 122 566 l 1,0,-1
152 417 m 1,4,-1
 198 554 l 1,5,-1
 282 532 l 1,6,-1
 208 398 l 1,7,-1
 152 417 l 1,4,-1
257 463 m 1,8,-1
 318 538 l 1,9,-1
 416 448 l 1,10,-1
 372 398 l 1,11,-1
 257 463 l 1,8,-1
276 721 m 1,12,-1
 338 741 l 1,13,-1
 383 617 l 1,14,-1
 295 584 l 1,15,-1
 276 721 l 1,12,-1
325 571 m 1,16,-1
 457 651 l 1,17,-1
 484 599 l 1,18,-1
 370 502 l 1,19,-1
 325 571 l 1,16,-1
EndSplineSet
Substitution2: "'smcp' Lowercase to Small Capitals lookup 1 subtable" asterisk.smcp
EndChar

StartChar: plus
Encoding: 43 43 14
Width: 471
GlyphClass: 2
Flags: W
LayerCount: 2
Fore
SplineSet
73 289 m 1,0,-1
 94 423 l 1,1,-1
 234 423 l 1,2,-1
 256 564 l 1,3,-1
 390 564 l 1,4,-1
 368 423 l 1,5,-1
 510 423 l 1,6,-1
 489 289 l 1,7,-1
 347 289 l 1,8,-1
 324 148 l 1,9,-1
 190 148 l 1,10,-1
 213 289 l 1,11,-1
 73 289 l 1,0,-1
EndSplineSet
EndChar

StartChar: comma
Encoding: 44 44 15
Width: 257
GlyphClass: 2
Flags: W
LayerCount: 2
Fore
SplineSet
82 0 m 2,0,1
 71 0 71 0 65 6.5 c 128,-1,2
 59 13 59 13 61 25 c 2,3,-1
 77 124 l 2,4,5
 81 151 81 151 106 151 c 2,6,-1
 202 151 l 2,7,8
 222 151 222 151 222 131 c 0,9,10
 222 128 222 128 222 124 c 2,11,-1
 200 -11 l 2,12,13
 195 -44 195 -44 177.5 -64 c 128,-1,14
 160 -84 160 -84 138 -89 c 0,15,16
 115 -94 115 -94 94.5 -94 c 128,-1,17
 74 -94 74 -94 62 -91 c 2,18,-1
 48 -88 l 1,19,-1
 57 -34 l 1,20,21
 71 -34 71 -34 79 -29.5 c 128,-1,22
 87 -25 87 -25 88.5 -21 c 128,-1,23
 90 -17 90 -17 92 -10 c 1,24,-1
 93 0 l 1,25,-1
 82 0 l 2,0,1
EndSplineSet
EndChar

StartChar: hyphen
Encoding: 45 45 16
Width: 353
GlyphClass: 2
Flags: W
LayerCount: 2
Fore
SplineSet
61 223 m 1,0,-1
 82 357 l 1,1,-1
 396 357 l 1,2,-1
 375 223 l 1,3,-1
 61 223 l 1,0,-1
EndSplineSet
Substitution2: "'case' Case-Sensitive Forms lookup 18 subtable" hyphen.alt
Substitution2: "'c2sc' Capitals to Small Capitals in Latin lookup 2 subtable" hyphen.smcp
Substitution2: "'smcp' Lowercase to Small Capitals lookup 1 subtable" hyphen.smcp
EndChar

StartChar: period
Encoding: 46 46 17
Width: 259
GlyphClass: 2
Flags: W
LayerCount: 2
Fore
SplineSet
105 150 m 2,0,-1
 203 150 l 2,1,2
 224 150 224 150 224 132 c 0,3,4
 224 129 224 129 224 125 c 2,5,-1
 207 23 l 2,6,7
 203 0 203 0 179 0 c 2,8,-1
 81 0 l 2,9,10
 71 0 71 0 65 6.5 c 128,-1,11
 59 13 59 13 60 23 c 2,12,-1
 77 125 l 1,13,14
 80 150 80 150 105 150 c 2,0,-1
EndSplineSet
EndChar

StartChar: slash
Encoding: 47 47 18
Width: 477
GlyphClass: 2
Flags: W
LayerCount: 2
Fore
SplineSet
2 -72 m 1,0,-1
 416 770 l 1,1,-1
 585 770 l 1,2,-1
 171 -72 l 1,3,-1
 2 -72 l 1,0,-1
EndSplineSet
Substitution2: "'numr' Numerators in Latin lookup 13 subtable" fraction
Substitution2: "'frac' Diagonal Fractions lookup 6 subtable" fraction
EndChar

StartChar: zero
Encoding: 48 48 19
Width: 624
GlyphClass: 2
Flags: W
LayerCount: 2
Fore
SplineSet
335 732 m 2,0,-1
 499 732 l 2,1,2
 550 732 550 732 586 716.5 c 128,-1,3
 622 701 622 701 640 675.5 c 128,-1,4
 658 650 658 650 663.5 625 c 128,-1,5
 669 600 669 600 669 582.5 c 128,-1,6
 669 565 669 565 665 548 c 1,7,-1
 608 184 l 2,8,9
 593 93 593 93 545.5 46.5 c 128,-1,10
 498 0 498 0 412 0 c 2,11,-1
 248 0 l 2,12,13
 156 0 156 0 108 48 c 0,14,15
 72 85 72 85 72 147 c 0,16,17
 72 165 72 165 75 184 c 2,18,-1
 132 540 l 2,19,20
 147 636 147 636 196.5 684 c 128,-1,21
 246 732 246 732 335 732 c 2,0,-1
244 215 m 2,22,23
 242 204 242 204 242 194.5 c 128,-1,24
 242 185 242 185 244.5 174 c 128,-1,25
 247 163 247 163 258 158 c 1,26,27
 274 149 274 149 300 149 c 2,28,-1
 373 149 l 2,29,30
 395 149 395 149 409 154 c 0,31,32
 440 165 440 165 448 214 c 2,33,-1
 497 518 l 2,34,35
 498 528 498 528 498 543 c 128,-1,36
 498 558 498 558 488 570.5 c 128,-1,37
 478 583 478 583 448 583 c 2,38,-1
 364 583 l 2,39,40
 302 583 302 583 292 518 c 2,41,-1
 244 215 l 2,22,23
EndSplineSet
Substitution2: "'dnom' Denominators in Latin lookup 19 subtable" zero.denominator
Substitution2: "'sups' Superscript lookup 17 subtable" zerosuperior
Substitution2: "'onum' Oldstyle Figures in Latin lookup 15 subtable" zero.oldstyle
Substitution2: "'tnum' Tabular Numbers in Latin lookup 14 subtable" zero.tnum
Substitution2: "'numr' Numerators in Latin lookup 13 subtable" zero.numerator
Substitution2: "'zero' Slashed Zero lookup 12 subtable" uni0338
Substitution2: "'sinf' Scientific Inferiors lookup 11 subtable" zeroinferior
Substitution2: "'frac' Diagonal Fractions lookup 5 subtable" zero.numerator
Substitution2: "'smcp' Lowercase to Small Capitals lookup 1 subtable" zero.smcp
EndChar

StartChar: one
Encoding: 49 49 20
Width: 374
GlyphClass: 2
Flags: W
LayerCount: 2
Fore
SplineSet
112 544 m 1,0,-1
 128 650 l 1,1,2
 149 650 149 650 199 676.5 c 128,-1,3
 249 703 249 703 274 732 c 1,4,-1
 436 732 l 1,5,-1
 320 0 l 1,6,-1
 156 0 l 1,7,-1
 247 570 l 1,8,9
 210 544 210 544 112 544 c 1,0,-1
EndSplineSet
Substitution2: "'dnom' Denominators in Latin lookup 19 subtable" one.denominator
Substitution2: "'sups' Superscript lookup 17 subtable" onesuperior
Substitution2: "'onum' Oldstyle Figures in Latin lookup 15 subtable" one.oldstyle
Substitution2: "'tnum' Tabular Numbers in Latin lookup 14 subtable" one.tnum
Substitution2: "'numr' Numerators in Latin lookup 13 subtable" one.numerator
Substitution2: "'sinf' Scientific Inferiors lookup 11 subtable" oneinferior
Substitution2: "'frac' Diagonal Fractions lookup 5 subtable" one.numerator
Substitution2: "'smcp' Lowercase to Small Capitals lookup 1 subtable" one.smcp
EndChar

StartChar: two
Encoding: 50 50 21
Width: 583
GlyphClass: 2
Flags: W
LayerCount: 2
Fore
SplineSet
471 529 m 0,0,1
 471 560 471 560 450 576 c 128,-1,2
 429 592 429 592 364 592 c 2,3,-1
 121 592 l 1,4,-1
 140 714 l 1,5,6
 288 742 288 742 442 742 c 0,7,8
 514 742 514 742 562 706 c 0,9,10
 636 651 636 651 636 541 c 0,11,12
 636 457 636 457 595 394 c 1,13,14
 557 338 557 338 528 310 c 128,-1,15
 499 282 499 282 482.5 266 c 128,-1,16
 466 250 466 250 439 229 c 128,-1,17
 412 208 412 208 399.5 198 c 128,-1,18
 387 188 387 188 362.5 170 c 128,-1,19
 338 152 338 152 333 149 c 1,20,-1
 576 149 l 1,21,-1
 552 0 l 1,22,-1
 34 0 l 1,23,-1
 57 143 l 1,24,25
 158 204 158 204 294 311 c 0,26,27
 364 365 364 365 414 419.5 c 128,-1,28
 464 474 464 474 469 508 c 0,29,30
 471 519 471 519 471 529 c 0,0,1
EndSplineSet
Substitution2: "'dnom' Denominators in Latin lookup 19 subtable" two.denominator
Substitution2: "'sups' Superscript lookup 17 subtable" twosuperior
Substitution2: "'onum' Oldstyle Figures in Latin lookup 15 subtable" two.oldstyle
Substitution2: "'tnum' Tabular Numbers in Latin lookup 14 subtable" two.tnum
Substitution2: "'numr' Numerators in Latin lookup 13 subtable" two.numerator
Substitution2: "'sinf' Scientific Inferiors lookup 11 subtable" twoinferior
Substitution2: "'frac' Diagonal Fractions lookup 5 subtable" two.numerator
Substitution2: "'smcp' Lowercase to Small Capitals lookup 1 subtable" two.smcp
EndChar

StartChar: three
Encoding: 51 51 22
Width: 579
GlyphClass: 2
Flags: W
LayerCount: 2
Fore
SplineSet
338 -7 m 2,0,-1
 279 -7 l 2,1,2
 266 -7 266 -7 260 -7 c 128,-1,3
 254 -7 254 -7 226.5 -6.5 c 128,-1,4
 199 -6 199 -6 188.5 -5.5 c 128,-1,5
 178 -5 178 -5 155 -3.5 c 128,-1,6
 132 -2 132 -2 119.5 0 c 128,-1,7
 107 2 107 2 89 5 c 0,8,9
 60 10 60 10 29 21 c 1,10,-1
 49 143 l 1,11,-1
 287 143 l 2,12,13
 344 143 344 143 368 154 c 128,-1,14
 392 165 392 165 398 202 c 2,15,-1
 401 224 l 2,16,17
 406 256 406 256 399 264 c 128,-1,18
 392 272 392 272 389.5 275 c 128,-1,19
 387 278 387 278 379.5 280.5 c 128,-1,20
 372 283 372 283 367.5 284 c 128,-1,21
 363 285 363 285 352 287 c 1,22,23
 338 288 338 288 316 289 c 2,24,-1
 134 298 l 1,25,-1
 156 431 l 1,26,-1
 340 439 l 2,27,28
 378 441 378 441 398 446 c 0,29,30
 440 456 440 456 447 501 c 1,31,-1
 450 524 l 1,32,33
 458 570 458 570 419 580 c 0,34,35
 399 585 399 585 363 585 c 2,36,-1
 112 585 l 1,37,-1
 131 706 l 1,38,39
 197 728 197 728 263 731 c 0,40,41
 340 735 340 735 385.5 735 c 128,-1,42
 431 735 431 735 473 734 c 128,-1,43
 515 733 515 733 553.5 708 c 128,-1,44
 592 683 592 683 606.5 646 c 128,-1,45
 621 609 621 609 621 583.5 c 128,-1,46
 621 558 621 558 618 539 c 2,47,-1
 610 492 l 2,48,49
 591 378 591 378 508 364 c 1,50,51
 568 345 568 345 568 249 c 0,52,53
 568 225 568 225 564 198 c 2,54,-1
 558 161 l 2,55,56
 531 -7 531 -7 338 -7 c 2,0,-1
EndSplineSet
Substitution2: "'dnom' Denominators in Latin lookup 19 subtable" three.denominator
Substitution2: "'sups' Superscript lookup 17 subtable" threesuperior
Substitution2: "'onum' Oldstyle Figures in Latin lookup 15 subtable" three.oldstyle
Substitution2: "'tnum' Tabular Numbers in Latin lookup 14 subtable" three.tnum
Substitution2: "'numr' Numerators in Latin lookup 13 subtable" three.numerator
Substitution2: "'sinf' Scientific Inferiors lookup 11 subtable" threeinferior
Substitution2: "'frac' Diagonal Fractions lookup 5 subtable" three.numerator
Substitution2: "'smcp' Lowercase to Small Capitals lookup 1 subtable" three.smcp
EndChar

StartChar: four
Encoding: 52 52 23
Width: 627
GlyphClass: 2
Flags: W
LayerCount: 2
Fore
SplineSet
48 224 m 1,0,-1
 367 732 l 1,1,-1
 546 732 l 1,2,-1
 287 302 l 1,3,-1
 428 302 l 1,4,-1
 453 455 l 1,5,-1
 496 532 l 1,6,-1
 630 532 l 1,7,-1
 593 302 l 1,8,-1
 661 302 l 1,9,-1
 641 176 l 1,10,-1
 569 150 l 1,11,-1
 546 2 l 1,12,-1
 382 2 l 1,13,-1
 404 150 l 1,14,-1
 70 150 l 1,15,-1
 48 224 l 1,0,-1
EndSplineSet
Substitution2: "'dnom' Denominators in Latin lookup 19 subtable" four.denominator
Substitution2: "'sups' Superscript lookup 17 subtable" foursuperior
Substitution2: "'onum' Oldstyle Figures in Latin lookup 15 subtable" four.oldstyle
Substitution2: "'tnum' Tabular Numbers in Latin lookup 14 subtable" four.tnum
Substitution2: "'numr' Numerators in Latin lookup 13 subtable" four.numerator
Substitution2: "'sinf' Scientific Inferiors lookup 11 subtable" fourinferior
Substitution2: "'frac' Diagonal Fractions lookup 5 subtable" four.numerator
Substitution2: "'smcp' Lowercase to Small Capitals lookup 1 subtable" four.smcp
EndChar

StartChar: five
Encoding: 53 53 24
Width: 594
GlyphClass: 2
Flags: W
LayerCount: 2
Fore
SplineSet
298 446 m 1,0,1
 335 470 335 470 407 470 c 0,2,3
 430 470 430 470 463 468 c 0,4,5
 541 463 541 463 576 408 c 0,6,7
 602 367 602 367 602 310 c 0,8,9
 602 291 602 291 600 271 c 2,10,-1
 584 158 l 1,11,12
 568 60 568 60 500 25 c 0,13,14
 442 -4 442 -4 349.5 -4 c 128,-1,15
 257 -4 257 -4 201.5 0 c 128,-1,16
 146 4 146 4 54 20 c 1,17,-1
 75 150 l 1,18,-1
 349 150 l 2,19,20
 395 150 395 150 410 173 c 0,21,22
 422 190 422 190 425 213 c 2,23,-1
 433 262 l 2,24,25
 435 272 435 272 435 284.5 c 128,-1,26
 435 297 435 297 427 312 c 128,-1,27
 419 327 419 327 385 327 c 2,28,-1
 314 327 l 2,29,30
 261 327 261 327 252 274 c 1,31,-1
 96 274 l 1,32,-1
 190 732 l 1,33,-1
 643 732 l 1,34,-1
 619 583 l 1,35,-1
 326 583 l 1,36,-1
 298 446 l 1,0,1
EndSplineSet
Substitution2: "'dnom' Denominators in Latin lookup 19 subtable" five.denominator
Substitution2: "'sups' Superscript lookup 17 subtable" fivesuperior
Substitution2: "'onum' Oldstyle Figures in Latin lookup 15 subtable" five.oldstyle
Substitution2: "'tnum' Tabular Numbers in Latin lookup 14 subtable" five.tnum
Substitution2: "'numr' Numerators in Latin lookup 13 subtable" five.numerator
Substitution2: "'sinf' Scientific Inferiors lookup 11 subtable" fiveinferior
Substitution2: "'frac' Diagonal Fractions lookup 5 subtable" five.numerator
Substitution2: "'smcp' Lowercase to Small Capitals lookup 1 subtable" five.smcp
EndChar

StartChar: six
Encoding: 54 54 25
Width: 604
GlyphClass: 2
Flags: W
LayerCount: 2
Fore
SplineSet
277 430 m 1,0,1
 342 451 342 451 462 451 c 0,2,3
 512 451 512 451 546 434 c 128,-1,4
 580 417 580 417 594 390 c 1,5,6
 613 349 613 349 613 314 c 128,-1,7
 613 279 613 279 608 256 c 1,8,-1
 592 148 l 1,9,10
 577 57 577 57 520 26 c 0,11,12
 470 -1 470 -1 382 -1 c 2,13,-1
 242 -1 l 2,14,15
 126 -1 126 -1 98 122 c 0,16,17
 89 162 89 162 89 196 c 128,-1,18
 89 230 89 230 89.5 268.5 c 128,-1,19
 90 307 90 307 103.5 391.5 c 128,-1,20
 117 476 117 476 136.5 534.5 c 128,-1,21
 156 593 156 593 177.5 628.5 c 128,-1,22
 199 664 199 664 227 688 c 0,23,24
 273 727 273 727 325 733 c 128,-1,25
 377 739 377 739 424 739 c 0,26,27
 530 739 530 739 654 714 c 1,28,-1
 634 589 l 1,29,-1
 398 589 l 2,30,31
 327 589 327 589 299 518 c 0,32,33
 286 484 286 484 277 430 c 1,0,1
258 309 m 1,34,35
 249 265 249 265 249 235.5 c 128,-1,36
 249 206 249 206 255 188 c 0,37,38
 268 148 268 148 320 148 c 2,39,-1
 374 148 l 2,40,41
 401 148 401 148 416.5 159.5 c 128,-1,42
 432 171 432 171 437 203 c 2,43,-1
 445 249 l 2,44,45
 448 265 448 265 448 277.5 c 128,-1,46
 448 290 448 290 442 299.5 c 128,-1,47
 436 309 436 309 404 309 c 2,48,-1
 258 309 l 1,34,35
EndSplineSet
Substitution2: "'dnom' Denominators in Latin lookup 19 subtable" six.denominator
Substitution2: "'sups' Superscript lookup 17 subtable" sixsuperior
Substitution2: "'onum' Oldstyle Figures in Latin lookup 15 subtable" six.oldstyle
Substitution2: "'tnum' Tabular Numbers in Latin lookup 14 subtable" six.tnum
Substitution2: "'numr' Numerators in Latin lookup 13 subtable" six.numerator
Substitution2: "'sinf' Scientific Inferiors lookup 11 subtable" sixinferior
Substitution2: "'frac' Diagonal Fractions lookup 5 subtable" six.numerator
Substitution2: "'smcp' Lowercase to Small Capitals lookup 1 subtable" six.smcp
EndChar

StartChar: seven
Encoding: 55 55 26
Width: 557
GlyphClass: 2
Flags: W
LayerCount: 2
Fore
SplineSet
112 583 m 1,0,-1
 136 732 l 1,1,-1
 612 732 l 1,2,-1
 642 662 l 1,3,-1
 300 0 l 1,4,-1
 123 0 l 1,5,-1
 428 583 l 1,6,-1
 112 583 l 1,0,-1
EndSplineSet
Substitution2: "'dnom' Denominators in Latin lookup 19 subtable" seven.denominator
Substitution2: "'sups' Superscript lookup 17 subtable" sevensuperior
Substitution2: "'onum' Oldstyle Figures in Latin lookup 15 subtable" seven.oldstyle
Substitution2: "'tnum' Tabular Numbers in Latin lookup 14 subtable" seven.tnum
Substitution2: "'numr' Numerators in Latin lookup 13 subtable" seven.numerator
Substitution2: "'sinf' Scientific Inferiors lookup 11 subtable" seveninferior
Substitution2: "'frac' Diagonal Fractions lookup 5 subtable" seven.numerator
Substitution2: "'smcp' Lowercase to Small Capitals lookup 1 subtable" seven.smcp
EndChar

StartChar: eight
Encoding: 56 56 27
Width: 620
GlyphClass: 2
Flags: W
LayerCount: 2
Fore
SplineSet
558 398 m 1,0,1
 616 385 616 385 616 286 c 0,2,3
 616 264 616 264 612 244 c 1,4,-1
 600 162 l 1,5,6
 590 102 590 102 574 78 c 128,-1,7
 558 54 558 54 547.5 41.5 c 128,-1,8
 537 29 537 29 521 21.5 c 128,-1,9
 505 14 505 14 492 9.5 c 128,-1,10
 479 5 479 5 460 3 c 0,11,12
 430 0 430 0 393 0 c 2,13,-1
 240 0 l 2,14,15
 73 0 73 0 73 141 c 0,16,17
 73 163 73 163 77 188 c 2,18,-1
 87 252 l 2,19,20
 96 309 96 309 137 336 c 0,21,22
 158 349 158 349 185 353 c 1,23,24
 153 368 153 368 138.5 395.5 c 128,-1,25
 124 423 124 423 124 448 c 128,-1,26
 124 473 124 473 129 514 c 1,27,-1
 139 579 l 2,28,29
 157 692 157 692 242 721 c 0,30,31
 287 737 287 737 357 737 c 2,32,-1
 511 737 l 2,33,34
 596 737 596 737 636 689 c 0,35,36
 665 653 665 653 665 594 c 0,37,38
 665 573 665 573 661 548 c 2,39,-1
 653 499 l 1,40,41
 647 456 647 456 611 423 c 0,42,43
 589 402 589 402 558 398 c 1,0,1
245 195 m 2,44,45
 243 186 243 186 243 174 c 0,46,47
 243 142 243 142 296 142 c 2,48,-1
 372 142 l 2,49,50
 403 142 403 142 418.5 155 c 128,-1,51
 434 168 434 168 438 195 c 2,52,-1
 447 252 l 2,53,54
 448 259 448 259 448 266 c 0,55,56
 448 307 448 307 401 307 c 2,57,-1
 321 307 l 2,58,59
 262 307 262 307 254 252 c 2,60,-1
 245 195 l 2,44,45
292 494 m 2,61,62
 291 485 291 485 291 472 c 128,-1,63
 291 459 291 459 302 449.5 c 128,-1,64
 313 440 313 440 342 440 c 2,65,-1
 420 440 l 2,66,67
 455 440 455 440 468 453 c 128,-1,68
 481 466 481 466 486 494 c 1,69,-1
 491 534 l 2,70,71
 493 551 493 551 493 565 c 128,-1,72
 493 579 493 579 484 585 c 0,73,74
 471 595 471 595 444 596 c 1,75,-1
 368 596 l 2,76,77
 335 596 335 596 323 586 c 0,78,79
 304 572 304 572 298 534 c 2,80,-1
 292 494 l 2,61,62
EndSplineSet
Substitution2: "'dnom' Denominators in Latin lookup 19 subtable" eight.denominator
Substitution2: "'sups' Superscript lookup 17 subtable" eightsuperior
Substitution2: "'onum' Oldstyle Figures in Latin lookup 15 subtable" eight.oldstyle
Substitution2: "'tnum' Tabular Numbers in Latin lookup 14 subtable" eight.tnum
Substitution2: "'numr' Numerators in Latin lookup 13 subtable" eight.numerator
Substitution2: "'sinf' Scientific Inferiors lookup 11 subtable" eightinferior
Substitution2: "'frac' Diagonal Fractions lookup 5 subtable" eight.numerator
Substitution2: "'smcp' Lowercase to Small Capitals lookup 1 subtable" eight.smcp
EndChar

StartChar: nine
Encoding: 57 57 28
Width: 603
GlyphClass: 2
Flags: W
LayerCount: 2
Fore
SplineSet
445 304 m 1,0,1
 380 283 380 283 260 283 c 0,2,3
 190 283 190 283 156 314 c 1,4,5
 110 354 110 354 110 433 c 0,6,7
 110 457 110 457 115 484 c 2,8,-1
 130 578 l 1,9,10
 143 666 143 666 195 700 c 128,-1,11
 247 734 247 734 338 734 c 2,12,-1
 478 734 l 2,13,14
 525 734 525 734 557 713.5 c 128,-1,15
 589 693 589 693 610.5 644.5 c 128,-1,16
 632 596 632 596 632 515.5 c 128,-1,17
 632 435 632 435 618 339 c 128,-1,18
 604 243 604 243 584.5 185.5 c 128,-1,19
 565 128 565 128 544 95 c 128,-1,20
 523 62 523 62 495 40.5 c 128,-1,21
 467 19 467 19 443 11 c 0,22,23
 393 -6 393 -6 290.5 -6 c 128,-1,24
 188 -6 188 -6 67 20 c 1,25,-1
 87 144 l 1,26,-1
 323 144 l 2,27,28
 394 144 394 144 422 216 c 1,29,30
 436 249 436 249 445 304 c 1,0,1
277 484 m 2,31,32
 274 468 274 468 274 455.5 c 128,-1,33
 274 443 274 443 280 433.5 c 128,-1,34
 286 424 286 424 318 424 c 2,35,-1
 464 424 l 1,36,37
 472 468 472 468 472 497.5 c 128,-1,38
 472 527 472 527 466 546 c 0,39,40
 453 586 453 586 400 586 c 2,41,-1
 347 586 l 2,42,43
 320 586 320 586 304.5 574.5 c 128,-1,44
 289 563 289 563 284 531 c 2,45,-1
 277 484 l 2,31,32
EndSplineSet
Substitution2: "'dnom' Denominators in Latin lookup 19 subtable" nine.denominator
Substitution2: "'sups' Superscript lookup 17 subtable" ninesuperior
Substitution2: "'onum' Oldstyle Figures in Latin lookup 15 subtable" nine.oldstyle
Substitution2: "'tnum' Tabular Numbers in Latin lookup 14 subtable" nine.tnum
Substitution2: "'numr' Numerators in Latin lookup 13 subtable" nine.numerator
Substitution2: "'sinf' Scientific Inferiors lookup 11 subtable" nineinferior
Substitution2: "'frac' Diagonal Fractions lookup 5 subtable" nine.numerator
Substitution2: "'smcp' Lowercase to Small Capitals lookup 1 subtable" nine.smcp
EndChar

StartChar: colon
Encoding: 58 58 29
Width: 260
GlyphClass: 2
Flags: W
LayerCount: 2
Fore
SplineSet
105 150 m 2,0,-1
 203 150 l 2,1,2
 224 150 224 150 224 132 c 0,3,4
 224 129 224 129 224 125 c 2,5,-1
 207 23 l 2,6,7
 203 0 203 0 179 0 c 2,8,-1
 81 0 l 2,9,10
 71 0 71 0 65 6.5 c 128,-1,11
 59 13 59 13 60 23 c 2,12,-1
 77 125 l 1,13,14
 80 150 80 150 105 150 c 2,0,-1
165 531 m 2,16,-1
 263 531 l 2,17,18
 284 531 284 531 284 514 c 0,19,20
 284 510 284 510 284 506 c 2,21,-1
 268 404 l 2,22,23
 264 381 264 381 240 381 c 2,24,-1
 142 381 l 2,25,26
 131 381 131 381 125 387.5 c 128,-1,27
 119 394 119 394 121 404 c 2,28,-1
 137 506 l 2,29,15
 141 531 141 531 165 531 c 2,16,-1
EndSplineSet
EndChar

StartChar: semicolon
Encoding: 59 59 30
Width: 260
GlyphClass: 2
Flags: W
LayerCount: 2
Fore
SplineSet
82 0 m 2,0,1
 71 0 71 0 65 7 c 128,-1,2
 59 14 59 14 61 25 c 2,3,-1
 77 124 l 2,4,5
 81 151 81 151 106 151 c 2,6,-1
 202 151 l 2,7,8
 222 151 222 151 222 131 c 0,9,10
 222 128 222 128 222 124 c 2,11,-1
 200 -11 l 2,12,13
 195 -44 195 -44 177.5 -64 c 128,-1,14
 160 -84 160 -84 138 -89 c 0,15,16
 115 -94 115 -94 94.5 -94 c 128,-1,17
 74 -94 74 -94 62 -91 c 2,18,-1
 48 -88 l 1,19,-1
 57 -34 l 1,20,21
 71 -34 71 -34 79 -29.5 c 128,-1,22
 87 -25 87 -25 88.5 -21 c 128,-1,23
 90 -17 90 -17 92 -10 c 1,24,-1
 93 0 l 1,25,-1
 82 0 l 2,0,1
166 532 m 2,26,-1
 264 532 l 2,27,28
 285 532 285 532 285 514 c 0,29,30
 285 510 285 510 285 506 c 2,31,-1
 269 404 l 2,32,33
 265 382 265 382 240 382 c 2,34,-1
 142 382 l 2,35,36
 132 382 132 382 126.5 388 c 128,-1,37
 121 394 121 394 122 404 c 2,38,-1
 138 506 l 1,39,40
 141 532 141 532 166 532 c 2,26,-1
EndSplineSet
EndChar

StartChar: less
Encoding: 60 60 31
Width: 441
GlyphClass: 2
Flags: W
LayerCount: 2
Fore
SplineSet
77 278 m 1,0,-1
 101 426 l 1,1,-1
 498 564 l 1,2,-1
 474 416 l 1,3,-1
 253 348 l 1,4,-1
 452 279 l 1,5,-1
 429 132 l 1,6,-1
 77 278 l 1,0,-1
EndSplineSet
EndChar

StartChar: equal
Encoding: 61 61 32
Width: 467
GlyphClass: 2
Flags: W
LayerCount: 2
Fore
SplineSet
47 174 m 1,0,-1
 68 308 l 1,1,-1
 495 308 l 1,2,-1
 474 174 l 1,3,-1
 47 174 l 1,0,-1
81 391 m 1,4,-1
 102 525 l 1,5,-1
 530 525 l 1,6,-1
 508 391 l 1,7,-1
 81 391 l 1,4,-1
EndSplineSet
EndChar

StartChar: greater
Encoding: 62 62 33
Width: 441
GlyphClass: 2
Flags: W
LayerCount: 2
Fore
SplineSet
54 132 m 1,0,-1
 78 280 l 1,1,-1
 301 360 l 1,2,-1
 99 418 l 1,3,-1
 122 564 l 1,4,-1
 475 426 l 1,5,-1
 452 278 l 1,6,-1
 54 132 l 1,0,-1
EndSplineSet
EndChar

StartChar: question
Encoding: 63 63 34
Width: 543
GlyphClass: 2
Flags: W
LayerCount: 2
Fore
SplineSet
232 402 m 1,0,1
 249 402 249 402 287 402 c 128,-1,2
 325 402 325 402 344 402.5 c 128,-1,3
 363 403 363 403 381 410 c 0,4,5
 421 426 421 426 430 478 c 1,6,-1
 435 515 l 2,7,8
 436 524 436 524 436 532 c 0,9,10
 436 559 436 559 417.5 574.5 c 128,-1,11
 399 590 399 590 347 590 c 2,12,-1
 106 590 l 1,13,-1
 126 712 l 1,14,15
 255 740 255 740 372 740 c 0,16,17
 392 740 392 740 423.5 739.5 c 128,-1,18
 455 739 455 739 490 727 c 128,-1,19
 525 715 525 715 548 694 c 0,20,21
 597 648 597 648 603 591 c 0,22,23
 604 577 604 577 604 562.5 c 128,-1,24
 604 548 604 548 602 532 c 2,25,-1
 592 453 l 2,26,27
 578 350 578 350 519 312 c 0,28,29
 470 280 470 280 378 280 c 0,30,31
 360 280 360 280 340 281 c 1,32,-1
 327 195 l 1,33,-1
 200 195 l 1,34,-1
 232 402 l 1,0,1
206 150 m 2,35,-1
 304 150 l 2,36,37
 326 150 326 150 326 132 c 0,38,39
 326 129 326 129 325 125 c 2,40,-1
 308 23 l 2,41,42
 305 0 305 0 280 0 c 2,43,-1
 182 0 l 2,44,45
 172 0 172 0 166 6.5 c 128,-1,46
 160 13 160 13 162 23 c 2,47,-1
 178 125 l 2,48,49
 181 150 181 150 206 150 c 2,35,-1
EndSplineSet
Substitution2: "'smcp' Lowercase to Small Capitals lookup 1 subtable" question.smcp
EndChar

StartChar: at
Encoding: 64 64 35
Width: 907
GlyphClass: 2
Flags: W
LayerCount: 2
Fore
SplineSet
754 729 m 2,0,1
 930 729 930 729 930 541 c 0,2,3
 930 510 930 510 924 476 c 2,4,-1
 876 160 l 2,5,6
 865 82 865 82 821 42.5 c 128,-1,7
 777 3 777 3 675 3 c 2,8,-1
 569 3 l 1,9,-1
 545 56 l 1,10,11
 501 -4 501 -4 423 -4 c 0,12,13
 328 -4 328 -4 287 73 c 0,14,15
 260 122 260 122 260 199 c 0,16,17
 260 239 260 239 269 295.5 c 128,-1,18
 278 352 278 352 297 399.5 c 128,-1,19
 316 447 316 447 338 474.5 c 128,-1,20
 360 502 360 502 390 518 c 0,21,22
 439 546 439 546 513 546 c 0,23,24
 662 546 662 546 732 478 c 1,25,-1
 682 130 l 1,26,27
 719 130 719 130 733 145.5 c 128,-1,28
 747 161 747 161 756 220 c 2,29,-1
 796 491 l 2,30,31
 800 515 800 515 800 540.5 c 128,-1,32
 800 566 800 566 788 580 c 0,33,34
 770 602 770 602 718 602 c 2,35,-1
 366 602 l 2,36,37
 299 602 299 602 274 564 c 0,38,39
 254 535 254 535 247 491 c 2,40,-1
 174 32 l 2,41,42
 172 17 172 17 172 -3.5 c 128,-1,43
 172 -24 172 -24 184 -42 c 0,44,45
 201 -68 201 -68 261 -68 c 2,46,-1
 647 -68 l 1,47,-1
 631 -167 l 1,48,49
 496 -194 496 -194 339 -194 c 2,50,-1
 248 -194 l 2,51,52
 140 -194 140 -194 92 -144 c 0,53,54
 42 -93 42 -93 42 -21 c 0,55,56
 42 12 42 12 46 46 c 1,57,-1
 121 521 l 2,58,59
 140 638 140 638 206.5 683.5 c 128,-1,60
 273 729 273 729 394 729 c 2,61,-1
 754 729 l 2,0,1
401.5 142.5 m 128,-1,63
 416 122 416 122 448 122 c 0,64,65
 534 122 534 122 562 190 c 1,66,-1
 596 412 l 1,67,68
 555 420 555 420 505.5 420 c 128,-1,69
 456 420 456 420 431 387 c 128,-1,70
 406 354 406 354 397 293 c 0,71,72
 387 218 387 218 387 190.5 c 128,-1,62
 387 163 387 163 401.5 142.5 c 128,-1,63
EndSplineSet
Substitution2: "'case' Case-Sensitive Forms lookup 18 subtable" at.alt
Substitution2: "'smcp' Lowercase to Small Capitals lookup 1 subtable" at.smcp
EndChar

StartChar: A
Encoding: 65 65 36
Width: 698
GlyphClass: 2
Flags: W
LayerCount: 2
Fore
SplineSet
30 0 m 1,0,-1
 385 732 l 1,1,-1
 575 732 l 1,2,-1
 690 0 l 1,3,-1
 522 0 l 1,4,-1
 496 147 l 1,5,-1
 281 147 l 1,6,-1
 212 0 l 1,7,-1
 30 0 l 1,0,-1
344 289 m 1,8,-1
 483 289 l 1,9,-1
 450 524 l 1,10,-1
 344 289 l 1,8,-1
EndSplineSet
Substitution2: "'c2sc' Capitals to Small Capitals in Latin lookup 2 subtable" a.smcp
EndChar

StartChar: B
Encoding: 66 66 37
Width: 600
GlyphClass: 2
Flags: W
LayerCount: 2
Fore
SplineSet
472 732 m 2,0,1
 527 732 527 732 567 714.5 c 128,-1,2
 607 697 607 697 626 668 c 0,3,4
 657 621 657 621 657 562 c 0,5,6
 657 541 657 541 653 519 c 0,7,8
 645 464 645 464 610 425 c 128,-1,9
 575 386 575 386 525 380 c 1,10,11
 573 372 573 372 600 321 c 0,12,13
 620 284 620 284 620 234 c 0,14,15
 620 170 620 170 600.5 123 c 128,-1,16
 581 76 581 76 561 54 c 128,-1,17
 541 32 541 32 509 20 c 0,18,19
 456 0 456 0 359 0 c 2,20,-1
 54 0 l 1,21,-1
 170 732 l 1,22,-1
 472 732 l 2,0,1
456 252 m 0,23,24
 456 316 456 316 402 316 c 2,25,-1
 268 316 l 1,26,-1
 240 142 l 1,27,-1
 374 142 l 2,28,29
 441 142 441 142 454 227 c 0,30,31
 456 240 456 240 456 252 c 0,23,24
416 450 m 2,32,33
 457 450 457 450 477 483 c 0,34,35
 491 506 491 506 491 539 c 0,36,37
 491 590 491 590 438 590 c 2,38,-1
 312 590 l 1,39,-1
 290 450 l 1,40,-1
 416 450 l 2,32,33
EndSplineSet
Substitution2: "'c2sc' Capitals to Small Capitals in Latin lookup 2 subtable" b.smcp
EndChar

StartChar: C
Encoding: 67 67 38
Width: 569
GlyphClass: 2
Flags: W
LayerCount: 2
Fore
SplineSet
277 719 m 128,-1,1
 330 740 330 740 411 740 c 128,-1,2
 492 740 492 740 544.5 732 c 128,-1,3
 597 724 597 724 658 702 c 1,4,-1
 637 574 l 1,5,6
 500 591 500 591 429 591 c 0,7,8
 428 591 428 591 426.5 591 c 128,-1,9
 425 591 425 591 415.5 591 c 128,-1,10
 406 591 406 591 398 590.5 c 128,-1,11
 390 590 390 590 376 588 c 128,-1,12
 362 586 362 586 354.5 582.5 c 128,-1,13
 347 579 347 579 335.5 571 c 128,-1,14
 324 563 324 563 317 552 c 128,-1,15
 310 541 310 541 300.5 524 c 128,-1,16
 291 507 291 507 285 485 c 0,17,18
 269 430 269 430 258.5 366 c 128,-1,19
 248 302 248 302 248 260 c 128,-1,20
 248 218 248 218 257 194 c 0,21,22
 277 145 277 145 354 143 c 0,23,24
 360 143 360 143 403 143 c 128,-1,25
 446 143 446 143 571 152 c 1,26,-1
 551 24 l 1,27,28
 498 5 498 5 447 -0.5 c 128,-1,29
 396 -6 396 -6 351.5 -6 c 128,-1,30
 307 -6 307 -6 287 -6 c 0,31,32
 219 -5 219 -5 173.5 25 c 128,-1,33
 128 55 128 55 108 108 c 0,34,35
 83 174 83 174 83 249 c 128,-1,36
 83 324 83 324 96 403 c 128,-1,37
 109 482 109 482 130.5 544.5 c 128,-1,38
 152 607 152 607 188 652.5 c 128,-1,0
 224 698 224 698 277 719 c 128,-1,1
EndSplineSet
Substitution2: "'c2sc' Capitals to Small Capitals in Latin lookup 2 subtable" c.smcp
EndChar

StartChar: D
Encoding: 68 68 39
Width: 651
GlyphClass: 2
Flags: W
LayerCount: 2
Fore
SplineSet
475 732 m 0,0,1
 535 732 535 732 577.5 710 c 128,-1,2
 620 688 620 688 643 652 c 0,3,4
 684 585 684 585 684 470 c 0,5,6
 684 414 684 414 673 340 c 0,7,8
 635 91 635 91 519 30 c 0,9,10
 461 0 461 0 372 0 c 2,11,-1
 54 0 l 1,12,-1
 170 732 l 1,13,14
 170 732 170 732 475 732 c 0,0,1
368 142 m 2,15,16
 426 142 426 142 459 197 c 128,-1,17
 492 252 492 252 510 364 c 1,18,19
 521 446 521 446 521 485.5 c 128,-1,20
 521 525 521 525 509.5 548.5 c 128,-1,21
 498 572 498 572 479.5 581 c 128,-1,22
 461 590 461 590 432 590 c 2,23,-1
 311 590 l 1,24,-1
 240 142 l 1,25,-1
 368 142 l 2,15,16
EndSplineSet
Substitution2: "'c2sc' Capitals to Small Capitals in Latin lookup 2 subtable" d.smcp
EndChar

StartChar: E
Encoding: 69 69 40
Width: 558
GlyphClass: 2
Flags: W
LayerCount: 2
Fore
SplineSet
214 706 m 0,0,1
 242 721 242 721 269.5 726.5 c 128,-1,2
 297 732 297 732 315 732 c 128,-1,3
 333 732 333 732 335 732 c 0,4,5
 556 728 556 728 642 716 c 1,6,-1
 620 579 l 1,7,-1
 356 579 l 2,8,9
 307 579 307 579 298 540 c 0,10,11
 297 534 297 534 295 523 c 2,12,-1
 283 443 l 1,13,-1
 549 432 l 1,14,-1
 527 297 l 1,15,-1
 258 288 l 1,16,-1
 244 202 l 2,17,18
 238 164 238 164 258 156 c 0,19,20
 273 150 273 150 298 150 c 2,21,-1
 553 150 l 1,22,-1
 531 14 l 1,23,24
 460 5 460 5 286 -1 c 2,25,-1
 228 -3 l 2,26,27
 223 -3 223 -3 211.5 -3 c 128,-1,28
 200 -3 200 -3 180 0 c 128,-1,29
 160 3 160 3 136 14 c 0,30,31
 70 45 70 45 70 126 c 0,32,33
 70 142 70 142 72 160 c 2,34,-1
 139 580 l 2,35,36
 154 675 154 675 214 706 c 0,0,1
EndSplineSet
Substitution2: "'c2sc' Capitals to Small Capitals in Latin lookup 2 subtable" e.smcp
EndChar

StartChar: F
Encoding: 70 70 41
Width: 559
GlyphClass: 2
Flags: W
LayerCount: 2
Fore
SplineSet
271 724 m 0,0,1
 301 732 301 732 318 732 c 128,-1,2
 335 732 335 732 337 732 c 0,3,4
 557 728 557 728 644 716 c 1,5,-1
 622 579 l 1,6,-1
 358 579 l 2,7,8
 321 579 321 579 310 561 c 1,9,10
 300 547 300 547 297 523 c 2,11,-1
 284 440 l 1,12,-1
 551 430 l 1,13,-1
 530 294 l 1,14,-1
 259 285 l 1,15,-1
 214 0 l 1,16,-1
 50 0 l 1,17,-1
 139 564 l 2,18,19
 160 695 160 695 271 724 c 0,0,1
EndSplineSet
Substitution2: "'c2sc' Capitals to Small Capitals in Latin lookup 2 subtable" f.smcp
EndChar

StartChar: G
Encoding: 71 71 42
Width: 615
GlyphClass: 2
Flags: W
LayerCount: 2
Fore
SplineSet
401 740 m 0,0,1
 404 740 404 740 437 740 c 128,-1,2
 470 740 470 740 510 737 c 0,3,4
 577 732 577 732 682 703 c 1,5,-1
 662 578 l 1,6,7
 659 579 659 579 648.5 580.5 c 128,-1,8
 638 582 638 582 625 583.5 c 128,-1,9
 612 585 612 585 594 587 c 128,-1,10
 576 589 576 589 556 591 c 128,-1,11
 536 593 536 593 515 595 c 0,12,13
 467 598 467 598 428.5 598 c 128,-1,14
 390 598 390 598 367.5 590 c 128,-1,15
 345 582 345 582 324 557 c 0,16,17
 286 512 286 512 264 367 c 1,18,19
 251 292 251 292 251 266.5 c 128,-1,20
 251 241 251 241 251 237 c 0,21,22
 252 188 252 188 272.5 167 c 128,-1,23
 293 146 293 146 340 146 c 0,24,25
 393 146 393 146 439 185 c 0,26,27
 444 189 444 189 448 195 c 1,28,-1
 466 299 l 1,29,-1
 387 299 l 1,30,-1
 403 402 l 1,31,32
 460 426 460 426 582 426 c 0,33,34
 614 426 614 426 650 424 c 1,35,-1
 582 0 l 1,36,-1
 465 0 l 1,37,-1
 428 51 l 1,38,39
 393 15 393 15 356 6 c 0,40,41
 311 -6 311 -6 268.5 -6 c 128,-1,42
 226 -6 226 -6 191.5 8 c 128,-1,43
 157 22 157 22 134 51 c 1,44,45
 83 119 83 119 83 241 c 0,46,47
 83 315 83 315 98 394.5 c 128,-1,48
 113 474 113 474 128.5 525 c 128,-1,49
 144 576 144 576 167 619.5 c 128,-1,50
 190 663 190 663 222 688 c 0,51,52
 287 740 287 740 401 740 c 0,0,1
EndSplineSet
Substitution2: "'c2sc' Capitals to Small Capitals in Latin lookup 2 subtable" g.smcp
EndChar

StartChar: H
Encoding: 72 72 43
Width: 636
GlyphClass: 2
Flags: W
LayerCount: 2
Fore
SplineSet
55 0 m 1,0,-1
 171 732 l 1,1,-1
 335 732 l 1,2,-1
 287 428 l 1,3,-1
 502 428 l 1,4,-1
 550 732 l 1,5,-1
 714 732 l 1,6,-1
 598 0 l 1,7,-1
 434 0 l 1,8,-1
 478 280 l 1,9,-1
 263 280 l 1,10,-1
 219 0 l 1,11,-1
 55 0 l 1,0,-1
EndSplineSet
Substitution2: "'c2sc' Capitals to Small Capitals in Latin lookup 2 subtable" h.smcp
EndChar

StartChar: I
Encoding: 73 73 44
Width: 267
GlyphClass: 2
Flags: W
LayerCount: 2
Fore
SplineSet
56 0 m 1,0,-1
 172 732 l 1,1,-1
 336 732 l 1,2,-1
 220 0 l 1,3,-1
 56 0 l 1,0,-1
EndSplineSet
Substitution2: "'c2sc' Capitals to Small Capitals in Latin lookup 2 subtable" i.smcp
EndChar

StartChar: J
Encoding: 74 74 45
Width: 355
GlyphClass: 2
Flags: W
LayerCount: 2
Fore
SplineSet
48 153 m 1,0,1
 68 152 68 152 83.5 152 c 128,-1,2
 99 152 99 152 115 153.5 c 128,-1,3
 131 155 131 155 149.5 165 c 128,-1,4
 168 175 168 175 177 194.5 c 128,-1,5
 186 214 186 214 191 248 c 2,6,-1
 268 732 l 1,7,-1
 432 732 l 1,8,-1
 342 165 l 2,9,10
 325 53 325 53 265 18 c 0,11,12
 225 -5 225 -5 156 -5 c 0,13,14
 66 -5 66 -5 27 24 c 1,15,-1
 48 153 l 1,0,1
EndSplineSet
Substitution2: "'c2sc' Capitals to Small Capitals in Latin lookup 2 subtable" j.smcp
EndChar

StartChar: K
Encoding: 75 75 46
Width: 638
GlyphClass: 2
Flags: W
LayerCount: 2
Fore
SplineSet
54 0 m 1,0,-1
 170 732 l 1,1,-1
 326 732 l 1,2,-1
 279 434 l 1,3,-1
 323 434 l 1,4,-1
 538 732 l 1,5,-1
 736 732 l 1,6,-1
 466 352 l 1,7,-1
 620 0 l 1,8,-1
 434 0 l 1,9,-1
 317 292 l 1,10,-1
 257 292 l 1,11,-1
 211 0 l 1,12,-1
 54 0 l 1,0,-1
EndSplineSet
Substitution2: "'c2sc' Capitals to Small Capitals in Latin lookup 2 subtable" k.smcp
EndChar

StartChar: L
Encoding: 76 76 47
Width: 527
GlyphClass: 2
Flags: W
LayerCount: 2
Fore
SplineSet
303 149 m 2,0,-1
 534 149 l 1,1,-1
 510 0 l 1,2,-1
 211 0 l 2,3,4
 142 0 142 0 108 32 c 128,-1,5
 74 64 74 64 74 114 c 0,6,7
 74 130 74 130 76 148 c 2,8,-1
 169 732 l 1,9,-1
 333 732 l 1,10,-1
 249 201 l 2,11,12
 243 163 243 163 263 155 c 0,13,14
 277 149 277 149 303 149 c 2,0,-1
EndSplineSet
Substitution2: "'c2sc' Capitals to Small Capitals in Latin lookup 2 subtable" l.smcp
EndChar

StartChar: M
Encoding: 77 77 48
Width: 837
GlyphClass: 2
Flags: W
LayerCount: 2
Fore
SplineSet
41 0 m 1,0,-1
 228 732 l 1,1,-1
 454 732 l 1,2,-1
 477 272 l 1,3,-1
 644 732 l 1,4,-1
 875 732 l 1,5,-1
 832 0 l 1,6,-1
 671 0 l 1,7,-1
 699 449 l 1,8,-1
 533 0 l 1,9,-1
 344 0 l 1,10,-1
 318 449 l 1,11,-1
 206 0 l 1,12,-1
 41 0 l 1,0,-1
EndSplineSet
AlternateSubs2: "'salt' Stylistic Alternatives in Latin lookup 16 subtable" M.salt
Substitution2: "'c2sc' Capitals to Small Capitals in Latin lookup 2 subtable" m.smcp
EndChar

StartChar: N
Encoding: 78 78 49
Width: 672
GlyphClass: 2
Flags: W
LayerCount: 2
Fore
SplineSet
54 0 m 1,0,-1
 170 732 l 1,1,-1
 335 732 l 1,2,-1
 517 299 l 1,3,-1
 585 732 l 1,4,-1
 749 732 l 1,5,-1
 633 0 l 1,6,-1
 470 0 l 1,7,-1
 286 425 l 1,8,-1
 219 0 l 1,9,-1
 54 0 l 1,0,-1
EndSplineSet
AlternateSubs2: "'salt' Stylistic Alternatives in Latin lookup 16 subtable" N.salt
Substitution2: "'c2sc' Capitals to Small Capitals in Latin lookup 2 subtable" n.smcp
EndChar

StartChar: O
Encoding: 79 79 50
Width: 666
GlyphClass: 2
Flags: W
LayerCount: 2
Fore
SplineSet
383.5 735.5 m 128,-1,1
 411 737 411 737 452.5 737 c 128,-1,2
 494 737 494 737 525 733 c 128,-1,3
 556 729 556 729 586.5 718 c 128,-1,4
 617 707 617 707 639 689 c 0,5,6
 708 629 708 629 708 485 c 0,7,8
 708 421 708 421 696.5 347.5 c 128,-1,9
 685 274 685 274 669 221.5 c 128,-1,10
 653 169 653 169 635 132.5 c 128,-1,11
 617 96 617 96 591 70.5 c 128,-1,12
 565 45 565 45 540.5 30.5 c 128,-1,13
 516 16 516 16 481 8 c 0,14,15
 426 -4 426 -4 363.5 -4 c 128,-1,16
 301 -4 301 -4 270 -0.5 c 128,-1,17
 239 3 239 3 208 13.5 c 128,-1,18
 177 24 177 24 156 42 c 0,19,20
 107 83 107 83 93 158 c 0,21,22
 87 193 87 193 87 220 c 128,-1,23
 87 247 87 247 87.5 278.5 c 128,-1,24
 88 310 88 310 99.5 381 c 128,-1,25
 111 452 111 452 128 507.5 c 128,-1,26
 145 563 145 563 163 600.5 c 128,-1,27
 181 638 181 638 208.5 664 c 128,-1,28
 236 690 236 690 259.5 704.5 c 128,-1,29
 283 719 283 719 319.5 726.5 c 128,-1,0
 356 734 356 734 383.5 735.5 c 128,-1,1
284.5 465 m 128,-1,31
 273 424 273 424 262 354 c 128,-1,32
 251 284 251 284 251 260 c 128,-1,33
 251 236 251 236 252.5 218 c 128,-1,34
 254 200 254 200 260.5 185.5 c 128,-1,35
 267 171 267 171 281 161 c 0,36,37
 305 145 305 145 360 145 c 128,-1,38
 415 145 415 145 445 162 c 128,-1,39
 475 179 475 179 496 225.5 c 128,-1,40
 517 272 517 272 529 347 c 0,41,42
 543 435 543 435 543 472 c 128,-1,43
 543 509 543 509 539 531.5 c 128,-1,44
 535 554 535 554 519.5 566.5 c 128,-1,45
 504 579 504 579 485 583.5 c 128,-1,46
 466 588 466 588 433 588 c 128,-1,47
 400 588 400 588 380 584.5 c 128,-1,48
 360 581 360 581 340.5 568.5 c 128,-1,49
 321 556 321 556 308.5 531 c 128,-1,30
 296 506 296 506 284.5 465 c 128,-1,31
EndSplineSet
Substitution2: "'c2sc' Capitals to Small Capitals in Latin lookup 2 subtable" o.smcp
EndChar

StartChar: P
Encoding: 80 80 51
Width: 598
GlyphClass: 2
Flags: W
LayerCount: 2
Fore
SplineSet
474 732 m 2,0,1
 537 732 537 732 586 700 c 1,2,3
 637 668 637 668 653 582 c 0,4,5
 656 563 656 563 656 538 c 128,-1,6
 656 513 656 513 649 468 c 128,-1,7
 642 423 642 423 625.5 381.5 c 128,-1,8
 609 340 609 340 588.5 317.5 c 128,-1,9
 568 295 568 295 543.5 280.5 c 128,-1,10
 519 266 519 266 495 263 c 0,11,12
 449 258 449 258 431 258 c 128,-1,13
 413 258 413 258 392 260 c 128,-1,14
 371 262 371 262 317.5 269.5 c 128,-1,15
 264 277 264 277 260 280 c 1,16,-1
 216 0 l 1,17,-1
 52 0 l 1,18,-1
 168 732 l 1,19,-1
 474 732 l 2,0,1
406 402 m 2,20,21
 438 402 438 402 457.5 424.5 c 128,-1,22
 477 447 477 447 485 499 c 0,23,24
 488 515 488 515 488 529 c 0,25,26
 488 590 488 590 436 590 c 2,27,-1
 309 590 l 1,28,-1
 279 402 l 1,29,-1
 406 402 l 2,20,21
EndSplineSet
Substitution2: "'c2sc' Capitals to Small Capitals in Latin lookup 2 subtable" p.smcp
EndChar

StartChar: Q
Encoding: 81 81 52
Width: 667
GlyphClass: 2
Flags: W
LayerCount: 2
Fore
SplineSet
384 735.5 m 128,-1,1
 411 737 411 737 453 737 c 128,-1,2
 495 737 495 737 526 733 c 128,-1,3
 557 729 557 729 587.5 717.5 c 128,-1,4
 618 706 618 706 640 687 c 0,5,6
 709 627 709 627 709 482 c 0,7,8
 709 363 709 363 676 242 c 0,9,10
 652 151 652 151 628 116 c 128,-1,11
 604 81 604 81 587 63.5 c 128,-1,12
 570 46 570 46 546.5 33.5 c 128,-1,13
 523 21 523 21 502.5 14 c 128,-1,14
 482 7 482 7 453 3 c 0,15,16
 318 -16 318 -16 224 10 c 1,17,18
 173 23 173 23 136 65 c 0,19,20
 103 102 103 102 91 182 c 0,21,22
 87 209 87 209 87 233 c 0,23,24
 87 303 87 303 99.5 379.5 c 128,-1,25
 112 456 112 456 129 511 c 128,-1,26
 146 566 146 566 164 603.5 c 128,-1,27
 182 641 182 641 209.5 666.5 c 128,-1,28
 237 692 237 692 260.5 706 c 128,-1,29
 284 720 284 720 320.5 727 c 128,-1,0
 357 734 357 734 384 735.5 c 128,-1,1
285.5 465 m 128,-1,31
 274 424 274 424 263 354 c 128,-1,32
 252 284 252 284 252 260 c 128,-1,33
 252 236 252 236 253.5 218 c 128,-1,34
 255 200 255 200 261.5 185.5 c 128,-1,35
 268 171 268 171 282 161 c 0,36,37
 306 145 306 145 361 145 c 128,-1,38
 416 145 416 145 446 162 c 128,-1,39
 476 179 476 179 497 225.5 c 128,-1,40
 518 272 518 272 530 347 c 0,41,42
 544 435 544 435 544 472 c 128,-1,43
 544 509 544 509 540 531.5 c 128,-1,44
 536 554 536 554 520.5 566.5 c 128,-1,45
 505 579 505 579 486 583.5 c 128,-1,46
 467 588 467 588 434 588 c 128,-1,47
 401 588 401 588 381 584.5 c 128,-1,48
 361 581 361 581 341.5 568.5 c 128,-1,49
 322 556 322 556 309.5 531 c 128,-1,30
 297 506 297 506 285.5 465 c 128,-1,31
450 -76 m 0,50,51
 484 -76 484 -76 533 -64 c 1,52,-1
 513 -189 l 1,53,54
 428 -201 428 -201 379 -183 c 0,55,56
 349 -172 349 -172 326 -154 c 0,57,58
 286 -121 286 -121 286 -57 c 0,59,60
 286 -46 286 -46 287 -33 c 1,61,-1
 377 -33 l 1,62,63
 385 -76 385 -76 450 -76 c 0,50,51
EndSplineSet
Substitution2: "'c2sc' Capitals to Small Capitals in Latin lookup 2 subtable" q.smcp
EndChar

StartChar: R
Encoding: 82 82 53
Width: 601
GlyphClass: 2
Flags: W
LayerCount: 2
Fore
SplineSet
476 732 m 2,0,1
 571 732 571 732 620 671 c 0,2,3
 655 626 655 626 655 547 c 0,4,5
 655 463 655 463 628 393 c 0,6,7
 613 356 613 356 598.5 336.5 c 128,-1,8
 584 317 584 317 563 304.5 c 128,-1,9
 542 292 542 292 530.5 289 c 128,-1,10
 519 286 519 286 503 283 c 1,11,-1
 606 0 l 1,12,-1
 420 0 l 1,13,-1
 339 275 l 1,14,-1
 260 282 l 1,15,-1
 216 0 l 1,16,-1
 52 0 l 1,17,-1
 168 732 l 1,18,-1
 476 732 l 2,0,1
404 407 m 2,19,20
 454 407 454 407 472 447 c 0,21,22
 487 481 487 481 487 519 c 128,-1,23
 487 557 487 557 480 570 c 0,24,25
 469 590 469 590 435 590 c 2,26,-1
 310 590 l 1,27,-1
 281 407 l 1,28,-1
 404 407 l 2,19,20
EndSplineSet
Substitution2: "'c2sc' Capitals to Small Capitals in Latin lookup 2 subtable" r.smcp
EndChar

StartChar: S
Encoding: 83 83 54
Width: 582
GlyphClass: 2
Flags: W
LayerCount: 2
Fore
SplineSet
335 141 m 0,0,1
 371 141 371 141 393 152.5 c 128,-1,2
 415 164 415 164 420 194 c 2,3,-1
 424 223 l 2,4,5
 427 241 427 241 425 254 c 0,6,7
 421 281 421 281 373 281 c 2,8,-1
 286 281 l 2,9,10
 182 281 182 281 140 345 c 0,11,12
 113 387 113 387 113 450 c 0,13,14
 113 466 113 466 116 486 c 2,15,-1
 126 566 l 1,16,17
 144 686 144 686 234 719 c 0,18,19
 285 738 285 738 415.5 738 c 128,-1,20
 546 738 546 738 638 707 c 1,21,-1
 618 579 l 1,22,23
 507 589 507 589 377 589 c 0,24,25
 334 589 334 589 314.5 579 c 128,-1,26
 295 569 295 569 289 530 c 2,27,-1
 285 505 l 2,28,29
 283 494 283 494 283 479.5 c 128,-1,30
 283 465 283 465 294 455 c 128,-1,31
 305 445 305 445 346 445 c 2,32,-1
 437 445 l 2,33,34
 478 445 478 445 509 431.5 c 128,-1,35
 540 418 540 418 556 397 c 0,36,37
 591 349 591 349 591 297 c 0,38,39
 591 274 591 274 589 243 c 2,40,-1
 585 178 l 2,41,42
 578 72 578 72 514 30 c 0,43,44
 476 5 476 5 439 -1 c 0,45,46
 392 -8 392 -8 316 -8 c 128,-1,47
 240 -8 240 -8 182.5 -2 c 128,-1,48
 125 4 125 4 68 24 c 1,49,-1
 88 152 l 1,50,51
 184 141 184 141 335 141 c 0,0,1
EndSplineSet
Substitution2: "'c2sc' Capitals to Small Capitals in Latin lookup 2 subtable" s.smcp
EndChar

StartChar: T
Encoding: 84 84 55
Width: 592
GlyphClass: 2
Flags: W
LayerCount: 2
Fore
SplineSet
116 583 m 1,0,-1
 140 732 l 1,1,-1
 693 732 l 1,2,-1
 669 583 l 1,3,-1
 471 583 l 1,4,-1
 379 0 l 1,5,-1
 215 0 l 1,6,-1
 307 583 l 1,7,-1
 116 583 l 1,0,-1
EndSplineSet
Substitution2: "'c2sc' Capitals to Small Capitals in Latin lookup 2 subtable" t.smcp
EndChar

StartChar: U
Encoding: 85 85 56
Width: 653
GlyphClass: 2
Flags: W
LayerCount: 2
Fore
SplineSet
266 316 m 2,0,1
 259 270 259 270 259 236 c 128,-1,2
 259 202 259 202 267 182 c 0,3,4
 284 144 284 144 355 144 c 128,-1,5
 426 144 426 144 455 184 c 128,-1,6
 484 224 484 224 498 316 c 2,7,-1
 564 732 l 1,8,-1
 729 732 l 1,9,-1
 667 293 l 1,10,11
 641 124 641 124 565 59 c 0,12,13
 500 4 500 4 398 -3 c 0,14,15
 371 -5 371 -5 337.5 -5 c 128,-1,16
 304 -5 304 -5 280.5 -2.5 c 128,-1,17
 257 0 257 0 231 6 c 128,-1,18
 205 12 205 12 185 23.5 c 128,-1,19
 165 35 165 35 147 52 c 0,20,21
 114 83 114 83 99 156 c 0,22,23
 93 184 93 184 93 207 c 0,24,25
 93 273 93 273 104 338 c 2,26,-1
 167 732 l 1,27,-1
 332 732 l 1,28,-1
 266 316 l 2,0,1
EndSplineSet
Substitution2: "'c2sc' Capitals to Small Capitals in Latin lookup 2 subtable" u.smcp
EndChar

StartChar: V
Encoding: 86 86 57
Width: 691
GlyphClass: 2
Flags: W
LayerCount: 2
Fore
SplineSet
135 732 m 1,0,-1
 308 732 l 1,1,-1
 366 208 l 1,2,-1
 598 732 l 1,3,-1
 780 732 l 1,4,-1
 432 0 l 1,5,-1
 238 0 l 1,6,-1
 135 732 l 1,0,-1
EndSplineSet
Substitution2: "'c2sc' Capitals to Small Capitals in Latin lookup 2 subtable" v.smcp
EndChar

StartChar: W
Encoding: 87 87 58
Width: 1013
GlyphClass: 2
Flags: W
LayerCount: 2
Fore
SplineSet
135 732 m 1,0,-1
 307 732 l 1,1,-1
 367 216 l 1,2,-1
 576 732 l 1,3,-1
 750 732 l 1,4,-1
 669 548 l 1,5,-1
 717 215 l 1,6,-1
 930 732 l 1,7,-1
 1103 732 l 1,8,-1
 786 0 l 1,9,-1
 598 0 l 1,10,-1
 556 274 l 1,11,-1
 438 0 l 1,12,-1
 238 0 l 1,13,-1
 135 732 l 1,0,-1
EndSplineSet
Substitution2: "'c2sc' Capitals to Small Capitals in Latin lookup 2 subtable" w.smcp
EndChar

StartChar: X
Encoding: 88 88 59
Width: 659
GlyphClass: 2
Flags: W
LayerCount: 2
Fore
SplineSet
30 0 m 1,0,-1
 299 378 l 1,1,-1
 144 732 l 1,2,-1
 324 732 l 1,3,-1
 412 504 l 1,4,-1
 572 732 l 1,5,-1
 756 732 l 1,6,-1
 481 346 l 1,7,-1
 633 0 l 1,8,-1
 452 0 l 1,9,-1
 368 220 l 1,10,-1
 214 0 l 1,11,-1
 30 0 l 1,0,-1
EndSplineSet
AlternateSubs2: "'salt' Stylistic Alternatives in Latin lookup 16 subtable" X.salt
Substitution2: "'c2sc' Capitals to Small Capitals in Latin lookup 2 subtable" x.smcp
EndChar

StartChar: Y
Encoding: 89 89 60
Width: 666
GlyphClass: 2
Flags: W
LayerCount: 2
Fore
SplineSet
135 732 m 1,0,-1
 313 732 l 1,1,-1
 381 394 l 1,2,-1
 569 732 l 1,3,-1
 755 732 l 1,4,-1
 437 215 l 1,5,-1
 402 0 l 1,6,-1
 238 0 l 1,7,-1
 273 215 l 1,8,-1
 135 732 l 1,0,-1
EndSplineSet
Substitution2: "'c2sc' Capitals to Small Capitals in Latin lookup 2 subtable" y.smcp
EndChar

StartChar: Z
Encoding: 90 90 61
Width: 555
GlyphClass: 2
Flags: W
LayerCount: 2
Fore
SplineSet
24 0 m 1,0,-1
 48 149 l 1,1,-1
 426 583 l 1,2,-1
 116 583 l 1,3,-1
 140 732 l 1,4,-1
 648 732 l 1,5,-1
 624 583 l 1,6,-1
 260 149 l 1,7,-1
 556 149 l 1,8,-1
 532 0 l 1,9,-1
 24 0 l 1,0,-1
EndSplineSet
Substitution2: "'c2sc' Capitals to Small Capitals in Latin lookup 2 subtable" z.smcp
EndChar

StartChar: bracketleft
Encoding: 91 91 62
Width: 339
GlyphClass: 2
Flags: W
LayerCount: 2
Fore
SplineSet
380 797 m 2,0,-1
 460 797 l 1,1,-1
 438 663 l 1,2,-1
 396 663 l 2,3,4
 365 663 365 663 347 645.5 c 128,-1,5
 329 628 329 628 322 584 c 2,6,-1
 221 -38 l 2,7,8
 218 -58 218 -58 218 -75 c 0,9,10
 218 -121 218 -121 268 -121 c 2,11,-1
 314 -121 l 1,12,-1
 293 -255 l 1,13,-1
 201 -255 l 2,14,15
 159 -255 159 -255 128 -240 c 0,16,17
 52 -201 52 -201 52 -86 c 0,18,19
 52 -56 52 -56 57 -24 c 2,20,-1
 163 626 l 2,21,22
 178 719 178 719 226 758 c 128,-1,23
 274 797 274 797 380 797 c 2,0,-1
EndSplineSet
EndChar

StartChar: backslash
Encoding: 92 92 63
Width: 470
GlyphClass: 2
Flags: W
LayerCount: 2
Fore
SplineSet
134 770 m 1,0,-1
 299 770 l 1,1,-1
 447 -72 l 1,2,-1
 282 -72 l 1,3,-1
 134 770 l 1,0,-1
EndSplineSet
EndChar

StartChar: bracketright
Encoding: 93 93 64
Width: 334
GlyphClass: 2
Flags: W
LayerCount: 2
Fore
SplineSet
44 -121 m 2,0,1
 74 -121 74 -121 92.5 -103.5 c 128,-1,2
 111 -86 111 -86 119 -42 c 1,3,-1
 217 580 l 2,4,5
 220 598 220 598 220 616 c 128,-1,6
 220 634 220 634 210.5 648.5 c 128,-1,7
 201 663 201 663 168 663 c 2,8,-1
 126 663 l 1,9,-1
 147 797 l 1,10,-1
 230 797 l 2,11,12
 279 797 279 797 313 779 c 128,-1,13
 347 761 347 761 363 730 c 0,14,15
 386 683 386 683 386 626 c 0,16,17
 386 603 386 603 382 578 c 2,18,-1
 286 -84 l 2,19,20
 275 -160 275 -160 235 -204 c 0,21,22
 189 -255 189 -255 75 -255 c 2,23,-1
 -20 -255 l 1,24,-1
 1 -121 l 1,25,-1
 44 -121 l 2,0,1
EndSplineSet
EndChar

StartChar: asciicircum
Encoding: 94 94 65
Width: 381
GlyphClass: 2
Flags: W
LayerCount: 2
Fore
SplineSet
118 531 m 1,0,-1
 244 669 l 1,1,-1
 360 669 l 1,2,-1
 432 531 l 1,3,-1
 332 531 l 1,4,-1
 295 589 l 1,5,-1
 238 531 l 1,6,-1
 118 531 l 1,0,-1
EndSplineSet
EndChar

StartChar: underscore
Encoding: 95 95 66
Width: 673
GlyphClass: 2
Flags: W
LayerCount: 2
Fore
SplineSet
26 -1 m 1,0,-1
 48 133 l 1,1,-1
 682 133 l 1,2,-1
 660 -1 l 1,3,-1
 26 -1 l 1,0,-1
EndSplineSet
EndChar

StartChar: grave
Encoding: 96 96 67
Width: 245
GlyphClass: 2
Flags: W
LayerCount: 2
Fore
SplineSet
119 672 m 1,0,-1
 250 672 l 1,1,-1
 316 531 l 1,2,-1
 218 531 l 1,3,-1
 119 672 l 1,0,-1
EndSplineSet
Substitution2: "'smcp' Lowercase to Small Capitals lookup 1 subtable" grave.smcp
EndChar

StartChar: a
Encoding: 97 97 68
Width: 544
GlyphClass: 2
Flags: W
LayerCount: 2
Fore
SplineSet
481 527 m 128,-1,1
 548 513 548 513 583 479 c 1,2,-1
 513 2 l 1,3,-1
 385 2 l 1,4,-1
 360 54 l 1,5,6
 341 27 341 27 297.5 10.5 c 128,-1,7
 254 -6 254 -6 208 -6 c 0,8,9
 127 -6 127 -6 85 74 c 0,10,11
 61 121 61 121 61 181 c 128,-1,12
 61 241 61 241 72 295 c 128,-1,13
 83 349 83 349 97.5 385.5 c 128,-1,14
 112 422 112 422 128 446.5 c 128,-1,15
 144 471 144 471 165.5 488.5 c 128,-1,16
 187 506 187 506 205.5 516 c 128,-1,17
 224 526 224 526 250 531 c 1,18,19
 293 541 293 541 353.5 541 c 128,-1,0
 414 541 414 541 481 527 c 128,-1,1
408 407 m 1,20,21
 385 417 385 417 361.5 417 c 128,-1,22
 338 417 338 417 325.5 414.5 c 128,-1,23
 313 412 313 412 305.5 409 c 128,-1,24
 298 406 298 406 288 400.5 c 128,-1,25
 278 395 278 395 271 385.5 c 128,-1,26
 264 376 264 376 257 362 c 0,27,28
 242 335 242 335 235 285 c 0,29,30
 227 227 227 227 227 196 c 0,31,32
 227 129 227 129 278 129 c 0,33,34
 344 129 344 129 374 180 c 1,35,-1
 408 407 l 1,20,21
EndSplineSet
AlternateSubs2: "'salt' Stylistic Alternatives in Latin lookup 16 subtable" a.salt
Substitution2: "'smcp' Lowercase to Small Capitals lookup 1 subtable" a.smcp
EndChar

StartChar: b
Encoding: 98 98 69
Width: 557
GlyphClass: 2
Flags: W
LayerCount: 2
Fore
SplineSet
567 233 m 0,0,1
 546 101 546 101 498 47.5 c 128,-1,2
 450 -6 450 -6 362 -6 c 128,-1,3
 274 -6 274 -6 213 52 c 1,4,-1
 178 0 l 1,5,-1
 40 0 l 1,6,-1
 164 785 l 1,7,-1
 328 785 l 1,8,-1
 284 506 l 1,9,10
 357 539 357 539 436 539 c 0,11,12
 557 539 557 539 575 414 c 0,13,14
 579 386 579 386 579 365 c 0,15,16
 579 308 579 308 567 233 c 0,0,1
324 130 m 0,17,18
 355 130 355 130 373 159.5 c 128,-1,19
 391 189 391 189 401.5 257 c 128,-1,20
 412 325 412 325 412 350.5 c 128,-1,21
 412 376 412 376 409 387 c 0,22,23
 401 416 401 416 368 416 c 0,24,25
 306 416 306 416 268 398 c 1,26,-1
 230 158 l 1,27,28
 257 130 257 130 324 130 c 0,17,18
EndSplineSet
AlternateSubs2: "'salt' Stylistic Alternatives in Latin lookup 16 subtable" b.salt
Substitution2: "'smcp' Lowercase to Small Capitals lookup 1 subtable" b.smcp
EndChar

StartChar: c
Encoding: 99 99 70
Width: 490
GlyphClass: 2
Flags: W
LayerCount: 2
Fore
SplineSet
234 535 m 128,-1,1
 259 540 259 540 301.5 540 c 128,-1,2
 344 540 344 540 415.5 532 c 128,-1,3
 487 524 487 524 538 506 c 1,4,-1
 522 407 l 1,5,6
 443 414 443 414 387 414 c 128,-1,7
 331 414 331 414 319 412 c 128,-1,8
 307 410 307 410 292.5 403 c 128,-1,9
 278 396 278 396 270 379 c 0,10,11
 251 341 251 341 241 283 c 0,12,13
 230 218 230 218 230 194 c 128,-1,14
 230 170 230 170 233 156 c 128,-1,15
 236 142 236 142 247 134 c 0,16,17
 265 121 265 121 307 121 c 0,18,19
 390 121 390 121 462 128 c 2,20,-1
 486 130 l 1,21,-1
 470 30 l 1,22,23
 414 8 414 8 362.5 1.5 c 128,-1,24
 311 -5 311 -5 267.5 -5 c 128,-1,25
 224 -5 224 -5 209 -5 c 0,26,27
 129 -4 129 -4 90 69 c 0,28,29
 66 114 66 114 66 173.5 c 128,-1,30
 66 233 66 233 75.5 293 c 128,-1,31
 85 353 85 353 101.5 399 c 128,-1,32
 118 445 118 445 137.5 472 c 128,-1,33
 157 499 157 499 183 514.5 c 128,-1,0
 209 530 209 530 234 535 c 128,-1,1
EndSplineSet
Substitution2: "'smcp' Lowercase to Small Capitals lookup 1 subtable" c.smcp
EndChar

StartChar: d
Encoding: 100 100 71
Width: 549
GlyphClass: 2
Flags: W
LayerCount: 2
Fore
SplineSet
199.5 522.5 m 128,-1,1
 238 539 238 539 304.5 539 c 128,-1,2
 371 539 371 539 434 506 c 1,3,-1
 478 785 l 1,4,-1
 642 785 l 1,5,-1
 517 0 l 1,6,-1
 380 0 l 1,7,-1
 360 52 l 1,8,9
 282 -6 282 -6 208 -6 c 0,10,11
 118 -6 118 -6 84 78 c 1,12,13
 65 129 65 129 65 184.5 c 128,-1,14
 65 240 65 240 75 296.5 c 128,-1,15
 85 353 85 353 99 394.5 c 128,-1,16
 113 436 113 436 137 471 c 128,-1,0
 161 506 161 506 199.5 522.5 c 128,-1,1
262 364 m 128,-1,18
 249 331 249 331 241 276.5 c 128,-1,19
 233 222 233 222 233 196 c 128,-1,20
 233 170 233 170 237 158 c 0,21,22
 245 130 245 130 276 130 c 0,23,24
 341 130 341 130 378 158 c 1,25,-1
 416 398 l 1,26,27
 385 416 385 416 321 416 c 0,28,29
 301 416 301 416 288 406.5 c 128,-1,17
 275 397 275 397 262 364 c 128,-1,18
EndSplineSet
AlternateSubs2: "'salt' Stylistic Alternatives in Latin lookup 16 subtable" d.salt
Substitution2: "'smcp' Lowercase to Small Capitals lookup 1 subtable" d.smcp
EndChar

StartChar: e
Encoding: 101 101 72
Width: 528
GlyphClass: 2
Flags: W
LayerCount: 2
Fore
SplineSet
438 204.5 m 128,-1,1
 405 192 405 192 378.5 189.5 c 128,-1,2
 352 187 352 187 308 187 c 128,-1,3
 264 187 264 187 231 201 c 1,4,5
 228 186 228 186 228 166.5 c 128,-1,6
 228 147 228 147 242 134 c 0,7,8
 257 120 257 120 309 120 c 0,9,10
 418 120 418 120 516 138 c 1,11,-1
 496 22 l 1,12,13
 395 -10 395 -10 278 -10 c 0,14,15
 244 -10 244 -10 210 -7 c 0,16,17
 63 2 63 2 63 189 c 0,18,19
 63 242 63 242 74 301 c 128,-1,20
 85 360 85 360 97 395 c 128,-1,21
 109 430 109 430 128.5 459.5 c 128,-1,22
 148 489 148 489 176 506 c 1,23,24
 238 541 238 541 351 541 c 0,25,26
 438 541 438 541 497 512 c 0,27,28
 561 480 561 480 561 398 c 0,29,30
 561 342 561 342 542.5 301 c 128,-1,31
 524 260 524 260 497.5 238.5 c 128,-1,0
 471 217 471 217 438 204.5 c 128,-1,1
244 307 m 1,32,33
 265 303 265 303 291 303 c 128,-1,34
 317 303 317 303 335.5 307 c 128,-1,35
 354 311 354 311 371 325 c 0,36,37
 394 343 394 343 394 377 c 0,38,39
 394 395 394 395 382 405 c 128,-1,40
 370 415 370 415 338 415 c 0,41,42
 278 415 278 415 260 368 c 0,43,44
 251 347 251 347 244 307 c 1,32,33
EndSplineSet
Substitution2: "'smcp' Lowercase to Small Capitals lookup 1 subtable" e.smcp
EndChar

StartChar: f
Encoding: 102 102 73
Width: 405
GlyphClass: 2
Flags: W
LayerCount: 2
Fore
SplineSet
251 747.5 m 128,-1,1
 298 786 298 786 382.5 786 c 128,-1,2
 467 786 467 786 513 762 c 1,3,-1
 498 666 l 1,4,-1
 415 667 l 2,5,6
 378 668 378 668 368 652 c 0,7,8
 363 644 363 644 360.5 640 c 128,-1,9
 358 636 358 636 355 621 c 0,10,11
 351 602 351 602 346 569 c 2,12,-1
 340 531 l 1,13,-1
 454 531 l 1,14,-1
 436 412 l 1,15,-1
 321 412 l 1,16,-1
 254 0 l 1,17,-1
 90 0 l 1,18,-1
 156 412 l 1,19,-1
 78 412 l 1,20,-1
 94 514 l 1,21,-1
 176 531 l 1,22,-1
 189 614 l 2,23,0
 204 709 204 709 251 747.5 c 128,-1,1
EndSplineSet
AlternateSubs2: "'salt' Stylistic Alternatives in Latin lookup 16 subtable" f.salt
Substitution2: "'smcp' Lowercase to Small Capitals lookup 1 subtable" f.smcp
EndChar

StartChar: g
Encoding: 103 103 74
Width: 558
GlyphClass: 2
Flags: W
LayerCount: 2
Fore
SplineSet
243 -139 m 2,0,1
 283 -139 283 -139 309.5 -115 c 128,-1,2
 336 -91 336 -91 343 -44 c 2,3,-1
 356 40 l 1,4,5
 306 2 306 2 232.5 2 c 128,-1,6
 159 2 159 2 118 39.5 c 128,-1,7
 77 77 77 77 70 144 c 0,8,9
 68 167 68 167 68 204.5 c 128,-1,10
 68 242 68 242 77.5 306.5 c 128,-1,11
 87 371 87 371 108.5 418 c 128,-1,12
 130 465 130 465 161 492 c 0,13,14
 220 542 220 542 315 542 c 0,15,16
 424 542 424 542 498 529.5 c 128,-1,17
 572 517 572 517 597 509 c 1,18,-1
 506 -66 l 2,19,20
 473 -274 473 -274 285 -274 c 0,21,22
 266 -274 266 -274 244 -272 c 2,23,-1
 13 -248 l 1,24,-1
 30 -139 l 1,25,-1
 243 -139 l 2,0,1
266 375 m 128,-1,27
 259 363 259 363 247.5 320 c 128,-1,28
 236 277 236 277 233.5 234.5 c 128,-1,29
 231 192 231 192 231 183 c 128,-1,30
 231 174 231 174 233 165 c 128,-1,31
 235 156 235 156 241 145 c 0,32,33
 252 126 252 126 292.5 126 c 128,-1,34
 333 126 333 126 373 146 c 1,35,-1
 417 422 l 1,36,-1
 336 422 l 2,37,38
 302 422 302 422 283 399 c 0,39,26
 273 387 273 387 266 375 c 128,-1,27
EndSplineSet
AlternateSubs2: "'salt' Stylistic Alternatives in Latin lookup 16 subtable" g.salt
Substitution2: "'smcp' Lowercase to Small Capitals lookup 1 subtable" g.smcp
EndChar

StartChar: h
Encoding: 104 104 75
Width: 552
GlyphClass: 2
Flags: W
LayerCount: 2
Fore
SplineSet
413 373 m 0,0,1
 413 414 413 414 374 414 c 0,2,3
 339 414 339 414 313.5 404 c 128,-1,4
 288 394 288 394 264 372 c 1,5,-1
 204 0 l 1,6,-1
 40 0 l 1,7,-1
 164 782 l 1,8,-1
 328 782 l 1,9,-1
 279 476 l 1,10,11
 347 525 347 525 395 535 c 0,12,13
 420 540 420 540 458 540 c 128,-1,14
 496 540 496 540 526 525 c 128,-1,15
 556 510 556 510 567 484 c 0,16,17
 581 451 581 451 581 414.5 c 128,-1,18
 581 378 581 378 575 348 c 1,19,-1
 520 0 l 1,20,-1
 356 0 l 1,21,-1
 411 350 l 2,22,23
 413 363 413 363 413 373 c 0,0,1
EndSplineSet
Substitution2: "'smcp' Lowercase to Small Capitals lookup 1 subtable" h.smcp
EndChar

StartChar: i
Encoding: 105 105 76
Width: 237
GlyphClass: 2
Flags: W
LayerCount: 2
Fore
SplineSet
37 0 m 1,0,-1
 121 531 l 1,1,-1
 285 531 l 1,2,-1
 201 0 l 1,3,-1
 37 0 l 1,0,-1
173 733 m 2,4,-1
 298 733 l 2,5,6
 317 733 317 733 317 715 c 0,7,8
 317 712 317 712 316 708 c 2,9,-1
 301 607 l 2,10,11
 298 584 298 584 274 584 c 2,12,-1
 150 584 l 2,13,14
 139 584 139 584 133.5 590.5 c 128,-1,15
 128 597 128 597 130 607 c 2,16,-1
 145 708 l 2,17,18
 148 733 148 733 173 733 c 2,4,-1
EndSplineSet
Substitution2: "'smcp' Lowercase to Small Capitals lookup 1 subtable" i.smcp
EndChar

StartChar: j
Encoding: 106 106 77
Width: 253
GlyphClass: 2
Flags: W
LayerCount: 2
Fore
SplineSet
2 -270 m 1,0,-1
 130 531 l 1,1,-1
 294 531 l 1,2,-1
 208 -4 l 1,3,4
 196 -87 196 -87 178 -151 c 128,-1,5
 160 -215 160 -215 126 -270 c 1,6,-1
 2 -270 l 1,0,-1
306 733 m 2,7,8
 326 733 326 733 326 713 c 0,9,10
 326 711 326 711 325 708 c 2,11,-1
 309 607 l 2,12,13
 306 584 306 584 282 584 c 2,14,-1
 158 584 l 2,15,16
 147 584 147 584 141 590.5 c 128,-1,17
 135 597 135 597 137 607 c 2,18,-1
 153 708 l 2,19,20
 157 733 157 733 181 733 c 2,21,-1
 306 733 l 2,7,8
EndSplineSet
Substitution2: "'smcp' Lowercase to Small Capitals lookup 1 subtable" j.smcp
EndChar

StartChar: k
Encoding: 107 107 78
Width: 545
GlyphClass: 2
Flags: W
LayerCount: 2
Fore
SplineSet
40 0 m 1,0,-1
 164 782 l 1,1,-1
 328 782 l 1,2,-1
 259 346 l 1,3,4
 318 369 318 369 366.5 418 c 128,-1,5
 415 467 415 467 436 531 c 1,6,-1
 608 531 l 1,7,8
 562 363 562 363 428 288 c 1,9,-1
 576 0 l 1,10,-1
 396 0 l 1,11,-1
 280 235 l 1,12,-1
 242 234 l 1,13,-1
 204 0 l 1,14,-1
 40 0 l 1,0,-1
EndSplineSet
Substitution2: "'smcp' Lowercase to Small Capitals lookup 1 subtable" k.smcp
EndChar

StartChar: l
Encoding: 108 108 79
Width: 314
GlyphClass: 2
Flags: W
LayerCount: 2
Fore
SplineSet
203 0 m 2,0,1
 127 0 127 0 90 45 c 0,2,3
 64 77 64 77 64 136 c 0,4,5
 64 160 64 160 68 189 c 2,6,-1
 162 783 l 1,7,-1
 326 783 l 1,8,-1
 237 219 l 2,9,10
 228 164 228 164 235 149 c 128,-1,11
 242 134 242 134 247.5 129 c 128,-1,12
 253 124 253 124 282 111.5 c 128,-1,13
 311 99 311 99 316 99 c 1,14,-1
 301 0 l 1,15,-1
 203 0 l 2,0,1
EndSplineSet
Substitution2: "'smcp' Lowercase to Small Capitals lookup 1 subtable" l.smcp
EndChar

StartChar: m
Encoding: 109 109 80
Width: 867
GlyphClass: 2
Flags: W
LayerCount: 2
Fore
SplineSet
447 539 m 0,0,1
 544 539 544 539 569 472 c 1,2,3
 601 492 601 492 625 504.5 c 128,-1,4
 649 517 649 517 687.5 528 c 128,-1,5
 726 539 726 539 767.5 539 c 128,-1,6
 809 539 809 539 838.5 524.5 c 128,-1,7
 868 510 868 510 880 484 c 0,8,9
 895 451 895 451 895 414 c 128,-1,10
 895 377 895 377 890 346 c 2,11,-1
 834 0 l 1,12,-1
 670 0 l 1,13,-1
 726 350 l 2,14,15
 728 361 728 361 728 370 c 0,16,17
 728 413 728 413 689 413 c 0,18,19
 619 413 619 413 578 376 c 0,20,21
 577 374 577 374 575 362 c 128,-1,22
 573 350 573 350 573 346 c 2,23,-1
 518 0 l 1,24,-1
 354 0 l 1,25,-1
 409 350 l 2,26,27
 411 361 411 361 411 370 c 0,28,29
 411 413 411 413 372 413 c 0,30,31
 326 413 326 413 303 399.5 c 128,-1,32
 280 386 280 386 263 371 c 1,33,-1
 204 0 l 1,34,-1
 40 0 l 1,35,-1
 124 531 l 1,36,-1
 259 531 l 1,37,-1
 280 476 l 1,38,39
 283 478 283 478 296.5 487.5 c 128,-1,40
 310 497 310 497 322 504.5 c 128,-1,41
 334 512 334 512 355 522 c 0,42,43
 392 539 392 539 447 539 c 0,0,1
EndSplineSet
AlternateSubs2: "'salt' Stylistic Alternatives in Latin lookup 16 subtable" m.salt
Substitution2: "'smcp' Lowercase to Small Capitals lookup 1 subtable" m.smcp
EndChar

StartChar: n
Encoding: 110 110 81
Width: 552
GlyphClass: 2
Flags: W
LayerCount: 2
Fore
SplineSet
413 373 m 0,0,1
 413 414 413 414 374 414 c 0,2,3
 339 414 339 414 313.5 404 c 128,-1,4
 288 394 288 394 264 372 c 1,5,-1
 204 0 l 1,6,-1
 40 0 l 1,7,-1
 124 531 l 1,8,-1
 259 531 l 1,9,-1
 280 476 l 1,10,11
 351 527 351 527 396 535 c 0,12,13
 420 540 420 540 458 540 c 128,-1,14
 496 540 496 540 526 525 c 128,-1,15
 556 510 556 510 567 484 c 0,16,17
 581 451 581 451 581 414.5 c 128,-1,18
 581 378 581 378 575 348 c 1,19,-1
 520 0 l 1,20,-1
 356 0 l 1,21,-1
 411 350 l 2,22,23
 413 363 413 363 413 373 c 0,0,1
EndSplineSet
AlternateSubs2: "'salt' Stylistic Alternatives in Latin lookup 16 subtable" n.salt
Substitution2: "'smcp' Lowercase to Small Capitals lookup 1 subtable" n.smcp
EndChar

StartChar: o
Encoding: 111 111 82
Width: 555
GlyphClass: 2
Flags: W
LayerCount: 2
Fore
SplineSet
362 538 m 0,0,1
 496 538 496 538 542 467 c 0,2,3
 572 420 572 420 572 338 c 0,4,5
 572 294 572 294 563 236.5 c 128,-1,6
 554 179 554 179 539.5 138 c 128,-1,7
 525 97 525 97 504 68.5 c 128,-1,8
 483 40 483 40 451 24 c 0,9,10
 391 -5 391 -5 279 -5 c 0,11,12
 145 -5 145 -5 97 63 c 1,13,14
 66 109 66 109 66 190 c 0,15,16
 66 229 66 229 75 285.5 c 128,-1,17
 84 342 84 342 99.5 387 c 128,-1,18
 115 432 115 432 137 462 c 128,-1,19
 159 492 159 492 192 509 c 0,20,21
 252 538 252 538 362 538 c 0,0,1
271 385 m 128,-1,23
 253 358 253 358 241 283 c 128,-1,24
 229 208 229 208 229 191.5 c 128,-1,25
 229 175 229 175 230 164 c 128,-1,26
 231 153 231 153 235 144 c 128,-1,27
 239 135 239 135 249 130 c 0,28,29
 263 122 263 122 294 122 c 128,-1,30
 325 122 325 122 339 125 c 128,-1,31
 353 128 353 128 365.5 142.5 c 128,-1,32
 378 157 378 157 385 183 c 128,-1,33
 392 209 392 209 401 260.5 c 128,-1,34
 410 312 410 312 410 331 c 0,35,36
 410 388 410 388 394.5 400 c 128,-1,37
 379 412 379 412 334 412 c 128,-1,22
 289 412 289 412 271 385 c 128,-1,23
EndSplineSet
Substitution2: "'smcp' Lowercase to Small Capitals lookup 1 subtable" o.smcp
EndChar

StartChar: p
Encoding: 112 112 83
Width: 556
GlyphClass: 2
Flags: W
LayerCount: 2
Fore
SplineSet
409 536 m 0,0,1
 508 536 508 536 548 458 c 0,2,3
 574 407 574 407 574 330 c 0,4,5
 574 290 574 290 566 242 c 0,6,7
 546 107 546 107 491.5 48.5 c 128,-1,8
 437 -10 437 -10 327 -10 c 0,9,10
 247 -10 247 -10 210 29 c 1,11,-1
 162 -270 l 1,12,-1
 -2 -270 l 1,13,-1
 123 506 l 1,14,15
 169 520 169 520 250.5 528 c 128,-1,16
 332 536 332 536 409 536 c 0,0,1
410 348 m 0,17,18
 410 417 410 417 355 417 c 2,19,-1
 273 417 l 1,20,-1
 226 134 l 1,21,22
 252 114 252 114 292 114 c 0,23,24
 300 114 300 114 309 114 c 0,25,26
 349 116 349 116 368.5 148 c 128,-1,27
 388 180 388 180 399 248 c 128,-1,28
 410 316 410 316 410 348 c 0,17,18
EndSplineSet
AlternateSubs2: "'salt' Stylistic Alternatives in Latin lookup 16 subtable" p.salt
Substitution2: "'smcp' Lowercase to Small Capitals lookup 1 subtable" p.smcp
EndChar

StartChar: q
Encoding: 113 113 84
Width: 553
GlyphClass: 2
Flags: W
LayerCount: 2
Fore
SplineSet
229.5 528 m 128,-1,1
 267 540 267 540 330.5 540 c 128,-1,2
 394 540 394 540 475.5 530.5 c 128,-1,3
 557 521 557 521 594 507 c 1,4,-1
 472 -270 l 1,5,-1
 308 -270 l 1,6,-1
 355 29 l 1,7,8
 304 -10 304 -10 230.5 -10 c 128,-1,9
 157 -10 157 -10 116.5 27 c 128,-1,10
 76 64 76 64 69 131 c 0,11,12
 67 154 67 154 67 192 c 128,-1,13
 67 230 67 230 77 295.5 c 128,-1,14
 87 361 87 361 108 410 c 128,-1,15
 129 459 129 459 160.5 487.5 c 128,-1,0
 192 516 192 516 229.5 528 c 128,-1,1
247 313 m 0,16,17
 244 297 244 297 236.5 256.5 c 128,-1,18
 229 216 229 216 229 189.5 c 128,-1,19
 229 163 229 163 231 151 c 0,20,21
 239 114 239 114 285.5 114 c 128,-1,22
 332 114 332 114 372 134 c 1,23,-1
 416 421 l 1,24,-1
 334 421 l 2,25,26
 269 421 269 421 247 313 c 0,16,17
EndSplineSet
Substitution2: "'smcp' Lowercase to Small Capitals lookup 1 subtable" q.smcp
EndChar

StartChar: r
Encoding: 114 114 85
Width: 414
GlyphClass: 2
Flags: W
LayerCount: 2
Fore
SplineSet
425 536 m 0,0,1
 463 536 463 536 478 530 c 1,2,-1
 453 373 l 1,3,4
 423 374 423 374 377 374 c 128,-1,5
 331 374 331 374 302.5 363 c 128,-1,6
 274 352 274 352 254 315 c 1,7,-1
 204 0 l 1,8,-1
 40 0 l 1,9,-1
 124 531 l 1,10,-1
 266 531 l 1,11,-1
 278 464 l 1,12,13
 346 536 346 536 425 536 c 0,0,1
EndSplineSet
AlternateSubs2: "'salt' Stylistic Alternatives in Latin lookup 16 subtable" r.salt
Substitution2: "'smcp' Lowercase to Small Capitals lookup 1 subtable" r.smcp
EndChar

StartChar: s
Encoding: 115 115 86
Width: 509
GlyphClass: 2
Flags: W
LayerCount: 2
Fore
SplineSet
310 126 m 2,0,1
 338 126 338 126 343 152 c 2,2,-1
 346 169 l 2,3,4
 349 188 349 188 341 192 c 128,-1,5
 333 196 333 196 321 196 c 2,6,-1
 213 196 l 2,7,8
 115 196 115 196 87 271 c 0,9,10
 78 295 78 295 78 317.5 c 128,-1,11
 78 340 78 340 80 358 c 1,12,-1
 88 405 l 2,13,14
 99 470 99 470 137 503.5 c 128,-1,15
 175 537 175 537 252.5 537 c 128,-1,16
 330 537 330 537 374.5 536 c 128,-1,17
 419 535 419 535 470 527.5 c 128,-1,18
 521 520 521 520 536 506 c 1,19,-1
 520 406 l 1,20,-1
 288 406 l 2,21,22
 269 406 269 406 261 399.5 c 128,-1,23
 253 393 253 393 250 378 c 1,24,-1
 248 361 l 1,25,26
 245 347 245 347 247.5 344 c 128,-1,27
 250 341 250 341 251 339.5 c 128,-1,28
 252 338 252 338 254.5 337 c 128,-1,29
 257 336 257 336 258 335.5 c 128,-1,30
 259 335 259 335 262.5 335 c 128,-1,31
 266 335 266 335 267 335 c 128,-1,32
 268 335 268 335 272 335 c 128,-1,33
 276 335 276 335 276 335 c 1,34,-1
 389 335 l 2,35,36
 463 335 463 335 494 289 c 0,37,38
 516 256 516 256 516 212 c 0,39,40
 516 196 516 196 514 180 c 2,41,-1
 504 120 l 1,42,43
 492 41 492 41 444 15 c 0,44,45
 404 -6 404 -6 354.5 -6 c 128,-1,46
 305 -6 305 -6 276.5 -6 c 128,-1,47
 248 -6 248 -6 205 -4 c 128,-1,48
 162 -2 162 -2 136 1 c 0,49,50
 70 9 70 9 53 26 c 1,51,-1
 68 126 l 1,52,-1
 310 126 l 2,0,1
EndSplineSet
Substitution2: "'smcp' Lowercase to Small Capitals lookup 1 subtable" s.smcp
EndChar

StartChar: t
Encoding: 116 116 87
Width: 375
GlyphClass: 2
Flags: W
LayerCount: 2
Fore
SplineSet
285 220 m 2,0,1
 280 195 280 195 280 181.5 c 128,-1,2
 280 168 280 168 282.5 154 c 128,-1,3
 285 140 285 140 291 132.5 c 128,-1,4
 297 125 297 125 328 111.5 c 128,-1,5
 359 98 359 98 364 98 c 1,6,-1
 349 -1 l 1,7,-1
 242 -1 l 2,8,9
 173 -1 173 -1 137 46 c 0,10,11
 112 78 112 78 112 136 c 0,12,13
 112 161 112 161 117 190 c 2,14,-1
 152 413 l 1,15,-1
 71 413 l 1,16,-1
 84 499 l 1,17,-1
 171 532 l 1,18,-1
 220 680 l 1,19,-1
 358 680 l 1,20,-1
 335 532 l 1,21,-1
 440 532 l 1,22,-1
 422 413 l 1,23,-1
 316 413 l 1,24,-1
 285 220 l 2,0,1
EndSplineSet
AlternateSubs2: "'salt' Stylistic Alternatives in Latin lookup 16 subtable" t.salt
Substitution2: "'smcp' Lowercase to Small Capitals lookup 1 subtable" t.smcp
EndChar

StartChar: u
Encoding: 117 117 88
Width: 551
GlyphClass: 2
Flags: W
LayerCount: 2
Fore
SplineSet
226 180 m 2,0,1
 224 167 224 167 224 153.5 c 128,-1,2
 224 140 224 140 231.5 129 c 128,-1,3
 239 118 239 118 269 118 c 0,4,5
 327 118 327 118 374 160 c 1,6,-1
 432 531 l 1,7,-1
 596 531 l 1,8,-1
 512 0 l 1,9,-1
 377 0 l 1,10,-1
 357 54 l 1,11,12
 315 21 315 21 279.5 6 c 128,-1,13
 244 -9 244 -9 192.5 -9 c 128,-1,14
 141 -9 141 -9 111.5 6 c 128,-1,15
 82 21 82 21 70 47 c 0,16,17
 56 79 56 79 56 115.5 c 128,-1,18
 56 152 56 152 62 184 c 2,19,-1
 118 531 l 1,20,-1
 282 531 l 1,21,-1
 226 180 l 2,0,1
EndSplineSet
AlternateSubs2: "'salt' Stylistic Alternatives in Latin lookup 16 subtable" u.salt
Substitution2: "'smcp' Lowercase to Small Capitals lookup 1 subtable" u.smcp
EndChar

StartChar: v
Encoding: 118 118 89
Width: 542
GlyphClass: 2
Flags: W
LayerCount: 2
Fore
SplineSet
591 496 m 0,0,1
 591 431 591 431 552 354 c 2,2,-1
 371 0 l 1,3,-1
 172 0 l 1,4,-1
 80 531 l 1,5,-1
 254 531 l 1,6,-1
 294 180 l 1,7,-1
 400 409 l 2,8,9
 428 468 428 468 434 532 c 1,10,-1
 588 532 l 1,11,12
 591 515 591 515 591 496 c 0,0,1
EndSplineSet
Substitution2: "'smcp' Lowercase to Small Capitals lookup 1 subtable" v.smcp
EndChar

StartChar: w
Encoding: 119 119 90
Width: 839
GlyphClass: 2
Flags: W
LayerCount: 2
Fore
SplineSet
586 532 m 1,0,1
 589 514 589 514 589 481.5 c 128,-1,2
 589 449 589 449 569 398 c 2,3,-1
 558 370 l 1,4,-1
 592 182 l 1,5,-1
 699 409 l 1,6,7
 728 468 728 468 733 532 c 1,8,-1
 886 532 l 1,9,10
 890 514 890 514 890 495 c 0,11,12
 890 429 890 429 850 354 c 2,13,-1
 665 0 l 1,14,-1
 480 0 l 1,15,-1
 449 176 l 1,16,-1
 368 0 l 1,17,-1
 172 0 l 1,18,-1
 80 531 l 1,19,-1
 253 531 l 1,20,-1
 293 181 l 1,21,-1
 398 408 l 1,22,23
 427 467 427 467 432 532 c 1,24,-1
 586 532 l 1,0,1
EndSplineSet
Substitution2: "'smcp' Lowercase to Small Capitals lookup 1 subtable" w.smcp
EndChar

StartChar: x
Encoding: 120 120 91
Width: 590
GlyphClass: 2
Flags: W
LayerCount: 2
Fore
SplineSet
16 0 m 1,0,-1
 239 277 l 1,1,-1
 100 531 l 1,2,-1
 296 531 l 1,3,-1
 355 388 l 1,4,-1
 460 531 l 1,5,-1
 658 531 l 1,6,-1
 434 247 l 1,7,-1
 568 0 l 1,8,-1
 378 0 l 1,9,-1
 318 136 l 1,10,-1
 216 0 l 1,11,-1
 16 0 l 1,0,-1
EndSplineSet
AlternateSubs2: "'salt' Stylistic Alternatives in Latin lookup 16 subtable" x.salt
Substitution2: "'smcp' Lowercase to Small Capitals lookup 1 subtable" x.smcp
EndChar

StartChar: y
Encoding: 121 121 92
Width: 568
GlyphClass: 2
Flags: W
LayerCount: 2
Fore
SplineSet
614 491 m 0,0,1
 614 428 614 428 581 352 c 2,2,-1
 428 0 l 2,3,4
 362 -151 362 -151 269 -221 c 0,5,6
 215 -261 215 -261 177 -274 c 1,7,8
 131 -288 131 -288 90 -295 c 1,9,-1
 90 -180 l 1,10,11
 154 -148 154 -148 193.5 -104.5 c 128,-1,12
 233 -61 233 -61 264 0 c 1,13,14
 127 0 127 0 114 144 c 2,15,-1
 80 531 l 1,16,-1
 250 531 l 1,17,-1
 272 175 l 2,18,19
 275 139 275 139 317 136 c 1,20,-1
 430 409 l 2,21,22
 449 457 449 457 456 532 c 1,23,-1
 610 532 l 1,24,25
 614 512 614 512 614 491 c 0,0,1
EndSplineSet
Substitution2: "'smcp' Lowercase to Small Capitals lookup 1 subtable" y.smcp
EndChar

StartChar: z
Encoding: 122 122 93
Width: 480
GlyphClass: 2
Flags: W
LayerCount: 2
Fore
SplineSet
35 1 m 1,0,-1
 56 134 l 1,1,-1
 316 397 l 1,2,-1
 84 397 l 1,3,-1
 104 531 l 1,4,-1
 545 531 l 1,5,-1
 525 397 l 1,6,-1
 277 135 l 1,7,-1
 482 135 l 1,8,-1
 461 1 l 1,9,-1
 35 1 l 1,0,-1
EndSplineSet
Substitution2: "'smcp' Lowercase to Small Capitals lookup 1 subtable" z.smcp
EndChar

StartChar: braceleft
Encoding: 123 123 94
Width: 320
GlyphClass: 2
Flags: W
LayerCount: 2
Fore
SplineSet
419 663 m 2,0,1
 382 663 382 663 365 640.5 c 128,-1,2
 348 618 348 618 338 551 c 2,3,-1
 313 390 l 2,4,5
 298 299 298 299 197 290 c 1,6,7
 242 281 242 281 262 258.5 c 128,-1,8
 282 236 282 236 282 207 c 0,9,10
 282 200 282 200 280 191 c 2,11,-1
 246 -20 l 2,12,13
 241 -49 241 -49 241 -70 c 128,-1,14
 241 -91 241 -91 246 -103 c 0,15,16
 256 -129 256 -129 292 -129 c 0,17,18
 293 -129 293 -129 294 -128 c 2,19,-1
 274 -255 l 1,20,21
 155 -255 155 -255 109 -200 c 0,22,23
 74 -159 74 -159 74 -95 c 0,24,25
 74 -74 74 -74 78 -50 c 2,26,-1
 114 176 l 2,27,28
 115 181 115 181 115 193.5 c 128,-1,29
 115 206 115 206 101.5 219 c 128,-1,30
 88 232 88 232 63 232 c 0,31,32
 60 232 60 232 56 231 c 1,33,-1
 75 351 l 1,34,35
 107 353 107 353 126.5 363 c 128,-1,36
 146 373 146 373 150 401 c 2,37,-1
 188 634 l 2,38,39
 202 722 202 722 262 759.5 c 128,-1,40
 322 797 322 797 440 797 c 1,41,-1
 420 663 l 2,42,43
 419 663 419 663 419 663 c 2,0,1
EndSplineSet
EndChar

StartChar: bar
Encoding: 124 124 95
Width: 248
GlyphClass: 2
Flags: W
LayerCount: 2
Fore
SplineSet
46 -72 m 1,0,-1
 178 770 l 1,1,-1
 312 770 l 1,2,-1
 180 -72 l 1,3,-1
 46 -72 l 1,0,-1
EndSplineSet
EndChar

StartChar: braceright
Encoding: 125 125 96
Width: 320
GlyphClass: 2
Flags: W
LayerCount: 2
Fore
SplineSet
1 -129 m 1,0,1
 38 -129 38 -129 55 -105.5 c 128,-1,2
 72 -82 72 -82 80 -27 c 2,3,-1
 114 181 l 2,4,5
 126 260 126 260 228 280 c 1,6,7
 143 287 143 287 143 358 c 0,8,9
 143 368 143 368 145 380 c 2,10,-1
 170 544 l 2,11,12
 176 583 176 583 176 606 c 128,-1,13
 176 629 176 629 172 640 c 0,14,15
 163 663 163 663 128 663 c 0,16,17
 127 663 127 663 126 663 c 2,18,-1
 147 797 l 1,19,20
 205 797 205 797 246 779.5 c 128,-1,21
 287 762 287 762 307 733 c 0,22,23
 339 686 339 686 339 627 c 0,24,25
 339 605 339 605 334 582 c 1,26,-1
 310 392 l 2,27,28
 310 388 310 388 310 384 c 0,29,30
 310 363 310 363 325.5 350.5 c 128,-1,31
 341 338 341 338 370 337 c 1,32,-1
 350 218 l 1,33,34
 346 218 346 218 343 218 c 0,35,36
 284 218 284 218 276 167 c 2,37,-1
 233 -87 l 2,38,39
 217 -182 217 -182 161 -218.5 c 128,-1,40
 105 -255 105 -255 -20 -255 c 1,41,-1
 0 -128 l 1,42,43
 1 -129 1 -129 1 -129 c 1,0,1
EndSplineSet
EndChar

StartChar: asciitilde
Encoding: 126 126 97
Width: 411
GlyphClass: 2
Flags: W
LayerCount: 2
Fore
SplineSet
260 664 m 0,0,1
 282 664 282 664 311 646.5 c 128,-1,2
 340 629 340 629 360 629 c 0,3,4
 362 629 362 629 364 629 c 0,5,6
 409 629 409 629 460 669 c 1,7,-1
 474 603 l 1,8,9
 409 531 409 531 350 531 c 0,10,11
 327 531 327 531 293.5 548.5 c 128,-1,12
 260 566 260 566 241 566 c 128,-1,13
 222 566 222 566 205 561 c 0,14,15
 181 554 181 554 142 531 c 1,16,-1
 126 592 l 1,17,18
 197 664 197 664 260 664 c 0,0,1
EndSplineSet
EndChar

StartChar: exclamdown
Encoding: 161 161 98
Width: 278
GlyphClass: 2
Flags: W
LayerCount: 2
Fore
SplineSet
14 -270 m 1,0,-1
 117 264 l 1,1,-1
 246 264 l 1,2,-1
 178 -270 l 1,3,-1
 14 -270 l 1,0,-1
119 332 m 0,4,5
 119 335 119 335 119 338 c 2,6,-1
 135 438 l 2,7,8
 138 459 138 459 163 461 c 1,9,-1
 260 461 l 1,10,11
 270 460 270 460 276 452.5 c 128,-1,12
 282 445 282 445 280 435 c 2,13,-1
 265 338 l 2,14,15
 261 313 261 313 240 312 c 1,16,-1
 138 312 l 2,17,18
 119 312 119 312 119 332 c 0,4,5
EndSplineSet
Substitution2: "'case' Case-Sensitive Forms lookup 18 subtable" exclamdown.alt
Substitution2: "'smcp' Lowercase to Small Capitals lookup 1 subtable" exclamdown.smcp
EndChar

StartChar: cent
Encoding: 162 162 99
Width: 484
GlyphClass: 2
Flags: W
LayerCount: 2
Fore
SplineSet
177 513 m 128,-1,1
 204 528 204 528 228 532.5 c 128,-1,2
 252 537 252 537 269 537 c 128,-1,3
 286 537 286 537 289 536 c 1,4,-1
 305 634 l 1,5,-1
 401 634 l 1,6,-1
 385 534 l 1,7,8
 470 525 470 525 531 502 c 1,9,-1
 515 404 l 1,10,11
 436 410 436 410 381.5 410 c 128,-1,12
 327 410 327 410 317.5 409.5 c 128,-1,13
 308 409 308 409 294 404.5 c 128,-1,14
 280 400 280 400 273.5 391.5 c 128,-1,15
 267 383 267 383 258 366 c 0,16,17
 244 340 244 340 235 286 c 0,18,19
 223 215 223 215 223 196.5 c 128,-1,20
 223 178 223 178 225 165.5 c 128,-1,21
 227 153 227 153 231.5 144 c 128,-1,22
 236 135 236 135 247 129 c 0,23,24
 264 121 264 121 303 121 c 0,25,26
 383 121 383 121 455 128 c 2,27,-1
 479 130 l 1,28,-1
 463 30 l 1,29,30
 397 -4 397 -4 296 -6 c 1,31,-1
 282 -95 l 1,32,-1
 186 -95 l 1,33,-1
 201 -5 l 1,34,35
 121 -4 121 -4 83 69 c 0,36,37
 59 114 59 114 59 173.5 c 128,-1,38
 59 233 59 233 69 293 c 128,-1,39
 79 353 79 353 95.5 399 c 128,-1,40
 112 445 112 445 131 471.5 c 128,-1,0
 150 498 150 498 177 513 c 128,-1,1
EndSplineSet
EndChar

StartChar: sterling
Encoding: 163 163 100
Width: 578
GlyphClass: 2
Flags: W
LayerCount: 2
Fore
SplineSet
626 720 m 2,0,-1
 658 716 l 1,1,-1
 637 584 l 1,2,-1
 452 584 l 2,3,4
 393 584 393 584 371 567.5 c 128,-1,5
 349 551 349 551 340 492 c 2,6,-1
 328 414 l 1,7,-1
 528 398 l 1,8,-1
 514 308 l 1,9,-1
 311 308 l 1,10,-1
 286 149 l 1,11,-1
 568 149 l 1,12,-1
 544 0 l 1,13,-1
 34 0 l 1,14,-1
 54 126 l 1,15,-1
 122 149 l 1,16,-1
 147 308 l 1,17,-1
 82 308 l 1,18,-1
 96 390 l 1,19,-1
 164 414 l 1,20,-1
 177 498 l 2,21,22
 195 611 195 611 235 659 c 0,23,24
 267 696 267 696 293 706.5 c 128,-1,25
 319 717 319 717 336 721.5 c 128,-1,26
 353 726 353 726 380 728 c 0,27,28
 419 732 419 732 474.5 732 c 128,-1,29
 530 732 530 732 626 720 c 2,0,-1
EndSplineSet
Substitution2: "'smcp' Lowercase to Small Capitals lookup 1 subtable" sterling.smcp
EndChar

StartChar: currency
Encoding: 164 164 101
Width: 443
GlyphClass: 2
Flags: W
LayerCount: 2
Fore
SplineSet
432 333 m 0,0,1
 432 267 432 267 387 215 c 1,2,-1
 427 170 l 1,3,-1
 368 114 l 1,4,-1
 322 166 l 1,5,6
 289 149 289 149 245 149 c 128,-1,7
 201 149 201 149 166 175 c 1,8,-1
 112 127 l 1,9,-1
 66 181 l 1,10,-1
 122 230 l 1,11,12
 110 260 110 260 110 289 c 0,13,14
 110 342 110 342 142 387 c 1,15,-1
 100 434 l 1,16,-1
 160 488 l 1,17,-1
 200 442 l 1,18,19
 245 470 245 470 293.5 470 c 128,-1,20
 342 470 342 470 377 444 c 1,21,-1
 431 491 l 1,22,-1
 479 440 l 1,23,-1
 421 389 l 1,24,25
 432 363 432 363 432 333 c 0,0,1
334 280.5 m 128,-1,27
 341 294 341 294 343.5 305 c 128,-1,28
 346 316 346 316 346 330.5 c 128,-1,29
 346 345 346 345 330 364.5 c 128,-1,30
 314 384 314 384 282.5 384 c 128,-1,31
 251 384 251 384 224 359.5 c 128,-1,32
 197 335 197 335 197 289 c 0,33,34
 197 275 197 275 213 255.5 c 128,-1,35
 229 236 229 236 252.5 236 c 128,-1,36
 276 236 276 236 290.5 241.5 c 128,-1,37
 305 247 305 247 316 257 c 128,-1,26
 327 267 327 267 334 280.5 c 128,-1,27
EndSplineSet
EndChar

StartChar: yen
Encoding: 165 165 102
Width: 646
GlyphClass: 2
Flags: W
LayerCount: 2
Fore
SplineSet
124 134 m 1,0,-1
 138 223 l 1,1,-1
 266 223 l 1,2,-1
 270 254 l 1,3,-1
 143 254 l 1,4,-1
 158 344 l 1,5,-1
 237 344 l 1,6,-1
 128 732 l 1,7,-1
 306 732 l 1,8,-1
 372 406 l 1,9,-1
 553 732 l 1,10,-1
 748 732 l 1,11,-1
 497 344 l 1,12,-1
 585 344 l 1,13,-1
 570 254 l 1,14,-1
 434 254 l 1,15,-1
 430 223 l 1,16,-1
 565 223 l 1,17,-1
 551 134 l 1,18,-1
 416 134 l 1,19,-1
 396 0 l 1,20,-1
 232 0 l 1,21,-1
 252 134 l 1,22,-1
 124 134 l 1,0,-1
EndSplineSet
Substitution2: "'smcp' Lowercase to Small Capitals lookup 1 subtable" yen.smcp
EndChar

StartChar: brokenbar
Encoding: 166 166 103
Width: 249
GlyphClass: 2
Flags: W
LayerCount: 2
Fore
SplineSet
46 -72 m 1,0,-1
 98 256 l 1,1,-1
 232 256 l 1,2,-1
 180 -72 l 1,3,-1
 46 -72 l 1,0,-1
124 429 m 1,4,-1
 178 770 l 1,5,-1
 312 770 l 1,6,-1
 258 429 l 1,7,-1
 124 429 l 1,4,-1
EndSplineSet
EndChar

StartChar: section
Encoding: 167 167 104
Width: 536
GlyphClass: 2
Flags: W
LayerCount: 2
Fore
SplineSet
320 126 m 2,0,1
 340 126 340 126 349 131.5 c 128,-1,2
 358 137 358 137 361 153 c 2,3,-1
 365 180 l 2,4,5
 368 200 368 200 354 205 c 0,6,7
 347 208 347 208 334 208 c 2,8,-1
 231 208 l 2,9,10
 157 208 157 208 122 239 c 128,-1,11
 87 270 87 270 87 318 c 0,12,13
 87 331 87 331 89 346 c 2,14,-1
 93 370 l 2,15,16
 101 421 101 421 119 442 c 0,17,18
 141 467 141 467 179 478 c 1,19,20
 128 506 128 506 128 572 c 0,21,22
 128 587 128 587 131 605 c 2,23,-1
 136 645 l 2,24,25
 154 784 154 784 305 784 c 0,26,27
 505 784 505 784 584 765 c 1,28,-1
 566 650 l 1,29,-1
 337 650 l 2,30,31
 303 650 303 650 298 620 c 2,32,-1
 295 598 l 2,33,34
 294 594 294 594 294 591 c 0,35,36
 294 567 294 567 325 567 c 2,37,-1
 427 567 l 2,38,39
 507 567 507 567 540 536.5 c 128,-1,40
 573 506 573 506 573 460 c 0,41,42
 573 448 573 448 571 434 c 2,43,-1
 567 410 l 1,44,45
 554 323 554 323 484 302 c 1,46,47
 509 297 509 297 521 274.5 c 128,-1,48
 533 252 533 252 533 234 c 128,-1,49
 533 216 533 216 531 183 c 1,50,-1
 524 132 l 1,51,52
 509 44 509 44 462 16 c 0,53,54
 421 -8 421 -8 360 -8 c 0,55,56
 142 -8 142 -8 75 11 c 1,57,-1
 93 126 l 1,58,-1
 320 126 l 2,0,1
402 418 m 0,59,60
 402 440 402 440 363 440 c 2,61,-1
 311 440 l 2,62,63
 284 440 284 440 275.5 431 c 128,-1,64
 267 422 267 422 264 399 c 1,65,-1
 259 371 l 2,66,67
 258 364 258 364 258 355 c 0,68,69
 258 334 258 334 294 334 c 2,70,-1
 346 334 l 2,71,72
 379 334 379 334 387 347 c 0,73,74
 393 355 393 355 395 372 c 2,75,-1
 400 401 l 2,76,77
 402 411 402 411 402 418 c 0,59,60
EndSplineSet
EndChar

StartChar: dieresis
Encoding: 168 168 105
Width: 444
GlyphClass: 2
Flags: W
LayerCount: 2
Fore
SplineSet
197.5 643 m 128,-1,1
 223 643 223 643 236.5 627 c 128,-1,2
 250 611 250 611 250 599 c 128,-1,3
 250 587 250 587 248 576 c 128,-1,4
 246 565 246 565 235.5 551 c 128,-1,5
 225 537 225 537 209.5 528.5 c 128,-1,6
 194 520 194 520 178 520 c 0,7,8
 142 520 142 520 129 551 c 0,9,10
 125 561 125 561 125 569 c 0,11,12
 125 603 125 603 148.5 623 c 128,-1,0
 172 643 172 643 197.5 643 c 128,-1,1
452.5 643 m 128,-1,14
 478 643 478 643 491.5 627 c 128,-1,15
 505 611 505 611 505 599 c 0,16,17
 505 561 505 561 481.5 540.5 c 128,-1,18
 458 520 458 520 437 520 c 0,19,20
 397 520 397 520 384 551 c 0,21,22
 380 561 380 561 380 569 c 0,23,24
 380 603 380 603 403.5 623 c 128,-1,13
 427 643 427 643 452.5 643 c 128,-1,14
EndSplineSet
Substitution2: "'smcp' Lowercase to Small Capitals lookup 1 subtable" dieresis.smcp
EndChar

StartChar: copyright
Encoding: 169 169 106
Width: 794
GlyphClass: 2
Flags: W
LayerCount: 2
Fore
SplineSet
414 732 m 2,0,-1
 630 732 l 2,1,2
 688 732 688 732 729 710 c 128,-1,3
 770 688 770 688 791 652 c 0,4,5
 829 588 829 588 829 478 c 0,6,7
 829 421 829 421 817 346 c 0,8,9
 762 0 762 0 520 0 c 2,10,-1
 305 0 l 2,11,12
 172 0 172 0 116 119 c 0,13,14
 85 184 85 184 85 283 c 0,15,16
 85 383 85 383 117 493 c 0,17,18
 150 606 150 606 215 665 c 0,19,20
 290 732 290 732 414 732 c 2,0,-1
187 277 m 0,21,22
 187 94 187 94 315 94 c 2,23,-1
 524 94 l 2,24,25
 688 94 688 94 724 430 c 0,26,27
 728 469 728 469 728 499 c 128,-1,28
 728 529 728 529 722.5 550.5 c 128,-1,29
 717 572 717 572 706 594 c 0,30,31
 683 638 683 638 618 638 c 2,32,-1
 401 638 l 2,33,34
 281 638 281 638 229 503 c 0,35,36
 208 448 208 448 197.5 383.5 c 128,-1,37
 187 319 187 319 187 277 c 0,21,22
374 317 m 0,38,39
 374 241 374 241 436 241 c 0,40,41
 507 241 507 241 595 257 c 1,42,-1
 582 175 l 1,43,44
 518 147 518 147 393 147 c 0,45,46
 327 147 327 147 292 203 c 0,47,48
 270 238 270 238 270 286.5 c 128,-1,49
 270 335 270 335 278.5 386.5 c 128,-1,50
 287 438 287 438 303.5 479 c 128,-1,51
 320 520 320 520 344 542 c 1,52,53
 386 583 386 583 455 583 c 0,54,55
 567 583 567 583 636 559 c 1,56,-1
 624 477 l 1,57,58
 541 489 541 489 495.5 489 c 128,-1,59
 450 489 450 489 435.5 483 c 128,-1,60
 421 477 421 477 410 462 c 0,61,62
 389 435 389 435 378 362 c 0,63,64
 374 337 374 337 374 317 c 0,38,39
EndSplineSet
EndChar

StartChar: ordfeminine
Encoding: 170 170 107
Width: 362
GlyphClass: 3
Flags: W
LayerCount: 2
Fore
SplineSet
61 260 m 1,0,-1
 72 334 l 1,1,-1
 399 334 l 1,2,-1
 388 260 l 1,3,-1
 61 260 l 1,0,-1
229 731 m 128,-1,5
 245 733 245 733 260 733.5 c 128,-1,6
 275 734 275 734 289.5 734 c 128,-1,7
 304 734 304 734 333 730.5 c 128,-1,8
 362 727 362 727 394.5 717 c 128,-1,9
 427 707 427 707 443 692 c 1,10,-1
 396 373 l 1,11,-1
 312 373 l 1,12,-1
 294 418 l 1,13,14
 282 395 282 395 249.5 381.5 c 128,-1,15
 217 368 217 368 185 368 c 0,16,17
 133 368 133 368 102 424 c 0,18,19
 84 458 84 458 84 498 c 128,-1,20
 84 538 84 538 92.5 579 c 128,-1,21
 101 620 101 620 116.5 650 c 128,-1,22
 132 680 132 680 148.5 695.5 c 128,-1,23
 165 711 165 711 189 720 c 128,-1,4
 213 729 213 729 229 731 c 128,-1,5
323 639 m 1,24,25
 308 646 308 646 288 646 c 128,-1,26
 268 646 268 646 257 643 c 128,-1,27
 246 640 246 640 236.5 634.5 c 128,-1,28
 227 629 227 629 217 610.5 c 128,-1,29
 207 592 207 592 202.5 565 c 128,-1,30
 198 538 198 538 198 519 c 0,31,32
 198 471 198 471 232 471 c 0,33,34
 283 471 283 471 304 507 c 1,35,-1
 323 639 l 1,24,25
EndSplineSet
Substitution2: "'smcp' Lowercase to Small Capitals lookup 1 subtable" ordfeminine.smcp
Ligature2: "'ordn' Ordinals lookup 0 subtable" a
EndChar

StartChar: guillemotleft
Encoding: 171 171 108
Width: 586
GlyphClass: 2
Flags: W
LayerCount: 2
Fore
SplineSet
90 354 m 1,0,-1
 328 557 l 1,1,-1
 400 472 l 1,2,-1
 252 345 l 1,3,-1
 363 216 l 1,4,-1
 268 146 l 1,5,-1
 90 354 l 1,0,-1
314 354 m 1,6,-1
 552 557 l 1,7,-1
 625 472 l 1,8,-1
 476 345 l 1,9,-1
 587 216 l 1,10,-1
 492 146 l 1,11,-1
 314 354 l 1,6,-1
EndSplineSet
EndChar

StartChar: logicalnot
Encoding: 172 172 109
Width: 481
GlyphClass: 2
Flags: W
LayerCount: 2
Fore
SplineSet
64 234 m 1,0,-1
 84 360 l 1,1,-1
 511 360 l 1,2,3
 507 336 507 336 501 298 c 128,-1,4
 495 260 495 260 488.5 221.5 c 128,-1,5
 482 183 482 183 479 159 c 1,6,-1
 352 159 l 1,7,-1
 364 234 l 1,8,-1
 64 234 l 1,0,-1
EndSplineSet
EndChar

StartChar: uni00AD
Encoding: 173 173 110
Width: 353
GlyphClass: 2
Flags: W
LayerCount: 2
Fore
SplineSet
55 223 m 1,0,-1
 76 357 l 1,1,-1
 390 357 l 1,2,-1
 369 223 l 1,3,-1
 55 223 l 1,0,-1
EndSplineSet
Substitution2: "'case' Case-Sensitive Forms lookup 18 subtable" uni00AD.alt
Substitution2: "'c2sc' Capitals to Small Capitals in Latin lookup 2 subtable" uni00AD.smcp
Substitution2: "'smcp' Lowercase to Small Capitals lookup 1 subtable" uni00AD.smcp
EndChar

StartChar: registered
Encoding: 174 174 111
Width: 794
GlyphClass: 2
Flags: W
LayerCount: 2
Fore
SplineSet
414 732 m 2,0,-1
 630 732 l 2,1,2
 688 732 688 732 729 710 c 128,-1,3
 770 688 770 688 791 652 c 0,4,5
 829 588 829 588 829 478 c 0,6,7
 829 421 829 421 817 346 c 0,8,9
 762 0 762 0 520 0 c 2,10,-1
 305 0 l 2,11,12
 172 0 172 0 116 119 c 0,13,14
 85 184 85 184 85 283 c 0,15,16
 85 383 85 383 117 493 c 0,17,18
 150 606 150 606 215 665 c 0,19,20
 290 732 290 732 414 732 c 2,0,-1
187 277 m 0,21,22
 187 94 187 94 315 94 c 2,23,-1
 524 94 l 2,24,25
 688 94 688 94 724 430 c 0,26,27
 728 469 728 469 728 499 c 128,-1,28
 728 529 728 529 722.5 550.5 c 128,-1,29
 717 572 717 572 706 594 c 0,30,31
 683 638 683 638 618 638 c 2,32,-1
 401 638 l 2,33,34
 281 638 281 638 229 503 c 0,35,36
 208 448 208 448 197.5 383.5 c 128,-1,37
 187 319 187 319 187 277 c 0,21,22
517 580 m 2,38,39
 569 580 569 580 603 553 c 0,40,41
 632 530 632 530 632 476 c 0,42,43
 632 417 632 417 613.5 381.5 c 128,-1,44
 595 346 595 346 578.5 333.5 c 128,-1,45
 562 321 562 321 537 314 c 1,46,-1
 597 153 l 1,47,-1
 488 153 l 1,48,-1
 432 308 l 1,49,-1
 393 320 l 1,50,-1
 366 153 l 1,51,-1
 265 153 l 1,52,-1
 333 580 l 1,53,-1
 517 580 l 2,38,39
464 394 m 2,54,55
 502 394 502 394 512.5 402.5 c 128,-1,56
 523 411 523 411 526 431.5 c 128,-1,57
 529 452 529 452 529 463 c 128,-1,58
 529 474 529 474 520 480 c 128,-1,59
 511 486 511 486 478 486 c 2,60,-1
 419 486 l 1,61,-1
 404 394 l 1,62,-1
 464 394 l 2,54,55
EndSplineSet
EndChar

StartChar: macron
Encoding: 175 175 112
Width: 359
GlyphClass: 2
Flags: W
LayerCount: 2
Fore
SplineSet
118 531 m 1,0,-1
 131 616 l 1,1,-1
 423 616 l 1,2,-1
 410 531 l 1,3,-1
 118 531 l 1,0,-1
EndSplineSet
Substitution2: "'smcp' Lowercase to Small Capitals lookup 1 subtable" macron.smcp
EndChar

StartChar: degree
Encoding: 176 176 113
Width: 267
GlyphClass: 2
Flags: W
LayerCount: 2
Fore
SplineSet
188 719 m 128,-1,1
 212 732 212 732 247 732 c 128,-1,2
 282 732 282 732 308.5 704.5 c 128,-1,3
 335 677 335 677 335 640 c 0,4,5
 335 592 335 592 302.5 563 c 128,-1,6
 270 534 270 534 227.5 534 c 128,-1,7
 185 534 185 534 158 560.5 c 128,-1,8
 131 587 131 587 131 625 c 0,9,10
 131 657 131 657 147.5 681.5 c 128,-1,0
 164 706 164 706 188 719 c 128,-1,1
236.5 673 m 128,-1,12
 220 673 220 673 206.5 660.5 c 128,-1,13
 193 648 193 648 193 631 c 128,-1,14
 193 614 193 614 203.5 603 c 128,-1,15
 214 592 214 592 227 592 c 128,-1,16
 240 592 240 592 247.5 595 c 128,-1,17
 255 598 255 598 260 604 c 1,18,19
 273 616 273 616 273 633 c 128,-1,20
 273 650 273 650 263 661.5 c 128,-1,11
 253 673 253 673 236.5 673 c 128,-1,12
EndSplineSet
Substitution2: "'smcp' Lowercase to Small Capitals lookup 1 subtable" degree.smcp
EndChar

StartChar: plusminus
Encoding: 177 177 114
Width: 491
GlyphClass: 2
Flags: W
LayerCount: 2
Fore
SplineSet
48 64 m 1,0,-1
 69 198 l 1,1,-1
 485 198 l 1,2,-1
 464 64 l 1,3,-1
 48 64 l 1,0,-1
99 380 m 1,4,-1
 120 514 l 1,5,-1
 260 514 l 1,6,-1
 282 654 l 1,7,-1
 416 654 l 1,8,-1
 394 514 l 1,9,-1
 536 514 l 1,10,-1
 515 380 l 1,11,-1
 373 380 l 1,12,-1
 350 238 l 1,13,-1
 216 238 l 1,14,-1
 239 380 l 1,15,-1
 99 380 l 1,4,-1
EndSplineSet
EndChar

StartChar: twosuperior
Encoding: 178 178 115
Width: 403
GlyphClass: 2
Flags: W
LayerCount: 2
Fore
SplineSet
343 683 m 0,0,1
 344 690 344 690 344 702 c 0,2,3
 344 732 344 732 274 732 c 2,4,-1
 120 732 l 1,5,6
 120 732 120 732 131 803 c 1,7,-1
 136 826 l 1,8,9
 241 846 241 846 338 846 c 0,10,11
 412 846 412 846 446 798 c 0,12,13
 473 760 473 760 473 714 c 0,14,15
 473 620 473 620 374 530 c 0,16,17
 342 501 342 501 300 469 c 1,18,-1
 435 469 l 1,19,-1
 417 355 l 1,20,-1
 64 355 l 1,21,-1
 82 464 l 1,22,23
 149 504 149 504 213 551 c 0,24,25
 336 640 336 640 343 683 c 0,0,1
EndSplineSet
EndChar

StartChar: threesuperior
Encoding: 179 179 116
Width: 408
GlyphClass: 2
Flags: W
LayerCount: 2
Fore
SplineSet
275 350 m 1,0,-1
 236 350 l 2,1,2
 196 350 196 350 186.5 351 c 128,-1,3
 177 352 177 352 162.5 352.5 c 128,-1,4
 148 353 148 353 141 354 c 128,-1,5
 134 355 134 355 122 356.5 c 128,-1,6
 110 358 110 358 102 360 c 0,7,8
 79 366 79 366 66 371 c 1,9,-1
 82 464 l 1,10,-1
 236 464 l 2,11,12
 274 464 274 464 289.5 470.5 c 128,-1,13
 305 477 305 477 308 498 c 0,14,15
 312 521 312 521 305 529 c 0,16,17
 294 541 294 541 252 543 c 2,18,-1
 135 547 l 1,19,-1
 151 648 l 1,20,-1
 270 653 l 2,21,22
 306 655 306 655 321 661 c 0,23,24
 337 668 337 668 340 695 c 1,25,26
 345 721 345 721 316 726 c 0,27,28
 303 728 303 728 282 728 c 2,29,-1
 119 728 l 1,30,-1
 133 820 l 1,31,32
 195 842 195 842 321 842 c 0,33,34
 339 842 339 842 357 841 c 1,35,36
 415 841 415 841 442 808 c 128,-1,37
 469 775 469 775 469 735 c 0,38,39
 469 723 469 723 467 710 c 2,40,-1
 462 682 l 1,41,42
 450 606 450 606 389 595 c 1,43,44
 434 581 434 581 434 515 c 0,45,46
 434 501 434 501 432 486 c 2,47,-1
 428 464 l 1,48,49
 410 350 410 350 276 350 c 0,50,51
 275 350 275 350 275 350 c 1,0,-1
EndSplineSet
EndChar

StartChar: acute
Encoding: 180 180 117
Width: 243
GlyphClass: 2
Flags: W
LayerCount: 2
Fore
SplineSet
97 531 m 1,0,-1
 204 672 l 1,1,-1
 337 672 l 1,2,-1
 196 531 l 1,3,-1
 97 531 l 1,0,-1
EndSplineSet
Substitution2: "'smcp' Lowercase to Small Capitals lookup 1 subtable" acute.smcp
EndChar

StartChar: uni00B5
Encoding: 181 181 118
Width: 585
GlyphClass: 2
Flags: W
LayerCount: 2
Fore
SplineSet
251 158 m 0,0,1
 251 118 251 118 290 118 c 0,2,3
 326 118 326 118 351 127.5 c 128,-1,4
 376 137 376 137 401 160 c 1,5,-1
 460 531 l 1,6,-1
 624 531 l 1,7,-1
 540 0 l 1,8,-1
 405 0 l 1,9,-1
 384 54 l 1,10,11
 377 51 377 51 357.5 39.5 c 128,-1,12
 338 28 338 28 329 23 c 0,13,14
 283 -1 283 -1 241 -1 c 0,15,16
 233 -1 233 -1 224 0 c 1,17,-1
 182 -270 l 1,18,-1
 18 -270 l 1,19,-1
 145 531 l 1,20,-1
 309 531 l 1,21,-1
 253 180 l 2,22,23
 251 168 251 168 251 158 c 0,0,1
EndSplineSet
EndChar

StartChar: paragraph
Encoding: 182 182 119
Width: 575
GlyphClass: 2
Flags: W
LayerCount: 2
Fore
SplineSet
298 732 m 2,0,-1
 678 732 l 1,1,-1
 660 618 l 1,2,-1
 613 618 l 1,3,-1
 515 0 l 1,4,-1
 404 0 l 1,5,-1
 502 620 l 1,6,-1
 446 620 l 1,7,-1
 305 -270 l 1,8,-1
 194 -270 l 1,9,-1
 295 372 l 1,10,11
 295 372 295 372 286 367 c 0,12,13
 264 355 264 355 230.5 355 c 128,-1,14
 197 355 197 355 167.5 369.5 c 128,-1,15
 138 384 138 384 124.5 407.5 c 128,-1,16
 111 431 111 431 106.5 452 c 128,-1,17
 102 473 102 473 102 487.5 c 128,-1,18
 102 502 102 502 105 516 c 2,19,-1
 119 608 l 2,20,21
 130 678 130 678 176 705 c 128,-1,22
 222 732 222 732 298 732 c 2,0,-1
219 514 m 2,23,24
 217 507 217 507 217 501.5 c 128,-1,25
 217 496 217 496 219.5 489 c 128,-1,26
 222 482 222 482 223.5 477 c 128,-1,27
 225 472 225 472 233 470 c 0,28,29
 245 466 245 466 262 466 c 2,30,-1
 310 466 l 1,31,-1
 334 621 l 1,32,-1
 288 621 l 2,33,34
 255 621 255 621 244 610 c 128,-1,35
 233 599 233 599 227 566 c 2,36,-1
 219 514 l 2,23,24
EndSplineSet
EndChar

StartChar: periodcentered
Encoding: 183 183 120
Width: 259
GlyphClass: 2
Flags: W
LayerCount: 2
Fore
SplineSet
154 462 m 2,0,-1
 252 462 l 2,1,2
 273 462 273 462 273 444 c 0,3,4
 273 440 273 440 273 436 c 2,5,-1
 256 334 l 2,6,7
 252 312 252 312 228 312 c 2,8,-1
 130 312 l 2,9,10
 120 312 120 312 114 318 c 128,-1,11
 108 324 108 324 109 334 c 2,12,-1
 126 436 l 1,13,14
 129 462 129 462 154 462 c 2,0,-1
EndSplineSet
Substitution2: "'smcp' Lowercase to Small Capitals lookup 1 subtable" periodcentered.smcp
EndChar

StartChar: cedilla
Encoding: 184 184 121
Width: 241
GlyphClass: 2
Flags: W
LayerCount: 2
Fore
SplineSet
64 -180 m 2,0,-1
 6 -180 l 1,1,-1
 17 -112 l 1,2,-1
 60 -97 l 1,3,4
 81 -88 81 -88 87 -77.5 c 128,-1,5
 93 -67 93 -67 98 -37 c 1,6,-1
 203 -37 l 1,7,8
 190 -115 190 -115 160 -147.5 c 128,-1,9
 130 -180 130 -180 64 -180 c 2,0,-1
EndSplineSet
EndChar

StartChar: onesuperior
Encoding: 185 185 122
Width: 280
GlyphClass: 2
Flags: W
LayerCount: 2
Fore
SplineSet
108 696 m 1,0,-1
 120 782 l 1,1,2
 137 782 137 782 175.5 801 c 128,-1,3
 214 820 214 820 231 840 c 1,4,-1
 354 840 l 1,5,-1
 277 355 l 1,6,-1
 152 355 l 1,7,-1
 210 715 l 1,8,9
 187 696 187 696 108 696 c 1,0,-1
EndSplineSet
EndChar

StartChar: ordmasculine
Encoding: 186 186 123
Width: 385
GlyphClass: 3
Flags: W
LayerCount: 2
Fore
SplineSet
75 261 m 1,0,-1
 86 334 l 1,1,-1
 414 334 l 1,2,-1
 403 261 l 1,3,-1
 75 261 l 1,0,-1
406 714 m 0,4,5
 457 684 457 684 457 599 c 0,6,7
 457 571 457 571 452 536 c 0,8,9
 437 440 437 440 395 406.5 c 128,-1,10
 353 373 353 373 259 373 c 128,-1,11
 165 373 165 373 131 419 c 0,12,13
 108 451 108 451 108 507 c 0,14,15
 108 531 108 531 114.5 573 c 128,-1,16
 121 615 121 615 135.5 648.5 c 128,-1,17
 150 682 150 682 174.5 701 c 128,-1,18
 199 720 199 720 231 727 c 0,19,20
 262 734 262 734 316.5 734 c 128,-1,21
 371 734 371 734 406 714 c 0,4,5
229 549 m 0,22,23
 226 522 226 522 225 512 c 128,-1,24
 224 502 224 502 224 495 c 128,-1,25
 224 488 224 488 230 481 c 0,26,27
 240 469 240 469 267.5 469 c 128,-1,28
 295 469 295 469 305 473 c 0,29,30
 324 482 324 482 335 549 c 0,31,32
 341 586 341 586 341 602 c 128,-1,33
 341 618 341 618 339 623 c 0,34,35
 333 638 333 638 296 638 c 128,-1,36
 259 638 259 638 248.5 624 c 128,-1,37
 238 610 238 610 229 549 c 0,22,23
EndSplineSet
Substitution2: "'smcp' Lowercase to Small Capitals lookup 1 subtable" ordmasculine.smcp
Ligature2: "'ordn' Ordinals lookup 0 subtable" o
EndChar

StartChar: guillemotright
Encoding: 187 187 124
Width: 584
GlyphClass: 2
Flags: W
LayerCount: 2
Fore
SplineSet
70 233 m 1,0,-1
 220 365 l 1,1,-1
 117 482 l 1,2,-1
 207 557 l 1,3,-1
 382 353 l 1,4,-1
 146 146 l 1,5,-1
 70 233 l 1,0,-1
295 233 m 1,6,-1
 446 365 l 1,7,-1
 342 482 l 1,8,-1
 432 557 l 1,9,-1
 607 353 l 1,10,-1
 372 146 l 1,11,-1
 295 233 l 1,6,-1
EndSplineSet
EndChar

StartChar: onequarter
Encoding: 188 188 125
Width: 991
GlyphClass: 3
Flags: W
LayerCount: 2
Fore
SplineSet
108 596 m 1,0,-1
 120 682 l 1,1,2
 137 682 137 682 175.5 701 c 128,-1,3
 214 720 214 720 231 740 c 1,4,-1
 354 740 l 1,5,-1
 277 255 l 1,6,-1
 152 255 l 1,7,-1
 210 615 l 1,8,9
 187 596 187 596 108 596 c 1,0,-1
199 0 m 1,10,-1
 712 770 l 1,11,-1
 833 770 l 1,12,-1
 320 0 l 1,13,-1
 199 0 l 1,10,-1
577 144 m 1,14,-1
 789 483 l 1,15,-1
 922 483 l 1,16,-1
 754 206 l 1,17,-1
 845 206 l 1,18,-1
 860 302 l 1,19,-1
 891 352 l 1,20,-1
 988 352 l 1,21,-1
 965 206 l 1,22,-1
 1010 206 l 1,23,-1
 994 109 l 1,24,-1
 945 90 l 1,25,-1
 933 1 l 1,26,-1
 813 1 l 1,27,-1
 826 89 l 1,28,-1
 599 89 l 1,29,-1
 577 144 l 1,14,-1
EndSplineSet
Ligature2: "'frac' Diagonal Fractions lookup 7 subtable" one fraction four
Ligature2: "'frac' Diagonal Fractions lookup 7 subtable" one slash four
EndChar

StartChar: onehalf
Encoding: 189 189 126
Width: 1026
GlyphClass: 3
Flags: W
LayerCount: 2
Fore
SplineSet
108 596 m 1,0,-1
 120 682 l 1,1,2
 137 682 137 682 175.5 701 c 128,-1,3
 214 720 214 720 231 740 c 1,4,-1
 354 740 l 1,5,-1
 277 255 l 1,6,-1
 152 255 l 1,7,-1
 210 615 l 1,8,9
 187 596 187 596 108 596 c 1,0,-1
196 0 m 1,10,-1
 708 770 l 1,11,-1
 830 770 l 1,12,-1
 316 0 l 1,13,-1
 196 0 l 1,10,-1
926 327 m 0,14,15
 927 334 927 334 927 347 c 0,16,17
 927 376 927 376 858 376 c 2,18,-1
 704 376 l 2,19,20
 703 376 703 376 715 447 c 1,21,-1
 718 470 l 1,22,23
 824 490 824 490 921 490 c 0,24,25
 995 490 995 490 1029 442 c 0,26,27
 1056 404 1056 404 1056 358 c 0,28,29
 1056 264 1056 264 957 174 c 0,30,31
 925 145 925 145 882 113 c 1,32,-1
 1018 113 l 1,33,-1
 1000 -1 l 1,34,-1
 648 -1 l 1,35,-1
 665 108 l 1,36,37
 732 148 732 148 796 195 c 0,38,39
 919 284 919 284 926 327 c 0,14,15
EndSplineSet
Ligature2: "'frac' Diagonal Fractions lookup 7 subtable" one fraction two
Ligature2: "'frac' Diagonal Fractions lookup 7 subtable" one slash two
EndChar

StartChar: threequarters
Encoding: 190 190 127
Width: 1102
GlyphClass: 3
Flags: W
LayerCount: 2
Fore
SplineSet
389 495 m 1,0,1
 434 481 434 481 434 415 c 0,2,3
 434 401 434 401 432 386 c 2,4,-1
 428 364 l 1,5,6
 410 250 410 250 276 250 c 0,7,8
 275 250 275 250 272.5 250 c 128,-1,9
 270 250 270 250 251.5 250 c 128,-1,10
 233 250 233 250 228 250 c 128,-1,11
 223 250 223 250 206.5 250.5 c 128,-1,12
 190 251 190 251 183.5 251.5 c 128,-1,13
 177 252 177 252 162.5 252.5 c 128,-1,14
 148 253 148 253 141 254 c 128,-1,15
 134 255 134 255 122 256.5 c 128,-1,16
 110 258 110 258 102 260 c 0,17,18
 79 266 79 266 66 271 c 1,19,-1
 82 364 l 1,20,-1
 236 364 l 2,21,22
 274 364 274 364 289.5 370.5 c 128,-1,23
 305 377 305 377 308 398 c 0,24,25
 310 410 310 410 310 419 c 0,26,27
 310 441 310 441 252 443 c 2,28,-1
 135 447 l 1,29,-1
 151 548 l 1,30,-1
 270 553 l 2,31,32
 323 555 323 555 333 570 c 0,33,34
 338 577 338 577 340 592.5 c 128,-1,35
 342 608 342 608 335 616 c 0,36,37
 324 628 324 628 282 628 c 2,38,-1
 119 628 l 1,39,-1
 133 720 l 1,40,41
 195 742 195 742 321 742 c 0,42,43
 339 742 339 742 357 741 c 1,44,45
 415 741 415 741 442 708 c 128,-1,46
 469 675 469 675 469 635 c 0,47,48
 469 623 469 623 467 610 c 2,49,-1
 462 582 l 1,50,51
 450 506 450 506 389 495 c 1,0,1
300 0 m 1,52,-1
 813 770 l 1,53,-1
 934 770 l 1,54,-1
 421 0 l 1,55,-1
 300 0 l 1,52,-1
668 144 m 1,56,-1
 880 483 l 1,57,-1
 1013 483 l 1,58,-1
 844 206 l 1,59,-1
 935 206 l 1,60,-1
 950 302 l 1,61,-1
 981 352 l 1,62,-1
 1079 352 l 1,63,-1
 1056 206 l 1,64,-1
 1100 206 l 1,65,-1
 1085 109 l 1,66,-1
 1035 90 l 1,67,-1
 1024 1 l 1,68,-1
 903 1 l 1,69,-1
 917 89 l 1,70,-1
 689 89 l 1,71,-1
 668 144 l 1,56,-1
EndSplineSet
Ligature2: "'frac' Diagonal Fractions lookup 7 subtable" three fraction four
Ligature2: "'frac' Diagonal Fractions lookup 7 subtable" three slash four
EndChar

StartChar: questiondown
Encoding: 191 191 128
Width: 541
GlyphClass: 2
Flags: W
LayerCount: 2
Fore
SplineSet
385 69 m 1,0,1
 368 70 368 70 330 70 c 128,-1,2
 292 70 292 70 280 69 c 0,3,4
 241 68 241 68 217.5 50.5 c 128,-1,5
 194 33 194 33 188 -7 c 2,6,-1
 182 -44 l 2,7,8
 180 -53 180 -53 180 -64.5 c 128,-1,9
 180 -76 180 -76 187 -90 c 0,10,11
 201 -119 201 -119 270 -119 c 2,12,-1
 511 -119 l 1,13,-1
 492 -240 l 1,14,15
 362 -269 362 -269 245 -269 c 0,16,17
 225 -269 225 -269 205 -268 c 1,18,19
 152 -268 152 -268 111 -248 c 0,20,21
 37 -212 37 -212 17 -127 c 0,22,23
 12 -105 12 -105 12 -86 c 128,-1,24
 12 -67 12 -67 15 -51 c 2,25,-1
 25 12 l 2,26,27
 41 116 41 116 99 157 c 1,28,29
 149 191 149 191 241 191 c 0,30,31
 258 191 258 191 276 190 c 1,32,-1
 290 276 l 1,33,-1
 418 276 l 1,34,-1
 385 69 l 1,0,1
337 471 m 2,35,-1
 436 471 l 2,36,37
 446 471 446 471 451.5 465 c 128,-1,38
 457 459 457 459 456 448 c 2,39,-1
 440 346 l 2,40,41
 437 321 437 321 412 321 c 2,42,-1
 314 321 l 2,43,44
 292 321 292 321 292 339 c 0,45,46
 292 342 292 342 293 346 c 2,47,-1
 309 448 l 2,48,49
 312 471 312 471 337 471 c 2,35,-1
EndSplineSet
Substitution2: "'case' Case-Sensitive Forms lookup 18 subtable" questiondown.alt
Substitution2: "'smcp' Lowercase to Small Capitals lookup 1 subtable" questiondown.smcp
EndChar

StartChar: Agrave
Encoding: 192 192 129
Width: 698
GlyphClass: 2
Flags: W
LayerCount: 2
Fore
SplineSet
342 938 m 1,0,-1
 473 938 l 1,1,-1
 540 797 l 1,2,-1
 441 797 l 1,3,-1
 342 938 l 1,0,-1
30 0 m 1,4,-1
 385 732 l 1,5,-1
 575 732 l 1,6,-1
 690 0 l 1,7,-1
 522 0 l 1,8,-1
 496 147 l 1,9,-1
 281 147 l 1,10,-1
 212 0 l 1,11,-1
 30 0 l 1,4,-1
344 289 m 1,12,-1
 483 289 l 1,13,-1
 450 524 l 1,14,-1
 344 289 l 1,12,-1
EndSplineSet
Substitution2: "'c2sc' Capitals to Small Capitals in Latin lookup 2 subtable" agrave.smcp
EndChar

StartChar: Aacute
Encoding: 193 193 130
Width: 698
GlyphClass: 2
Flags: W
LayerCount: 2
Fore
SplineSet
441 797 m 1,0,-1
 548 938 l 1,1,-1
 680 938 l 1,2,-1
 540 797 l 1,3,-1
 441 797 l 1,0,-1
30 0 m 1,4,-1
 385 732 l 1,5,-1
 575 732 l 1,6,-1
 690 0 l 1,7,-1
 522 0 l 1,8,-1
 496 147 l 1,9,-1
 281 147 l 1,10,-1
 212 0 l 1,11,-1
 30 0 l 1,4,-1
344 289 m 1,12,-1
 483 289 l 1,13,-1
 450 524 l 1,14,-1
 344 289 l 1,12,-1
EndSplineSet
Substitution2: "'c2sc' Capitals to Small Capitals in Latin lookup 2 subtable" aacute.smcp
EndChar

StartChar: Acircumflex
Encoding: 194 194 131
Width: 698
GlyphClass: 2
Flags: W
LayerCount: 2
Fore
SplineSet
333 797 m 1,0,-1
 459 934 l 1,1,-1
 575 934 l 1,2,-1
 648 797 l 1,3,-1
 548 797 l 1,4,-1
 511 856 l 1,5,-1
 445 797 l 1,6,-1
 333 797 l 1,0,-1
30 0 m 1,7,-1
 385 732 l 1,8,-1
 575 732 l 1,9,-1
 690 0 l 1,10,-1
 522 0 l 1,11,-1
 496 147 l 1,12,-1
 281 147 l 1,13,-1
 212 0 l 1,14,-1
 30 0 l 1,7,-1
344 289 m 1,15,-1
 483 289 l 1,16,-1
 450 524 l 1,17,-1
 344 289 l 1,15,-1
EndSplineSet
Substitution2: "'c2sc' Capitals to Small Capitals in Latin lookup 2 subtable" acircumflex.smcp
EndChar

StartChar: Atilde
Encoding: 195 195 132
Width: 698
GlyphClass: 2
Flags: W
LayerCount: 2
Fore
SplineSet
561 894 m 0,0,1
 563 894 563 894 571.5 894 c 128,-1,2
 580 894 580 894 599 900 c 0,3,4
 635 911 635 911 661 933 c 1,5,-1
 675 867 l 1,6,7
 607 797 607 797 551 797 c 0,8,9
 527 797 527 797 494 814.5 c 128,-1,10
 461 832 461 832 438 832 c 0,11,12
 399 832 399 832 343 797 c 1,13,-1
 328 858 l 1,14,15
 398 929 398 929 461 929 c 0,16,17
 485 929 485 929 514 911.5 c 128,-1,18
 543 894 543 894 561 894 c 0,0,1
30 0 m 1,19,-1
 385 732 l 1,20,-1
 575 732 l 1,21,-1
 690 0 l 1,22,-1
 522 0 l 1,23,-1
 496 147 l 1,24,-1
 281 147 l 1,25,-1
 212 0 l 1,26,-1
 30 0 l 1,19,-1
344 289 m 1,27,-1
 483 289 l 1,28,-1
 450 524 l 1,29,-1
 344 289 l 1,27,-1
EndSplineSet
Substitution2: "'c2sc' Capitals to Small Capitals in Latin lookup 2 subtable" atilde.smcp
EndChar

StartChar: Adieresis
Encoding: 196 196 133
Width: 698
GlyphClass: 2
Flags: W
LayerCount: 2
Fore
SplineSet
383.5 920 m 128,-1,1
 409 920 409 920 422.5 904.5 c 128,-1,2
 436 889 436 889 436 877 c 0,3,4
 436 838 436 838 412.5 817.5 c 128,-1,5
 389 797 389 797 363.5 797 c 128,-1,6
 338 797 338 797 324.5 813.5 c 128,-1,7
 311 830 311 830 311 842 c 0,8,9
 311 880 311 880 334.5 900 c 128,-1,0
 358 920 358 920 383.5 920 c 128,-1,1
638.5 920 m 128,-1,11
 664 920 664 920 677.5 904.5 c 128,-1,12
 691 889 691 889 691 877 c 0,13,14
 691 838 691 838 667.5 817.5 c 128,-1,15
 644 797 644 797 618.5 797 c 128,-1,16
 593 797 593 797 579.5 813.5 c 128,-1,17
 566 830 566 830 566 842 c 0,18,19
 566 880 566 880 589.5 900 c 128,-1,10
 613 920 613 920 638.5 920 c 128,-1,11
30 0 m 1,20,-1
 385 732 l 1,21,-1
 575 732 l 1,22,-1
 690 0 l 1,23,-1
 522 0 l 1,24,-1
 496 147 l 1,25,-1
 281 147 l 1,26,-1
 212 0 l 1,27,-1
 30 0 l 1,20,-1
344 289 m 1,28,-1
 483 289 l 1,29,-1
 450 524 l 1,30,-1
 344 289 l 1,28,-1
EndSplineSet
Substitution2: "'c2sc' Capitals to Small Capitals in Latin lookup 2 subtable" adieresis.smcp
EndChar

StartChar: Aring
Encoding: 197 197 134
Width: 698
GlyphClass: 2
Flags: W
LayerCount: 2
Fore
SplineSet
498.5 931 m 128,-1,1
 456 931 456 931 422.5 900 c 128,-1,2
 389 869 389 869 389 821 c 0,3,4
 389 785 389 785 415.5 757.5 c 128,-1,5
 442 730 442 730 484 730 c 128,-1,6
 526 730 526 730 559 761 c 128,-1,7
 592 792 592 792 592 840 c 0,8,9
 592 876 592 876 566.5 903.5 c 128,-1,0
 541 931 541 931 498.5 931 c 128,-1,1
460.5 803 m 128,-1,11
 450 814 450 814 452 833.5 c 128,-1,12
 454 853 454 853 474 865 c 0,13,14
 484 870 484 870 497.5 870 c 128,-1,15
 511 870 511 870 521 858.5 c 128,-1,16
 531 847 531 847 529 827.5 c 128,-1,17
 527 808 527 808 507 797 c 0,18,19
 498 792 498 792 484.5 792 c 128,-1,10
 471 792 471 792 460.5 803 c 128,-1,11
30 0 m 1,20,-1
 385 732 l 1,21,-1
 575 732 l 1,22,-1
 690 0 l 1,23,-1
 522 0 l 1,24,-1
 496 147 l 1,25,-1
 281 147 l 1,26,-1
 212 0 l 1,27,-1
 30 0 l 1,20,-1
344 289 m 1,28,-1
 483 289 l 1,29,-1
 450 524 l 1,30,-1
 344 289 l 1,28,-1
EndSplineSet
Substitution2: "'c2sc' Capitals to Small Capitals in Latin lookup 2 subtable" aring.smcp
EndChar

StartChar: AE
Encoding: 198 198 135
Width: 1050
GlyphClass: 2
Flags: W
LayerCount: 2
Fore
SplineSet
594 721 m 0,0,1
 634 730 634 730 658 731.5 c 128,-1,2
 682 733 682 733 701 733 c 128,-1,3
 720 733 720 733 742 732 c 0,4,5
 964 728 964 728 1049 716 c 1,6,-1
 1028 579 l 1,7,-1
 763 579 l 2,8,9
 726 579 726 579 715 561 c 0,10,11
 706 547 706 547 702 524 c 2,12,-1
 689 439 l 1,13,-1
 956 428 l 1,14,-1
 935 293 l 1,15,-1
 664 284 l 1,16,-1
 651 201 l 2,17,18
 645 163 645 163 665 155 c 0,19,20
 680 149 680 149 705 149 c 2,21,-1
 960 149 l 1,22,-1
 938 14 l 1,23,24
 864 4 864 4 661 -3 c 1,25,-1
 638 -4 l 2,26,27
 631 -4 631 -4 616.5 -4 c 128,-1,28
 602 -4 602 -4 577 0 c 0,29,30
 506 13 506 13 482 58 c 0,31,32
 472 77 472 77 472 94.5 c 128,-1,33
 472 112 472 112 474 123 c 2,34,-1
 484 183 l 1,35,-1
 323 183 l 1,36,-1
 203 0 l 1,37,-1
 20 0 l 1,38,-1
 387 565 l 2,39,40
 471 693 471 693 594 721 c 0,0,1
413 324 m 1,41,-1
 506 324 l 1,42,-1
 538 522 l 1,43,-1
 413 324 l 1,41,-1
EndSplineSet
EndChar

StartChar: Ccedilla
Encoding: 199 199 136
Width: 569
GlyphClass: 2
Flags: W
LayerCount: 2
Fore
SplineSet
277 719 m 128,-1,1
 330 740 330 740 411 740 c 128,-1,2
 492 740 492 740 544.5 732 c 128,-1,3
 597 724 597 724 658 702 c 1,4,-1
 637 574 l 1,5,6
 500 591 500 591 429 591 c 0,7,8
 428 591 428 591 426.5 591 c 128,-1,9
 425 591 425 591 416.5 591 c 128,-1,10
 408 591 408 591 400.5 590.5 c 128,-1,11
 393 590 393 590 380 589 c 128,-1,12
 367 588 367 588 360.5 585 c 128,-1,13
 354 582 354 582 343 576.5 c 128,-1,14
 332 571 332 571 325.5 562.5 c 128,-1,15
 319 554 319 554 310.5 542 c 128,-1,16
 302 530 302 530 296 513.5 c 128,-1,17
 290 497 290 497 283 476 c 0,18,19
 271 438 271 438 259.5 370 c 128,-1,20
 248 302 248 302 248 260 c 128,-1,21
 248 218 248 218 257 194 c 0,22,23
 277 145 277 145 354 143 c 0,24,25
 360 143 360 143 403 143 c 128,-1,26
 446 143 446 143 571 152 c 1,27,-1
 551 24 l 1,28,29
 498 5 498 5 447 -0.5 c 128,-1,30
 396 -6 396 -6 351.5 -6 c 128,-1,31
 307 -6 307 -6 287 -6 c 0,32,33
 219 -5 219 -5 173.5 25 c 128,-1,34
 128 55 128 55 108 108 c 0,35,36
 83 174 83 174 83 249 c 128,-1,37
 83 324 83 324 96 403 c 128,-1,38
 109 482 109 482 130.5 544.5 c 128,-1,39
 152 607 152 607 188 652.5 c 128,-1,0
 224 698 224 698 277 719 c 128,-1,1
230 -180 m 2,40,-1
 171 -180 l 1,41,-1
 182 -111 l 1,42,-1
 225 -96 l 2,43,44
 247 -88 247 -88 253.5 -77.5 c 128,-1,45
 260 -67 260 -67 264 -36 c 1,46,-1
 369 -36 l 1,47,48
 357 -114 357 -114 326 -147 c 128,-1,49
 295 -180 295 -180 230 -180 c 2,40,-1
EndSplineSet
Substitution2: "'c2sc' Capitals to Small Capitals in Latin lookup 2 subtable" ccedilla.smcp
EndChar

StartChar: Egrave
Encoding: 200 200 137
Width: 558
GlyphClass: 2
Flags: W
LayerCount: 2
Fore
SplineSet
273 932 m 1,0,-1
 404 932 l 1,1,-1
 470 792 l 1,2,-1
 372 792 l 1,3,-1
 273 932 l 1,0,-1
214 706 m 0,4,5
 242 721 242 721 269.5 726.5 c 128,-1,6
 297 732 297 732 315 732 c 128,-1,7
 333 732 333 732 335 732 c 0,8,9
 556 728 556 728 642 716 c 1,10,-1
 620 579 l 1,11,-1
 356 579 l 2,12,13
 307 579 307 579 298 540 c 0,14,15
 297 534 297 534 295 523 c 2,16,-1
 283 443 l 1,17,-1
 549 432 l 1,18,-1
 527 297 l 1,19,-1
 258 288 l 1,20,-1
 244 202 l 2,21,22
 238 164 238 164 258 156 c 0,23,24
 273 150 273 150 298 150 c 2,25,-1
 553 150 l 1,26,-1
 531 14 l 1,27,28
 460 5 460 5 286 -1 c 2,29,-1
 228 -3 l 2,30,31
 223 -3 223 -3 211.5 -3 c 128,-1,32
 200 -3 200 -3 180 0 c 128,-1,33
 160 3 160 3 136 14 c 0,34,35
 70 45 70 45 70 126 c 0,36,37
 70 142 70 142 72 160 c 2,38,-1
 139 580 l 2,39,40
 154 675 154 675 214 706 c 0,4,5
EndSplineSet
Substitution2: "'c2sc' Capitals to Small Capitals in Latin lookup 2 subtable" egrave.smcp
EndChar

StartChar: Eacute
Encoding: 201 201 138
Width: 558
GlyphClass: 2
Flags: W
LayerCount: 2
Fore
SplineSet
376 792 m 1,0,-1
 482 932 l 1,1,-1
 615 932 l 1,2,-1
 474 792 l 1,3,-1
 376 792 l 1,0,-1
214 706 m 0,4,5
 242 721 242 721 269.5 726.5 c 128,-1,6
 297 732 297 732 315 732 c 128,-1,7
 333 732 333 732 335 732 c 0,8,9
 556 728 556 728 642 716 c 1,10,-1
 620 579 l 1,11,-1
 356 579 l 2,12,13
 307 579 307 579 298 540 c 0,14,15
 297 534 297 534 295 523 c 2,16,-1
 283 443 l 1,17,-1
 549 432 l 1,18,-1
 527 297 l 1,19,-1
 258 288 l 1,20,-1
 244 202 l 2,21,22
 238 164 238 164 258 156 c 0,23,24
 273 150 273 150 298 150 c 2,25,-1
 553 150 l 1,26,-1
 531 14 l 1,27,28
 460 5 460 5 286 -1 c 2,29,-1
 228 -3 l 2,30,31
 223 -3 223 -3 211.5 -3 c 128,-1,32
 200 -3 200 -3 180 0 c 128,-1,33
 160 3 160 3 136 14 c 0,34,35
 70 45 70 45 70 126 c 0,36,37
 70 142 70 142 72 160 c 2,38,-1
 139 580 l 2,39,40
 154 675 154 675 214 706 c 0,4,5
EndSplineSet
Substitution2: "'c2sc' Capitals to Small Capitals in Latin lookup 2 subtable" eacute.smcp
EndChar

StartChar: Ecircumflex
Encoding: 202 202 139
Width: 558
GlyphClass: 2
Flags: W
LayerCount: 2
Fore
SplineSet
272 792 m 1,0,-1
 398 930 l 1,1,-1
 514 930 l 1,2,-1
 586 792 l 1,3,-1
 486 792 l 1,4,-1
 449 850 l 1,5,-1
 392 792 l 1,6,-1
 272 792 l 1,0,-1
214 706 m 0,7,8
 242 721 242 721 269.5 726.5 c 128,-1,9
 297 732 297 732 315 732 c 128,-1,10
 333 732 333 732 335 732 c 0,11,12
 556 728 556 728 642 716 c 1,13,-1
 620 579 l 1,14,-1
 356 579 l 2,15,16
 307 579 307 579 298 540 c 0,17,18
 297 534 297 534 295 523 c 2,19,-1
 283 443 l 1,20,-1
 549 432 l 1,21,-1
 527 297 l 1,22,-1
 258 288 l 1,23,-1
 244 202 l 2,24,25
 238 164 238 164 258 156 c 0,26,27
 273 150 273 150 298 150 c 2,28,-1
 553 150 l 1,29,-1
 531 14 l 1,30,31
 460 5 460 5 286 -1 c 2,32,-1
 228 -3 l 2,33,34
 223 -3 223 -3 211.5 -3 c 128,-1,35
 200 -3 200 -3 180 0 c 128,-1,36
 160 3 160 3 136 14 c 0,37,38
 70 45 70 45 70 126 c 0,39,40
 70 142 70 142 72 160 c 2,41,-1
 139 580 l 2,42,43
 154 675 154 675 214 706 c 0,7,8
EndSplineSet
Substitution2: "'c2sc' Capitals to Small Capitals in Latin lookup 2 subtable" ecircumflex.smcp
EndChar

StartChar: Edieresis
Encoding: 203 203 140
Width: 558
GlyphClass: 2
Flags: W
LayerCount: 2
Fore
SplineSet
308.5 904 m 128,-1,1
 334 904 334 904 347.5 888 c 128,-1,2
 361 872 361 872 361 860 c 0,3,4
 361 822 361 822 337.5 801.5 c 128,-1,5
 314 781 314 781 293 781 c 0,6,7
 253 781 253 781 240 812 c 0,8,9
 236 822 236 822 236 830 c 0,10,11
 236 864 236 864 259.5 884 c 128,-1,0
 283 904 283 904 308.5 904 c 128,-1,1
563.5 904 m 128,-1,13
 589 904 589 904 602.5 888 c 128,-1,14
 616 872 616 872 616 860 c 0,15,16
 616 822 616 822 592.5 801.5 c 128,-1,17
 569 781 569 781 548 781 c 0,18,19
 508 781 508 781 495 812 c 0,20,21
 491 822 491 822 491 830 c 0,22,23
 491 864 491 864 514.5 884 c 128,-1,12
 538 904 538 904 563.5 904 c 128,-1,13
214 706 m 0,24,25
 242 721 242 721 269.5 726.5 c 128,-1,26
 297 732 297 732 315 732 c 128,-1,27
 333 732 333 732 335 732 c 0,28,29
 556 728 556 728 642 716 c 1,30,-1
 620 579 l 1,31,-1
 356 579 l 2,32,33
 307 579 307 579 298 540 c 0,34,35
 297 534 297 534 295 523 c 2,36,-1
 283 443 l 1,37,-1
 549 432 l 1,38,-1
 527 297 l 1,39,-1
 258 288 l 1,40,-1
 244 202 l 2,41,42
 238 164 238 164 258 156 c 0,43,44
 273 150 273 150 298 150 c 2,45,-1
 553 150 l 1,46,-1
 531 14 l 1,47,48
 460 5 460 5 286 -1 c 2,49,-1
 228 -3 l 2,50,51
 223 -3 223 -3 211.5 -3 c 128,-1,52
 200 -3 200 -3 180 0 c 128,-1,53
 160 3 160 3 136 14 c 0,54,55
 70 45 70 45 70 126 c 0,56,57
 70 142 70 142 72 160 c 2,58,-1
 139 580 l 2,59,60
 154 675 154 675 214 706 c 0,24,25
EndSplineSet
Substitution2: "'c2sc' Capitals to Small Capitals in Latin lookup 2 subtable" edieresis.smcp
EndChar

StartChar: Igrave
Encoding: 204 204 141
Width: 267
GlyphClass: 2
Flags: W
LayerCount: 2
Fore
SplineSet
117 938 m 1,0,-1
 247 938 l 1,1,-1
 314 797 l 1,2,-1
 215 797 l 1,3,-1
 117 938 l 1,0,-1
56 0 m 1,4,-1
 172 732 l 1,5,-1
 336 732 l 1,6,-1
 220 0 l 1,7,-1
 56 0 l 1,4,-1
EndSplineSet
Substitution2: "'c2sc' Capitals to Small Capitals in Latin lookup 2 subtable" igrave.smcp
EndChar

StartChar: Iacute
Encoding: 205 205 142
Width: 267
GlyphClass: 2
Flags: W
LayerCount: 2
Fore
SplineSet
215 797 m 1,0,-1
 322 938 l 1,1,-1
 455 938 l 1,2,-1
 314 797 l 1,3,-1
 215 797 l 1,0,-1
56 0 m 1,4,-1
 172 732 l 1,5,-1
 336 732 l 1,6,-1
 220 0 l 1,7,-1
 56 0 l 1,4,-1
EndSplineSet
Substitution2: "'c2sc' Capitals to Small Capitals in Latin lookup 2 subtable" iacute.smcp
EndChar

StartChar: Icircumflex
Encoding: 206 206 143
Width: 267
GlyphClass: 2
Flags: W
LayerCount: 2
Fore
SplineSet
107 797 m 1,0,-1
 233 934 l 1,1,-1
 349 934 l 1,2,-1
 422 797 l 1,3,-1
 322 797 l 1,4,-1
 285 856 l 1,5,-1
 219 797 l 1,6,-1
 107 797 l 1,0,-1
56 0 m 1,7,-1
 172 732 l 1,8,-1
 336 732 l 1,9,-1
 220 0 l 1,10,-1
 56 0 l 1,7,-1
EndSplineSet
Substitution2: "'c2sc' Capitals to Small Capitals in Latin lookup 2 subtable" icircumflex.smcp
EndChar

StartChar: Idieresis
Encoding: 207 207 144
Width: 267
GlyphClass: 2
Flags: W
LayerCount: 2
Fore
SplineSet
157.5 920 m 128,-1,1
 183 920 183 920 196.5 904.5 c 128,-1,2
 210 889 210 889 210 877 c 0,3,4
 210 838 210 838 186.5 817.5 c 128,-1,5
 163 797 163 797 137.5 797 c 128,-1,6
 112 797 112 797 98.5 813.5 c 128,-1,7
 85 830 85 830 85 842 c 0,8,9
 85 880 85 880 108.5 900 c 128,-1,0
 132 920 132 920 157.5 920 c 128,-1,1
412.5 920 m 128,-1,11
 438 920 438 920 451.5 904.5 c 128,-1,12
 465 889 465 889 465 877 c 0,13,14
 465 838 465 838 441.5 817.5 c 128,-1,15
 418 797 418 797 392.5 797 c 128,-1,16
 367 797 367 797 353.5 813.5 c 128,-1,17
 340 830 340 830 340 842 c 0,18,19
 340 880 340 880 363.5 900 c 128,-1,10
 387 920 387 920 412.5 920 c 128,-1,11
56 0 m 1,20,-1
 172 732 l 1,21,-1
 336 732 l 1,22,-1
 220 0 l 1,23,-1
 56 0 l 1,20,-1
EndSplineSet
Substitution2: "'c2sc' Capitals to Small Capitals in Latin lookup 2 subtable" idieresis.smcp
EndChar

StartChar: Eth
Encoding: 208 208 145
Width: 647
GlyphClass: 2
Flags: W
LayerCount: 2
Fore
SplineSet
480 732 m 0,0,1
 539 732 539 732 581.5 708.5 c 128,-1,2
 624 685 624 685 646 648 c 0,3,4
 685 581 685 581 685 470 c 0,5,6
 685 413 685 413 673 340 c 0,7,8
 643 156 643 156 575.5 78 c 128,-1,9
 508 0 508 0 379 0 c 2,10,-1
 54 0 l 1,11,-1
 107 338 l 1,12,-1
 42 338 l 1,13,-1
 53 408 l 1,14,-1
 118 408 l 1,15,-1
 170 732 l 1,16,17
 170 732 170 732 480 732 c 0,0,1
372 142 m 2,18,19
 426 142 426 142 459 197.5 c 128,-1,20
 492 253 492 253 506 343 c 0,21,22
 521 438 521 438 521 481.5 c 128,-1,23
 521 525 521 525 511.5 548.5 c 128,-1,24
 502 572 502 572 485.5 581 c 128,-1,25
 469 590 469 590 442 590 c 2,26,-1
 311 590 l 1,27,-1
 282 408 l 1,28,-1
 384 408 l 1,29,-1
 372 338 l 1,30,-1
 271 338 l 1,31,-1
 240 142 l 1,32,-1
 372 142 l 2,18,19
EndSplineSet
Substitution2: "'c2sc' Capitals to Small Capitals in Latin lookup 2 subtable" eth.smcp
EndChar

StartChar: Ntilde
Encoding: 209 209 146
Width: 672
GlyphClass: 2
Flags: W
LayerCount: 2
Fore
SplineSet
538 893 m 0,0,1
 540 893 540 893 553 893 c 128,-1,2
 566 893 566 893 593 904.5 c 128,-1,3
 620 916 620 916 638 932 c 1,4,-1
 652 866 l 1,5,6
 584 796 584 796 528 796 c 0,7,8
 504 796 504 796 471 813.5 c 128,-1,9
 438 831 438 831 425 831 c 128,-1,10
 412 831 412 831 403.5 830 c 128,-1,11
 395 829 395 829 388.5 827.5 c 128,-1,12
 382 826 382 826 374.5 823.5 c 128,-1,13
 367 821 367 821 361 818.5 c 128,-1,14
 355 816 355 816 348 812 c 0,15,16
 336 806 336 806 320 796 c 1,17,-1
 305 856 l 1,18,19
 375 928 375 928 438 928 c 1,20,21
 462 927 462 927 491 910 c 128,-1,22
 520 893 520 893 538 893 c 0,0,1
54 0 m 1,23,-1
 170 732 l 1,24,-1
 335 732 l 1,25,-1
 517 299 l 1,26,-1
 585 732 l 1,27,-1
 749 732 l 1,28,-1
 633 0 l 1,29,-1
 470 0 l 1,30,-1
 286 425 l 1,31,-1
 219 0 l 1,32,-1
 54 0 l 1,23,-1
EndSplineSet
AlternateSubs2: "'salt' Stylistic Alternatives in Latin lookup 16 subtable" Ntilde.salt
Substitution2: "'c2sc' Capitals to Small Capitals in Latin lookup 2 subtable" ntilde.smcp
EndChar

StartChar: Ograve
Encoding: 210 210 147
Width: 666
GlyphClass: 2
Flags: W
LayerCount: 2
Fore
SplineSet
316 938 m 1,0,-1
 446 938 l 1,1,-1
 513 797 l 1,2,-1
 414 797 l 1,3,-1
 316 938 l 1,0,-1
383.5 735.5 m 128,-1,5
 411 737 411 737 452.5 737 c 128,-1,6
 494 737 494 737 525 733 c 128,-1,7
 556 729 556 729 586.5 718 c 128,-1,8
 617 707 617 707 639 689 c 0,9,10
 708 629 708 629 708 485 c 0,11,12
 708 421 708 421 696.5 347.5 c 128,-1,13
 685 274 685 274 669 221.5 c 128,-1,14
 653 169 653 169 635 132.5 c 128,-1,15
 617 96 617 96 591 70.5 c 128,-1,16
 565 45 565 45 540.5 30.5 c 128,-1,17
 516 16 516 16 481 8 c 0,18,19
 426 -4 426 -4 363.5 -4 c 128,-1,20
 301 -4 301 -4 270 -0.5 c 128,-1,21
 239 3 239 3 208 13.5 c 128,-1,22
 177 24 177 24 156 42 c 0,23,24
 107 83 107 83 93 158 c 0,25,26
 87 193 87 193 87 220 c 128,-1,27
 87 247 87 247 87.5 278.5 c 128,-1,28
 88 310 88 310 99.5 381 c 128,-1,29
 111 452 111 452 128 507.5 c 128,-1,30
 145 563 145 563 163 600.5 c 128,-1,31
 181 638 181 638 208.5 664 c 128,-1,32
 236 690 236 690 259.5 704.5 c 128,-1,33
 283 719 283 719 319.5 726.5 c 128,-1,4
 356 734 356 734 383.5 735.5 c 128,-1,5
284.5 465 m 128,-1,35
 273 424 273 424 262 354 c 128,-1,36
 251 284 251 284 251 260 c 128,-1,37
 251 236 251 236 252.5 218 c 128,-1,38
 254 200 254 200 260.5 185.5 c 128,-1,39
 267 171 267 171 281 161 c 0,40,41
 305 145 305 145 360 145 c 128,-1,42
 415 145 415 145 445 162 c 128,-1,43
 475 179 475 179 496 225.5 c 128,-1,44
 517 272 517 272 529 347 c 0,45,46
 543 435 543 435 543 472 c 128,-1,47
 543 509 543 509 539 531.5 c 128,-1,48
 535 554 535 554 519.5 566.5 c 128,-1,49
 504 579 504 579 485 583.5 c 128,-1,50
 466 588 466 588 433 588 c 128,-1,51
 400 588 400 588 380 584.5 c 128,-1,52
 360 581 360 581 340.5 568.5 c 128,-1,53
 321 556 321 556 308.5 531 c 128,-1,34
 296 506 296 506 284.5 465 c 128,-1,35
EndSplineSet
Substitution2: "'c2sc' Capitals to Small Capitals in Latin lookup 2 subtable" ograve.smcp
EndChar

StartChar: Oacute
Encoding: 211 211 148
Width: 666
GlyphClass: 2
Flags: W
LayerCount: 2
Fore
SplineSet
414 797 m 1,0,-1
 521 938 l 1,1,-1
 654 938 l 1,2,-1
 513 797 l 1,3,-1
 414 797 l 1,0,-1
383.5 735.5 m 128,-1,5
 411 737 411 737 452.5 737 c 128,-1,6
 494 737 494 737 525 733 c 128,-1,7
 556 729 556 729 586.5 718 c 128,-1,8
 617 707 617 707 639 689 c 0,9,10
 708 629 708 629 708 485 c 0,11,12
 708 421 708 421 696.5 347.5 c 128,-1,13
 685 274 685 274 669 221.5 c 128,-1,14
 653 169 653 169 635 132.5 c 128,-1,15
 617 96 617 96 591 70.5 c 128,-1,16
 565 45 565 45 540.5 30.5 c 128,-1,17
 516 16 516 16 481 8 c 0,18,19
 426 -4 426 -4 363.5 -4 c 128,-1,20
 301 -4 301 -4 270 -0.5 c 128,-1,21
 239 3 239 3 208 13.5 c 128,-1,22
 177 24 177 24 156 42 c 0,23,24
 107 83 107 83 93 158 c 0,25,26
 87 193 87 193 87 220 c 128,-1,27
 87 247 87 247 87.5 278.5 c 128,-1,28
 88 310 88 310 99.5 381 c 128,-1,29
 111 452 111 452 128 507.5 c 128,-1,30
 145 563 145 563 163 600.5 c 128,-1,31
 181 638 181 638 208.5 664 c 128,-1,32
 236 690 236 690 259.5 704.5 c 128,-1,33
 283 719 283 719 319.5 726.5 c 128,-1,4
 356 734 356 734 383.5 735.5 c 128,-1,5
284.5 465 m 128,-1,35
 273 424 273 424 262 354 c 128,-1,36
 251 284 251 284 251 260 c 128,-1,37
 251 236 251 236 252.5 218 c 128,-1,38
 254 200 254 200 260.5 185.5 c 128,-1,39
 267 171 267 171 281 161 c 0,40,41
 305 145 305 145 360 145 c 128,-1,42
 415 145 415 145 445 162 c 128,-1,43
 475 179 475 179 496 225.5 c 128,-1,44
 517 272 517 272 529 347 c 0,45,46
 543 435 543 435 543 472 c 128,-1,47
 543 509 543 509 539 531.5 c 128,-1,48
 535 554 535 554 519.5 566.5 c 128,-1,49
 504 579 504 579 485 583.5 c 128,-1,50
 466 588 466 588 433 588 c 128,-1,51
 400 588 400 588 380 584.5 c 128,-1,52
 360 581 360 581 340.5 568.5 c 128,-1,53
 321 556 321 556 308.5 531 c 128,-1,34
 296 506 296 506 284.5 465 c 128,-1,35
EndSplineSet
Substitution2: "'c2sc' Capitals to Small Capitals in Latin lookup 2 subtable" oacute.smcp
EndChar

StartChar: Ocircumflex
Encoding: 212 212 149
Width: 666
GlyphClass: 2
Flags: W
LayerCount: 2
Fore
SplineSet
307 797 m 1,0,-1
 433 934 l 1,1,-1
 549 934 l 1,2,-1
 621 797 l 1,3,-1
 522 797 l 1,4,-1
 484 856 l 1,5,-1
 418 797 l 1,6,-1
 307 797 l 1,0,-1
383.5 735.5 m 128,-1,8
 411 737 411 737 452.5 737 c 128,-1,9
 494 737 494 737 525 733 c 128,-1,10
 556 729 556 729 586.5 718 c 128,-1,11
 617 707 617 707 639 689 c 0,12,13
 708 629 708 629 708 485 c 0,14,15
 708 421 708 421 696.5 347.5 c 128,-1,16
 685 274 685 274 669 221.5 c 128,-1,17
 653 169 653 169 635 132.5 c 128,-1,18
 617 96 617 96 591 70.5 c 128,-1,19
 565 45 565 45 540.5 30.5 c 128,-1,20
 516 16 516 16 481 8 c 0,21,22
 426 -4 426 -4 363.5 -4 c 128,-1,23
 301 -4 301 -4 270 -0.5 c 128,-1,24
 239 3 239 3 208 13.5 c 128,-1,25
 177 24 177 24 156 42 c 0,26,27
 107 83 107 83 93 158 c 0,28,29
 87 193 87 193 87 220 c 128,-1,30
 87 247 87 247 87.5 278.5 c 128,-1,31
 88 310 88 310 99.5 381 c 128,-1,32
 111 452 111 452 128 507.5 c 128,-1,33
 145 563 145 563 163 600.5 c 128,-1,34
 181 638 181 638 208.5 664 c 128,-1,35
 236 690 236 690 259.5 704.5 c 128,-1,36
 283 719 283 719 319.5 726.5 c 128,-1,7
 356 734 356 734 383.5 735.5 c 128,-1,8
284.5 465 m 128,-1,38
 273 424 273 424 262 354 c 128,-1,39
 251 284 251 284 251 260 c 128,-1,40
 251 236 251 236 252.5 218 c 128,-1,41
 254 200 254 200 260.5 185.5 c 128,-1,42
 267 171 267 171 281 161 c 0,43,44
 305 145 305 145 360 145 c 128,-1,45
 415 145 415 145 445 162 c 128,-1,46
 475 179 475 179 496 225.5 c 128,-1,47
 517 272 517 272 529 347 c 0,48,49
 543 435 543 435 543 472 c 128,-1,50
 543 509 543 509 539 531.5 c 128,-1,51
 535 554 535 554 519.5 566.5 c 128,-1,52
 504 579 504 579 485 583.5 c 128,-1,53
 466 588 466 588 433 588 c 128,-1,54
 400 588 400 588 380 584.5 c 128,-1,55
 360 581 360 581 340.5 568.5 c 128,-1,56
 321 556 321 556 308.5 531 c 128,-1,37
 296 506 296 506 284.5 465 c 128,-1,38
EndSplineSet
Substitution2: "'c2sc' Capitals to Small Capitals in Latin lookup 2 subtable" ocircumflex.smcp
EndChar

StartChar: Otilde
Encoding: 213 213 150
Width: 666
GlyphClass: 2
Flags: W
LayerCount: 2
Fore
SplineSet
533 894 m 0,0,1
 536 894 536 894 548.5 894 c 128,-1,2
 561 894 561 894 588 905.5 c 128,-1,3
 615 917 615 917 633 933 c 1,4,-1
 648 867 l 1,5,6
 579 797 579 797 524 797 c 0,7,8
 499 797 499 797 466.5 814.5 c 128,-1,9
 434 832 434 832 411 832 c 0,10,11
 372 832 372 832 316 797 c 1,12,-1
 300 858 l 1,13,14
 370 929 370 929 433 929 c 0,15,16
 457 929 457 929 486.5 911.5 c 128,-1,17
 516 894 516 894 533 894 c 0,0,1
383.5 735.5 m 128,-1,19
 411 737 411 737 452.5 737 c 128,-1,20
 494 737 494 737 525 733 c 128,-1,21
 556 729 556 729 586.5 718 c 128,-1,22
 617 707 617 707 639 689 c 0,23,24
 708 629 708 629 708 485 c 0,25,26
 708 421 708 421 696.5 347.5 c 128,-1,27
 685 274 685 274 669 221.5 c 128,-1,28
 653 169 653 169 635 132.5 c 128,-1,29
 617 96 617 96 591 70.5 c 128,-1,30
 565 45 565 45 540.5 30.5 c 128,-1,31
 516 16 516 16 481 8 c 0,32,33
 426 -4 426 -4 363.5 -4 c 128,-1,34
 301 -4 301 -4 270 -0.5 c 128,-1,35
 239 3 239 3 208 13.5 c 128,-1,36
 177 24 177 24 156 42 c 0,37,38
 107 83 107 83 93 158 c 0,39,40
 87 193 87 193 87 220 c 128,-1,41
 87 247 87 247 87.5 278.5 c 128,-1,42
 88 310 88 310 99.5 381 c 128,-1,43
 111 452 111 452 128 507.5 c 128,-1,44
 145 563 145 563 163 600.5 c 128,-1,45
 181 638 181 638 208.5 664 c 128,-1,46
 236 690 236 690 259.5 704.5 c 128,-1,47
 283 719 283 719 319.5 726.5 c 128,-1,18
 356 734 356 734 383.5 735.5 c 128,-1,19
284.5 465 m 128,-1,49
 273 424 273 424 262 354 c 128,-1,50
 251 284 251 284 251 260 c 128,-1,51
 251 236 251 236 252.5 218 c 128,-1,52
 254 200 254 200 260.5 185.5 c 128,-1,53
 267 171 267 171 281 161 c 0,54,55
 305 145 305 145 360 145 c 128,-1,56
 415 145 415 145 445 162 c 128,-1,57
 475 179 475 179 496 225.5 c 128,-1,58
 517 272 517 272 529 347 c 0,59,60
 543 435 543 435 543 472 c 128,-1,61
 543 509 543 509 539 531.5 c 128,-1,62
 535 554 535 554 519.5 566.5 c 128,-1,63
 504 579 504 579 485 583.5 c 128,-1,64
 466 588 466 588 433 588 c 128,-1,65
 400 588 400 588 380 584.5 c 128,-1,66
 360 581 360 581 340.5 568.5 c 128,-1,67
 321 556 321 556 308.5 531 c 128,-1,48
 296 506 296 506 284.5 465 c 128,-1,49
EndSplineSet
Substitution2: "'c2sc' Capitals to Small Capitals in Latin lookup 2 subtable" otilde.smcp
EndChar

StartChar: Odieresis
Encoding: 214 214 151
Width: 666
GlyphClass: 2
Flags: W
LayerCount: 2
Fore
SplineSet
356.5 920 m 128,-1,1
 382 920 382 920 395.5 904.5 c 128,-1,2
 409 889 409 889 409 877 c 0,3,4
 409 838 409 838 385.5 817.5 c 128,-1,5
 362 797 362 797 336.5 797 c 128,-1,6
 311 797 311 797 297.5 813.5 c 128,-1,7
 284 830 284 830 284 842 c 0,8,9
 284 880 284 880 307.5 900 c 128,-1,0
 331 920 331 920 356.5 920 c 128,-1,1
611.5 920 m 128,-1,11
 637 920 637 920 650.5 904.5 c 128,-1,12
 664 889 664 889 664 877 c 0,13,14
 664 838 664 838 640.5 817.5 c 128,-1,15
 617 797 617 797 591.5 797 c 128,-1,16
 566 797 566 797 552.5 813.5 c 128,-1,17
 539 830 539 830 539 842 c 0,18,19
 539 880 539 880 562.5 900 c 128,-1,10
 586 920 586 920 611.5 920 c 128,-1,11
383.5 735.5 m 128,-1,21
 411 737 411 737 452.5 737 c 128,-1,22
 494 737 494 737 525 733 c 128,-1,23
 556 729 556 729 586.5 718 c 128,-1,24
 617 707 617 707 639 689 c 0,25,26
 708 629 708 629 708 485 c 0,27,28
 708 421 708 421 696.5 347.5 c 128,-1,29
 685 274 685 274 669 221.5 c 128,-1,30
 653 169 653 169 635 132.5 c 128,-1,31
 617 96 617 96 591 70.5 c 128,-1,32
 565 45 565 45 540.5 30.5 c 128,-1,33
 516 16 516 16 481 8 c 0,34,35
 426 -4 426 -4 363.5 -4 c 128,-1,36
 301 -4 301 -4 270 -0.5 c 128,-1,37
 239 3 239 3 208 13.5 c 128,-1,38
 177 24 177 24 156 42 c 0,39,40
 107 83 107 83 93 158 c 0,41,42
 87 193 87 193 87 220 c 128,-1,43
 87 247 87 247 87.5 278.5 c 128,-1,44
 88 310 88 310 99.5 381 c 128,-1,45
 111 452 111 452 128 507.5 c 128,-1,46
 145 563 145 563 163 600.5 c 128,-1,47
 181 638 181 638 208.5 664 c 128,-1,48
 236 690 236 690 259.5 704.5 c 128,-1,49
 283 719 283 719 319.5 726.5 c 128,-1,20
 356 734 356 734 383.5 735.5 c 128,-1,21
284.5 465 m 128,-1,51
 273 424 273 424 262 354 c 128,-1,52
 251 284 251 284 251 260 c 128,-1,53
 251 236 251 236 252.5 218 c 128,-1,54
 254 200 254 200 260.5 185.5 c 128,-1,55
 267 171 267 171 281 161 c 0,56,57
 305 145 305 145 360 145 c 128,-1,58
 415 145 415 145 445 162 c 128,-1,59
 475 179 475 179 496 225.5 c 128,-1,60
 517 272 517 272 529 347 c 0,61,62
 543 435 543 435 543 472 c 128,-1,63
 543 509 543 509 539 531.5 c 128,-1,64
 535 554 535 554 519.5 566.5 c 128,-1,65
 504 579 504 579 485 583.5 c 128,-1,66
 466 588 466 588 433 588 c 128,-1,67
 400 588 400 588 380 584.5 c 128,-1,68
 360 581 360 581 340.5 568.5 c 128,-1,69
 321 556 321 556 308.5 531 c 128,-1,50
 296 506 296 506 284.5 465 c 128,-1,51
EndSplineSet
Substitution2: "'c2sc' Capitals to Small Capitals in Latin lookup 2 subtable" odieresis.smcp
EndChar

StartChar: multiply
Encoding: 215 215 152
Width: 462
GlyphClass: 2
Flags: W
LayerCount: 2
Fore
SplineSet
78 256 m 1,0,-1
 192 356 l 1,1,-1
 110 455 l 1,2,-1
 213 546 l 1,3,-1
 296 447 l 1,4,-1
 419 551 l 1,5,-1
 498 456 l 1,6,-1
 374 350 l 1,7,-1
 458 250 l 1,8,-1
 356 166 l 1,9,-1
 275 261 l 1,10,-1
 160 158 l 1,11,-1
 78 256 l 1,0,-1
EndSplineSet
EndChar

StartChar: Oslash
Encoding: 216 216 153
Width: 666
GlyphClass: 2
Flags: W
LayerCount: 2
Fore
SplineSet
110 89 m 1,0,1
 85 140 85 140 85 221 c 128,-1,2
 85 302 85 302 96 371 c 128,-1,3
 107 440 107 440 119 486 c 128,-1,4
 131 532 131 532 144.5 566.5 c 128,-1,5
 158 601 158 601 176.5 627.5 c 128,-1,6
 195 654 195 654 212 672 c 128,-1,7
 229 690 229 690 253.5 702.5 c 128,-1,8
 278 715 278 715 297.5 721.5 c 128,-1,9
 317 728 317 728 346 732 c 0,10,11
 390 737 390 737 453 737 c 0,12,13
 579 737 579 737 632 699 c 1,14,-1
 660 732 l 1,15,-1
 740 732 l 1,16,-1
 674 655 l 1,17,18
 706 601 706 601 706 489 c 0,19,20
 706 364 706 364 674 242 c 0,21,22
 650 151 650 151 619 106 c 0,23,24
 582 53 582 53 544 33 c 0,25,26
 499 8 499 8 460 3 c 0,27,28
 405 -4 405 -4 338.5 -4 c 128,-1,29
 272 -4 272 -4 225.5 5 c 128,-1,30
 179 14 179 14 147 40 c 1,31,-1
 113 0 l 1,32,-1
 33 0 l 1,33,-1
 110 89 l 1,0,1
283 465 m 128,-1,35
 272 424 272 424 262.5 365 c 128,-1,36
 253 306 253 306 253 284.5 c 128,-1,37
 253 263 253 263 254 256 c 1,38,-1
 518 568 l 1,39,40
 496 588 496 588 432 588 c 0,41,42
 398 588 398 588 378.5 584.5 c 128,-1,43
 359 581 359 581 339 568.5 c 128,-1,44
 319 556 319 556 306.5 531 c 128,-1,34
 294 506 294 506 283 465 c 128,-1,35
362 145 m 0,45,46
 401 145 401 145 426.5 153.5 c 128,-1,47
 452 162 452 162 472 186 c 0,48,49
 509 229 509 229 530 361 c 0,50,51
 540 430 540 430 540 459 c 128,-1,52
 540 488 540 488 539 500 c 1,53,-1
 266 177 l 1,54,55
 287 145 287 145 362 145 c 0,45,46
EndSplineSet
Substitution2: "'c2sc' Capitals to Small Capitals in Latin lookup 2 subtable" oslash.smcp
EndChar

StartChar: Ugrave
Encoding: 217 217 154
Width: 653
GlyphClass: 2
Flags: W
LayerCount: 2
Fore
SplineSet
310 938 m 1,0,-1
 441 938 l 1,1,-1
 508 797 l 1,2,-1
 409 797 l 1,3,-1
 310 938 l 1,0,-1
266 316 m 2,4,5
 259 270 259 270 259 236 c 128,-1,6
 259 202 259 202 267 182 c 0,7,8
 284 144 284 144 355 144 c 128,-1,9
 426 144 426 144 455 184 c 128,-1,10
 484 224 484 224 498 316 c 2,11,-1
 564 732 l 1,12,-1
 729 732 l 1,13,-1
 667 293 l 1,14,15
 641 124 641 124 565 59 c 0,16,17
 500 4 500 4 398 -3 c 0,18,19
 371 -5 371 -5 337.5 -5 c 128,-1,20
 304 -5 304 -5 280.5 -2.5 c 128,-1,21
 257 0 257 0 231 6 c 128,-1,22
 205 12 205 12 185 23.5 c 128,-1,23
 165 35 165 35 147 52 c 0,24,25
 114 83 114 83 99 156 c 0,26,27
 93 184 93 184 93 207 c 0,28,29
 93 273 93 273 104 338 c 2,30,-1
 167 732 l 1,31,-1
 332 732 l 1,32,-1
 266 316 l 2,4,5
EndSplineSet
Substitution2: "'c2sc' Capitals to Small Capitals in Latin lookup 2 subtable" ugrave.smcp
EndChar

StartChar: Uacute
Encoding: 218 218 155
Width: 653
GlyphClass: 2
Flags: W
LayerCount: 2
Fore
SplineSet
409 797 m 1,0,-1
 516 938 l 1,1,-1
 648 938 l 1,2,-1
 508 797 l 1,3,-1
 409 797 l 1,0,-1
266 316 m 2,4,5
 259 270 259 270 259 236 c 128,-1,6
 259 202 259 202 267 182 c 0,7,8
 284 144 284 144 355 144 c 128,-1,9
 426 144 426 144 455 184 c 128,-1,10
 484 224 484 224 498 316 c 2,11,-1
 564 732 l 1,12,-1
 729 732 l 1,13,-1
 667 293 l 1,14,15
 641 124 641 124 565 59 c 0,16,17
 500 4 500 4 398 -3 c 0,18,19
 371 -5 371 -5 337.5 -5 c 128,-1,20
 304 -5 304 -5 280.5 -2.5 c 128,-1,21
 257 0 257 0 231 6 c 128,-1,22
 205 12 205 12 185 23.5 c 128,-1,23
 165 35 165 35 147 52 c 0,24,25
 114 83 114 83 99 156 c 0,26,27
 93 184 93 184 93 207 c 0,28,29
 93 273 93 273 104 338 c 2,30,-1
 167 732 l 1,31,-1
 332 732 l 1,32,-1
 266 316 l 2,4,5
EndSplineSet
Substitution2: "'c2sc' Capitals to Small Capitals in Latin lookup 2 subtable" uacute.smcp
EndChar

StartChar: Ucircumflex
Encoding: 219 219 156
Width: 653
GlyphClass: 2
Flags: W
LayerCount: 2
Fore
SplineSet
301 797 m 1,0,-1
 427 934 l 1,1,-1
 543 934 l 1,2,-1
 616 797 l 1,3,-1
 516 797 l 1,4,-1
 479 856 l 1,5,-1
 413 797 l 1,6,-1
 301 797 l 1,0,-1
266 316 m 2,7,8
 259 270 259 270 259 236 c 128,-1,9
 259 202 259 202 267 182 c 0,10,11
 284 144 284 144 355 144 c 128,-1,12
 426 144 426 144 455 184 c 128,-1,13
 484 224 484 224 498 316 c 2,14,-1
 564 732 l 1,15,-1
 729 732 l 1,16,-1
 667 293 l 1,17,18
 641 124 641 124 565 59 c 0,19,20
 500 4 500 4 398 -3 c 0,21,22
 371 -5 371 -5 337.5 -5 c 128,-1,23
 304 -5 304 -5 280.5 -2.5 c 128,-1,24
 257 0 257 0 231 6 c 128,-1,25
 205 12 205 12 185 23.5 c 128,-1,26
 165 35 165 35 147 52 c 0,27,28
 114 83 114 83 99 156 c 0,29,30
 93 184 93 184 93 207 c 0,31,32
 93 273 93 273 104 338 c 2,33,-1
 167 732 l 1,34,-1
 332 732 l 1,35,-1
 266 316 l 2,7,8
EndSplineSet
Substitution2: "'c2sc' Capitals to Small Capitals in Latin lookup 2 subtable" ucircumflex.smcp
EndChar

StartChar: Udieresis
Encoding: 220 220 157
Width: 653
GlyphClass: 2
Flags: W
LayerCount: 2
Fore
SplineSet
351.5 920 m 128,-1,1
 377 920 377 920 390.5 904.5 c 128,-1,2
 404 889 404 889 404 877 c 0,3,4
 404 838 404 838 380.5 817.5 c 128,-1,5
 357 797 357 797 331.5 797 c 128,-1,6
 306 797 306 797 292.5 813.5 c 128,-1,7
 279 830 279 830 279 842 c 0,8,9
 279 880 279 880 302.5 900 c 128,-1,0
 326 920 326 920 351.5 920 c 128,-1,1
606.5 920 m 128,-1,11
 632 920 632 920 645.5 904.5 c 128,-1,12
 659 889 659 889 659 877 c 0,13,14
 659 838 659 838 635.5 817.5 c 128,-1,15
 612 797 612 797 586.5 797 c 128,-1,16
 561 797 561 797 547.5 813.5 c 128,-1,17
 534 830 534 830 534 842 c 0,18,19
 534 880 534 880 557.5 900 c 128,-1,10
 581 920 581 920 606.5 920 c 128,-1,11
266 316 m 2,20,21
 259 270 259 270 259 236 c 128,-1,22
 259 202 259 202 267 182 c 0,23,24
 284 144 284 144 355 144 c 128,-1,25
 426 144 426 144 455 184 c 128,-1,26
 484 224 484 224 498 316 c 2,27,-1
 564 732 l 1,28,-1
 729 732 l 1,29,-1
 667 293 l 1,30,31
 641 124 641 124 565 59 c 0,32,33
 500 4 500 4 398 -3 c 0,34,35
 371 -5 371 -5 337.5 -5 c 128,-1,36
 304 -5 304 -5 280.5 -2.5 c 128,-1,37
 257 0 257 0 231 6 c 128,-1,38
 205 12 205 12 185 23.5 c 128,-1,39
 165 35 165 35 147 52 c 0,40,41
 114 83 114 83 99 156 c 0,42,43
 93 184 93 184 93 207 c 0,44,45
 93 273 93 273 104 338 c 2,46,-1
 167 732 l 1,47,-1
 332 732 l 1,48,-1
 266 316 l 2,20,21
EndSplineSet
Substitution2: "'c2sc' Capitals to Small Capitals in Latin lookup 2 subtable" udieresis.smcp
EndChar

StartChar: Yacute
Encoding: 221 221 158
Width: 666
GlyphClass: 2
Flags: W
LayerCount: 2
Fore
SplineSet
406 797 m 1,0,-1
 513 938 l 1,1,-1
 645 938 l 1,2,-1
 505 797 l 1,3,-1
 406 797 l 1,0,-1
135 732 m 1,4,-1
 313 732 l 1,5,-1
 381 394 l 1,6,-1
 569 732 l 1,7,-1
 755 732 l 1,8,-1
 437 215 l 1,9,-1
 402 0 l 1,10,-1
 238 0 l 1,11,-1
 273 215 l 1,12,-1
 135 732 l 1,4,-1
EndSplineSet
Substitution2: "'c2sc' Capitals to Small Capitals in Latin lookup 2 subtable" yacute.smcp
EndChar

StartChar: Thorn
Encoding: 222 222 159
Width: 542
GlyphClass: 2
Flags: W
LayerCount: 2
Fore
SplineSet
40 0 m 1,0,1
 40 0 40 0 156 729 c 1,2,-1
 320 729 l 1,3,-1
 298 588 l 1,4,-1
 427 588 l 2,5,6
 491 588 491 588 535 544 c 1,7,8
 574 507 574 507 574 424 c 0,9,10
 574 363 574 363 560 315 c 128,-1,11
 546 267 546 267 534 245.5 c 128,-1,12
 522 224 522 224 510 207.5 c 128,-1,13
 498 191 498 191 481.5 181 c 128,-1,14
 465 171 465 171 452 165 c 128,-1,15
 439 159 439 159 420 156 c 0,16,17
 381 150 381 150 328 150 c 128,-1,18
 275 150 275 150 232 170 c 1,19,-1
 204 0 l 1,20,-1
 40 0 l 1,0,1
320 292 m 2,21,22
 343 292 343 292 355 294 c 128,-1,23
 367 296 367 296 378 305 c 0,24,25
 395 319 395 319 404 373 c 0,26,27
 406 383 406 383 406 389.5 c 128,-1,28
 406 396 406 396 405 403.5 c 128,-1,29
 404 411 404 411 403.5 419 c 128,-1,30
 403 427 403 427 397 432 c 128,-1,31
 391 437 391 437 387 440 c 128,-1,32
 383 443 383 443 375 444 c 0,33,34
 362 446 362 446 344 446 c 2,35,-1
 275 446 l 1,36,-1
 251 292 l 1,37,-1
 320 292 l 2,21,22
EndSplineSet
Substitution2: "'c2sc' Capitals to Small Capitals in Latin lookup 2 subtable" thorn.smcp
EndChar

StartChar: germandbls
Encoding: 223 223 160
Width: 573
GlyphClass: 2
Flags: W
LayerCount: 2
Fore
SplineSet
292 765 m 128,-1,1
 344 782 344 782 403 782 c 128,-1,2
 462 782 462 782 502.5 772 c 128,-1,3
 543 762 543 762 569 744 c 0,4,5
 636 698 636 698 636 615 c 0,6,7
 636 548 636 548 594 480 c 0,8,9
 565 434 565 434 529 408 c 0,10,11
 514 397 514 397 504 391 c 0,12,13
 475 371 475 371 475 344 c 0,14,15
 475 322 475 322 516 295 c 0,16,17
 535 283 535 283 553 269 c 0,18,19
 589 240 589 240 589 191 c 0,20,21
 589 181 589 181 587 170 c 2,22,-1
 583 145 l 2,23,24
 559 -8 559 -8 386 -8 c 0,25,26
 319 -8 319 -8 250 11 c 1,27,-1
 268 124 l 1,28,29
 331 118 331 118 357 118 c 0,30,31
 414 118 414 118 422 171 c 1,32,-1
 425 185 l 2,33,34
 425 188 425 188 425 196.5 c 128,-1,35
 425 205 425 205 414.5 217 c 128,-1,36
 404 229 404 229 386.5 239 c 128,-1,37
 369 249 369 249 351 262 c 0,38,39
 317 286 317 286 317 331 c 0,40,41
 317 340 317 340 318 350 c 0,42,43
 325 397 325 397 346 423.5 c 128,-1,44
 367 450 367 450 416 484 c 1,45,46
 468 524 468 524 468 584 c 0,47,48
 468 610 468 610 453 623 c 128,-1,49
 438 636 438 636 391.5 636 c 128,-1,50
 345 636 345 636 320.5 606 c 128,-1,51
 296 576 296 576 283 498 c 2,52,-1
 204 0 l 1,53,-1
 40 0 l 1,54,-1
 130 566 l 2,55,56
 145 658 145 658 208 717 c 0,57,0
 240 748 240 748 292 765 c 128,-1,1
EndSplineSet
Substitution2: "'smcp' Lowercase to Small Capitals lookup 1 subtable" germandbls.smcp
EndChar

StartChar: agrave
Encoding: 224 224 161
Width: 544
GlyphClass: 2
Flags: W
LayerCount: 2
Fore
SplineSet
204 742 m 1,0,-1
 334 742 l 1,1,-1
 401 601 l 1,2,-1
 302 601 l 1,3,-1
 204 742 l 1,0,-1
481 527 m 128,-1,5
 548 513 548 513 583 479 c 1,6,-1
 513 2 l 1,7,-1
 385 2 l 1,8,-1
 360 54 l 1,9,10
 341 27 341 27 297.5 10.5 c 128,-1,11
 254 -6 254 -6 208 -6 c 0,12,13
 127 -6 127 -6 85 74 c 0,14,15
 61 121 61 121 61 181 c 128,-1,16
 61 241 61 241 72 295 c 128,-1,17
 83 349 83 349 97.5 385.5 c 128,-1,18
 112 422 112 422 128 446.5 c 128,-1,19
 144 471 144 471 165.5 488.5 c 128,-1,20
 187 506 187 506 205.5 516 c 128,-1,21
 224 526 224 526 250 531 c 1,22,23
 293 541 293 541 353.5 541 c 128,-1,4
 414 541 414 541 481 527 c 128,-1,5
408 407 m 1,24,25
 385 417 385 417 361.5 417 c 128,-1,26
 338 417 338 417 325.5 414.5 c 128,-1,27
 313 412 313 412 305.5 409 c 128,-1,28
 298 406 298 406 288 400.5 c 128,-1,29
 278 395 278 395 271 385.5 c 128,-1,30
 264 376 264 376 257 362 c 0,31,32
 242 335 242 335 235 285 c 0,33,34
 227 227 227 227 227 196 c 0,35,36
 227 129 227 129 278 129 c 0,37,38
 344 129 344 129 374 180 c 1,39,-1
 408 407 l 1,24,25
EndSplineSet
AlternateSubs2: "'salt' Stylistic Alternatives in Latin lookup 16 subtable" agrave.salt
Substitution2: "'smcp' Lowercase to Small Capitals lookup 1 subtable" agrave.smcp
EndChar

StartChar: aacute
Encoding: 225 225 162
Width: 544
GlyphClass: 2
Flags: W
LayerCount: 2
Fore
SplineSet
303 601 m 1,0,-1
 410 742 l 1,1,-1
 542 742 l 1,2,-1
 402 601 l 1,3,-1
 303 601 l 1,0,-1
481 527 m 128,-1,5
 548 513 548 513 583 479 c 1,6,-1
 513 2 l 1,7,-1
 385 2 l 1,8,-1
 360 54 l 1,9,10
 341 27 341 27 297.5 10.5 c 128,-1,11
 254 -6 254 -6 208 -6 c 0,12,13
 127 -6 127 -6 85 74 c 0,14,15
 61 121 61 121 61 181 c 128,-1,16
 61 241 61 241 72 295 c 128,-1,17
 83 349 83 349 97.5 385.5 c 128,-1,18
 112 422 112 422 128 446.5 c 128,-1,19
 144 471 144 471 165.5 488.5 c 128,-1,20
 187 506 187 506 205.5 516 c 128,-1,21
 224 526 224 526 250 531 c 1,22,23
 293 541 293 541 353.5 541 c 128,-1,4
 414 541 414 541 481 527 c 128,-1,5
408 407 m 1,24,25
 385 417 385 417 361.5 417 c 128,-1,26
 338 417 338 417 325.5 414.5 c 128,-1,27
 313 412 313 412 305.5 409 c 128,-1,28
 298 406 298 406 288 400.5 c 128,-1,29
 278 395 278 395 271 385.5 c 128,-1,30
 264 376 264 376 257 362 c 0,31,32
 242 335 242 335 235 285 c 0,33,34
 227 227 227 227 227 196 c 0,35,36
 227 129 227 129 278 129 c 0,37,38
 344 129 344 129 374 180 c 1,39,-1
 408 407 l 1,24,25
EndSplineSet
AlternateSubs2: "'salt' Stylistic Alternatives in Latin lookup 16 subtable" aacute.salt
Substitution2: "'smcp' Lowercase to Small Capitals lookup 1 subtable" aacute.smcp
EndChar

StartChar: acircumflex
Encoding: 226 226 163
Width: 544
GlyphClass: 2
Flags: W
LayerCount: 2
Fore
SplineSet
193 601 m 1,0,-1
 319 739 l 1,1,-1
 435 739 l 1,2,-1
 508 601 l 1,3,-1
 408 601 l 1,4,-1
 371 660 l 1,5,-1
 305 601 l 1,6,-1
 193 601 l 1,0,-1
481 527 m 128,-1,8
 548 513 548 513 583 479 c 1,9,-1
 513 2 l 1,10,-1
 385 2 l 1,11,-1
 360 54 l 1,12,13
 341 27 341 27 297.5 10.5 c 128,-1,14
 254 -6 254 -6 208 -6 c 0,15,16
 127 -6 127 -6 85 74 c 0,17,18
 61 121 61 121 61 181 c 128,-1,19
 61 241 61 241 72 295 c 128,-1,20
 83 349 83 349 97.5 385.5 c 128,-1,21
 112 422 112 422 128 446.5 c 128,-1,22
 144 471 144 471 165.5 488.5 c 128,-1,23
 187 506 187 506 205.5 516 c 128,-1,24
 224 526 224 526 250 531 c 1,25,26
 293 541 293 541 353.5 541 c 128,-1,7
 414 541 414 541 481 527 c 128,-1,8
408 407 m 1,27,28
 385 417 385 417 361.5 417 c 128,-1,29
 338 417 338 417 325.5 414.5 c 128,-1,30
 313 412 313 412 305.5 409 c 128,-1,31
 298 406 298 406 288 400.5 c 128,-1,32
 278 395 278 395 271 385.5 c 128,-1,33
 264 376 264 376 257 362 c 0,34,35
 242 335 242 335 235 285 c 0,36,37
 227 227 227 227 227 196 c 0,38,39
 227 129 227 129 278 129 c 0,40,41
 344 129 344 129 374 180 c 1,42,-1
 408 407 l 1,27,28
EndSplineSet
AlternateSubs2: "'salt' Stylistic Alternatives in Latin lookup 16 subtable" acircumflex.salt
Substitution2: "'smcp' Lowercase to Small Capitals lookup 1 subtable" acircumflex.smcp
EndChar

StartChar: atilde
Encoding: 227 227 164
Width: 544
GlyphClass: 2
Flags: W
LayerCount: 2
Fore
SplineSet
426 699 m 0,0,1
 428 699 428 699 440.5 699 c 128,-1,2
 453 699 453 699 480.5 710.5 c 128,-1,3
 508 722 508 722 526 737 c 1,4,-1
 540 671 l 1,5,6
 472 602 472 602 416 602 c 0,7,8
 392 602 392 602 359 619 c 128,-1,9
 326 636 326 636 303 636 c 0,10,11
 264 636 264 636 208 601 c 1,12,-1
 192 662 l 1,13,14
 262 733 262 733 326 733 c 0,15,16
 349 733 349 733 378.5 716 c 128,-1,17
 408 699 408 699 426 699 c 0,0,1
481 527 m 128,-1,19
 548 513 548 513 583 479 c 1,20,-1
 513 2 l 1,21,-1
 385 2 l 1,22,-1
 360 54 l 1,23,24
 341 27 341 27 297.5 10.5 c 128,-1,25
 254 -6 254 -6 208 -6 c 0,26,27
 127 -6 127 -6 85 74 c 0,28,29
 61 121 61 121 61 181 c 128,-1,30
 61 241 61 241 72 295 c 128,-1,31
 83 349 83 349 97.5 385.5 c 128,-1,32
 112 422 112 422 128 446.5 c 128,-1,33
 144 471 144 471 165.5 488.5 c 128,-1,34
 187 506 187 506 205.5 516 c 128,-1,35
 224 526 224 526 250 531 c 1,36,37
 293 541 293 541 353.5 541 c 128,-1,18
 414 541 414 541 481 527 c 128,-1,19
408 407 m 1,38,39
 385 417 385 417 361.5 417 c 128,-1,40
 338 417 338 417 325.5 414.5 c 128,-1,41
 313 412 313 412 305.5 409 c 128,-1,42
 298 406 298 406 288 400.5 c 128,-1,43
 278 395 278 395 271 385.5 c 128,-1,44
 264 376 264 376 257 362 c 0,45,46
 242 335 242 335 235 285 c 0,47,48
 227 227 227 227 227 196 c 0,49,50
 227 129 227 129 278 129 c 0,51,52
 344 129 344 129 374 180 c 1,53,-1
 408 407 l 1,38,39
EndSplineSet
AlternateSubs2: "'salt' Stylistic Alternatives in Latin lookup 16 subtable" atilde.salt
Substitution2: "'smcp' Lowercase to Small Capitals lookup 1 subtable" atilde.smcp
EndChar

StartChar: adieresis
Encoding: 228 228 165
Width: 544
GlyphClass: 2
Flags: W
LayerCount: 2
Fore
SplineSet
246.5 725 m 128,-1,1
 272 725 272 725 285.5 709 c 128,-1,2
 299 693 299 693 299 681 c 0,3,4
 299 643 299 643 275.5 622 c 128,-1,5
 252 601 252 601 231 601 c 0,6,7
 191 601 191 601 178 633 c 0,8,9
 174 643 174 643 174 651 c 0,10,11
 174 685 174 685 197.5 705 c 128,-1,0
 221 725 221 725 246.5 725 c 128,-1,1
501.5 725 m 128,-1,13
 527 725 527 725 540.5 709 c 128,-1,14
 554 693 554 693 554 681 c 0,15,16
 554 643 554 643 530.5 622 c 128,-1,17
 507 601 507 601 486 601 c 0,18,19
 446 601 446 601 433 633 c 0,20,21
 429 643 429 643 429 651 c 0,22,23
 429 685 429 685 452.5 705 c 128,-1,12
 476 725 476 725 501.5 725 c 128,-1,13
481 527 m 128,-1,25
 548 513 548 513 583 479 c 1,26,-1
 513 2 l 1,27,-1
 385 2 l 1,28,-1
 360 54 l 1,29,30
 341 27 341 27 297.5 10.5 c 128,-1,31
 254 -6 254 -6 208 -6 c 0,32,33
 127 -6 127 -6 85 74 c 0,34,35
 61 121 61 121 61 181 c 128,-1,36
 61 241 61 241 72 295 c 128,-1,37
 83 349 83 349 97.5 385.5 c 128,-1,38
 112 422 112 422 128 446.5 c 128,-1,39
 144 471 144 471 165.5 488.5 c 128,-1,40
 187 506 187 506 205.5 516 c 128,-1,41
 224 526 224 526 250 531 c 1,42,43
 293 541 293 541 353.5 541 c 128,-1,24
 414 541 414 541 481 527 c 128,-1,25
408 407 m 1,44,45
 385 417 385 417 361.5 417 c 128,-1,46
 338 417 338 417 325.5 414.5 c 128,-1,47
 313 412 313 412 305.5 409 c 128,-1,48
 298 406 298 406 288 400.5 c 128,-1,49
 278 395 278 395 271 385.5 c 128,-1,50
 264 376 264 376 257 362 c 0,51,52
 242 335 242 335 235 285 c 0,53,54
 227 227 227 227 227 196 c 0,55,56
 227 129 227 129 278 129 c 0,57,58
 344 129 344 129 374 180 c 1,59,-1
 408 407 l 1,44,45
EndSplineSet
AlternateSubs2: "'salt' Stylistic Alternatives in Latin lookup 16 subtable" adieresis.salt
Substitution2: "'smcp' Lowercase to Small Capitals lookup 1 subtable" adieresis.smcp
EndChar

StartChar: aring
Encoding: 229 229 166
Width: 544
GlyphClass: 2
Flags: W
LayerCount: 2
Fore
SplineSet
376.5 803 m 128,-1,1
 419 803 419 803 444.5 775.5 c 128,-1,2
 470 748 470 748 470 712 c 0,3,4
 470 663 470 663 437 632 c 128,-1,5
 404 601 404 601 362 601 c 128,-1,6
 320 601 320 601 293.5 628.5 c 128,-1,7
 267 656 267 656 267 692 c 0,8,9
 267 741 267 741 300.5 772 c 128,-1,0
 334 803 334 803 376.5 803 c 128,-1,1
338.5 675 m 128,-1,11
 349 664 349 664 362.5 664 c 128,-1,12
 376 664 376 664 386 669 c 0,13,14
 405 679 405 679 407 698.5 c 128,-1,15
 409 718 409 718 399 729.5 c 128,-1,16
 389 741 389 741 375.5 741 c 128,-1,17
 362 741 362 741 352 736 c 0,18,19
 332 725 332 725 330 705.5 c 128,-1,10
 328 686 328 686 338.5 675 c 128,-1,11
481 527 m 128,-1,21
 548 513 548 513 583 479 c 1,22,-1
 513 2 l 1,23,-1
 385 2 l 1,24,-1
 360 54 l 1,25,26
 341 27 341 27 297.5 10.5 c 128,-1,27
 254 -6 254 -6 208 -6 c 0,28,29
 127 -6 127 -6 85 74 c 0,30,31
 61 121 61 121 61 181 c 128,-1,32
 61 241 61 241 72 295 c 128,-1,33
 83 349 83 349 97.5 385.5 c 128,-1,34
 112 422 112 422 128 446.5 c 128,-1,35
 144 471 144 471 165.5 488.5 c 128,-1,36
 187 506 187 506 205.5 516 c 128,-1,37
 224 526 224 526 250 531 c 1,38,39
 293 541 293 541 353.5 541 c 128,-1,20
 414 541 414 541 481 527 c 128,-1,21
408 407 m 1,40,41
 385 417 385 417 361.5 417 c 128,-1,42
 338 417 338 417 325.5 414.5 c 128,-1,43
 313 412 313 412 305.5 409 c 128,-1,44
 298 406 298 406 288 400.5 c 128,-1,45
 278 395 278 395 271 385.5 c 128,-1,46
 264 376 264 376 257 362 c 0,47,48
 242 335 242 335 235 285 c 0,49,50
 227 227 227 227 227 196 c 0,51,52
 227 129 227 129 278 129 c 0,53,54
 344 129 344 129 374 180 c 1,55,-1
 408 407 l 1,40,41
EndSplineSet
AlternateSubs2: "'salt' Stylistic Alternatives in Latin lookup 16 subtable" aring.salt
Substitution2: "'smcp' Lowercase to Small Capitals lookup 1 subtable" aring.smcp
EndChar

StartChar: ae
Encoding: 230 230 167
Width: 830
GlyphClass: 2
Flags: W
LayerCount: 2
Fore
SplineSet
726 204.5 m 128,-1,1
 693 192 693 192 666.5 189.5 c 128,-1,2
 640 187 640 187 596.5 187 c 128,-1,3
 553 187 553 187 519 201 c 1,4,5
 517 186 517 186 517 166.5 c 128,-1,6
 517 147 517 147 531 133.5 c 128,-1,7
 545 120 545 120 600 120 c 0,8,9
 609 120 609 120 618 120 c 0,10,11
 698 120 698 120 797 138 c 1,12,-1
 777 22 l 1,13,14
 676 -9 676 -9 562 -9 c 0,15,16
 530 -9 530 -9 498 -7 c 0,17,18
 415 -1 415 -1 379 62 c 1,19,20
 349 25 349 25 295.5 9 c 128,-1,21
 242 -7 242 -7 191 -7 c 0,22,23
 110 -7 110 -7 68 76 c 0,24,25
 44 125 44 125 44 185 c 128,-1,26
 44 245 44 245 55 299.5 c 128,-1,27
 66 354 66 354 80 390.5 c 128,-1,28
 94 427 94 427 108.5 451 c 128,-1,29
 123 475 123 475 144 492 c 128,-1,30
 165 509 165 509 182 518 c 128,-1,31
 199 527 199 527 225 533 c 1,32,33
 267 541 267 541 345 541 c 128,-1,34
 423 541 423 541 487 515 c 1,35,36
 543 541 543 541 628 541 c 0,37,38
 717 541 717 541 780 512 c 1,39,40
 849 479 849 479 849 397 c 0,41,42
 849 342 849 342 830.5 301 c 128,-1,43
 812 260 812 260 785.5 238.5 c 128,-1,0
 759 217 759 217 726 204.5 c 128,-1,1
229.5 334 m 128,-1,45
 222 310 222 310 215.5 268 c 128,-1,46
 209 226 209 226 209 206 c 128,-1,47
 209 186 209 186 212 167 c 0,48,49
 217 128 217 128 261 128 c 0,50,51
 291 128 291 128 316 137 c 128,-1,52
 341 146 341 146 352 161 c 1,53,54
 351 175 351 175 351 209 c 128,-1,55
 351 243 351 243 363 306 c 128,-1,56
 375 369 375 369 391 407 c 1,57,58
 362 417 362 417 341.5 417 c 128,-1,59
 321 417 321 417 307.5 414 c 128,-1,60
 294 411 294 411 284.5 407.5 c 128,-1,61
 275 404 275 404 264 395 c 128,-1,62
 253 386 253 386 245 372 c 128,-1,44
 237 358 237 358 229.5 334 c 128,-1,45
532 307 m 1,63,64
 553 303 553 303 579 303 c 128,-1,65
 605 303 605 303 623.5 307 c 128,-1,66
 642 311 642 311 660 325 c 0,67,68
 683 343 683 343 683 377 c 0,69,70
 683 395 683 395 670.5 405 c 128,-1,71
 658 415 658 415 626 415 c 0,72,73
 566 415 566 415 547 368 c 0,74,75
 539 347 539 347 532 307 c 1,63,64
EndSplineSet
Substitution2: "'smcp' Lowercase to Small Capitals lookup 1 subtable" ae.smcp
EndChar

StartChar: ccedilla
Encoding: 231 231 168
Width: 491
GlyphClass: 2
Flags: W
LayerCount: 2
Fore
SplineSet
287 -6 m 2,0,-1
 212 -5 l 2,1,2
 211 -5 211 -5 210 -5 c 0,3,4
 129 -5 129 -5 90 68 c 0,5,6
 66 114 66 114 66 173.5 c 128,-1,7
 66 233 66 233 76 293 c 128,-1,8
 86 353 86 353 102.5 398.5 c 128,-1,9
 119 444 119 444 138 470.5 c 128,-1,10
 157 497 157 497 183.5 512 c 128,-1,11
 210 527 210 527 234.5 531.5 c 128,-1,12
 259 536 259 536 292 536 c 0,13,14
 449 536 449 536 538 502 c 1,15,-1
 522 404 l 1,16,17
 444 410 444 410 389 410 c 128,-1,18
 334 410 334 410 324.5 409.5 c 128,-1,19
 315 409 315 409 301 404.5 c 128,-1,20
 287 400 287 400 280.5 391.5 c 128,-1,21
 274 383 274 383 265 366 c 0,22,23
 251 340 251 340 242 286 c 0,24,25
 230 215 230 215 230 196.5 c 128,-1,26
 230 178 230 178 232 165.5 c 128,-1,27
 234 153 234 153 239 144 c 128,-1,28
 244 135 244 135 254 129 c 1,29,30
 272 121 272 121 310 121 c 0,31,32
 390 121 390 121 462 128 c 2,33,-1
 486 130 l 1,34,-1
 470 30 l 1,35,36
 421 4 421 4 378 -1 c 1,37,38
 320 -6 320 -6 287 -6 c 2,0,-1
180 -181 m 2,39,-1
 122 -181 l 1,40,-1
 132 -113 l 1,41,-1
 176 -98 l 1,42,43
 198 -89 198 -89 204 -78.5 c 128,-1,44
 210 -68 210 -68 215 -38 c 1,45,-1
 319 -38 l 1,46,47
 307 -116 307 -116 276.5 -148.5 c 128,-1,48
 246 -181 246 -181 180 -181 c 2,39,-1
EndSplineSet
Substitution2: "'smcp' Lowercase to Small Capitals lookup 1 subtable" ccedilla.smcp
EndChar

StartChar: egrave
Encoding: 232 232 169
Width: 528
GlyphClass: 2
Flags: W
LayerCount: 2
Fore
SplineSet
211 742 m 1,0,-1
 341 742 l 1,1,-1
 408 601 l 1,2,-1
 309 601 l 1,3,-1
 211 742 l 1,0,-1
438 204.5 m 128,-1,5
 405 192 405 192 378.5 189.5 c 128,-1,6
 352 187 352 187 308 187 c 128,-1,7
 264 187 264 187 231 201 c 1,8,9
 228 186 228 186 228 166.5 c 128,-1,10
 228 147 228 147 242 134 c 0,11,12
 257 120 257 120 309 120 c 0,13,14
 418 120 418 120 516 138 c 1,15,-1
 496 22 l 1,16,17
 395 -10 395 -10 278 -10 c 0,18,19
 244 -10 244 -10 210 -7 c 0,20,21
 63 2 63 2 63 189 c 0,22,23
 63 242 63 242 74 301 c 128,-1,24
 85 360 85 360 97 395 c 128,-1,25
 109 430 109 430 128.5 459.5 c 128,-1,26
 148 489 148 489 176 506 c 1,27,28
 238 541 238 541 351 541 c 0,29,30
 438 541 438 541 497 512 c 0,31,32
 561 480 561 480 561 398 c 0,33,34
 561 342 561 342 542.5 301 c 128,-1,35
 524 260 524 260 497.5 238.5 c 128,-1,4
 471 217 471 217 438 204.5 c 128,-1,5
244 307 m 1,36,37
 265 303 265 303 291 303 c 128,-1,38
 317 303 317 303 335.5 307 c 128,-1,39
 354 311 354 311 371 325 c 0,40,41
 394 343 394 343 394 377 c 0,42,43
 394 395 394 395 382 405 c 128,-1,44
 370 415 370 415 338 415 c 0,45,46
 278 415 278 415 260 368 c 0,47,48
 251 347 251 347 244 307 c 1,36,37
EndSplineSet
Substitution2: "'smcp' Lowercase to Small Capitals lookup 1 subtable" egrave.smcp
EndChar

StartChar: eacute
Encoding: 233 233 170
Width: 528
GlyphClass: 2
Flags: W
LayerCount: 2
Fore
SplineSet
309 601 m 1,0,-1
 416 742 l 1,1,-1
 549 742 l 1,2,-1
 408 601 l 1,3,-1
 309 601 l 1,0,-1
438 204.5 m 128,-1,5
 405 192 405 192 378.5 189.5 c 128,-1,6
 352 187 352 187 308 187 c 128,-1,7
 264 187 264 187 231 201 c 1,8,9
 228 186 228 186 228 166.5 c 128,-1,10
 228 147 228 147 242 134 c 0,11,12
 257 120 257 120 309 120 c 0,13,14
 418 120 418 120 516 138 c 1,15,-1
 496 22 l 1,16,17
 395 -10 395 -10 278 -10 c 0,18,19
 244 -10 244 -10 210 -7 c 0,20,21
 63 2 63 2 63 189 c 0,22,23
 63 242 63 242 74 301 c 128,-1,24
 85 360 85 360 97 395 c 128,-1,25
 109 430 109 430 128.5 459.5 c 128,-1,26
 148 489 148 489 176 506 c 1,27,28
 238 541 238 541 351 541 c 0,29,30
 438 541 438 541 497 512 c 0,31,32
 561 480 561 480 561 398 c 0,33,34
 561 342 561 342 542.5 301 c 128,-1,35
 524 260 524 260 497.5 238.5 c 128,-1,4
 471 217 471 217 438 204.5 c 128,-1,5
244 307 m 1,36,37
 265 303 265 303 291 303 c 128,-1,38
 317 303 317 303 335.5 307 c 128,-1,39
 354 311 354 311 371 325 c 0,40,41
 394 343 394 343 394 377 c 0,42,43
 394 395 394 395 382 405 c 128,-1,44
 370 415 370 415 338 415 c 0,45,46
 278 415 278 415 260 368 c 0,47,48
 251 347 251 347 244 307 c 1,36,37
EndSplineSet
Substitution2: "'smcp' Lowercase to Small Capitals lookup 1 subtable" eacute.smcp
EndChar

StartChar: ecircumflex
Encoding: 234 234 171
Width: 528
GlyphClass: 2
Flags: W
LayerCount: 2
Fore
SplineSet
202 601 m 1,0,-1
 328 738 l 1,1,-1
 444 738 l 1,2,-1
 516 601 l 1,3,-1
 417 601 l 1,4,-1
 379 660 l 1,5,-1
 313 601 l 1,6,-1
 202 601 l 1,0,-1
438 204.5 m 128,-1,8
 405 192 405 192 378.5 189.5 c 128,-1,9
 352 187 352 187 308 187 c 128,-1,10
 264 187 264 187 231 201 c 1,11,12
 228 186 228 186 228 166.5 c 128,-1,13
 228 147 228 147 242 134 c 0,14,15
 257 120 257 120 309 120 c 0,16,17
 418 120 418 120 516 138 c 1,18,-1
 496 22 l 1,19,20
 395 -10 395 -10 278 -10 c 0,21,22
 244 -10 244 -10 210 -7 c 0,23,24
 63 2 63 2 63 189 c 0,25,26
 63 242 63 242 74 301 c 128,-1,27
 85 360 85 360 97 395 c 128,-1,28
 109 430 109 430 128.5 459.5 c 128,-1,29
 148 489 148 489 176 506 c 1,30,31
 238 541 238 541 351 541 c 0,32,33
 438 541 438 541 497 512 c 0,34,35
 561 480 561 480 561 398 c 0,36,37
 561 342 561 342 542.5 301 c 128,-1,38
 524 260 524 260 497.5 238.5 c 128,-1,7
 471 217 471 217 438 204.5 c 128,-1,8
244 307 m 1,39,40
 265 303 265 303 291 303 c 128,-1,41
 317 303 317 303 335.5 307 c 128,-1,42
 354 311 354 311 371 325 c 0,43,44
 394 343 394 343 394 377 c 0,45,46
 394 395 394 395 382 405 c 128,-1,47
 370 415 370 415 338 415 c 0,48,49
 278 415 278 415 260 368 c 0,50,51
 251 347 251 347 244 307 c 1,39,40
EndSplineSet
Substitution2: "'smcp' Lowercase to Small Capitals lookup 1 subtable" ecircumflex.smcp
EndChar

StartChar: edieresis
Encoding: 235 235 172
Width: 528
GlyphClass: 2
Flags: W
LayerCount: 2
Fore
SplineSet
251.5 724 m 128,-1,1
 277 724 277 724 290.5 708.5 c 128,-1,2
 304 693 304 693 304 681 c 0,3,4
 304 642 304 642 280.5 621.5 c 128,-1,5
 257 601 257 601 236 601 c 0,6,7
 196 601 196 601 183 632 c 0,8,9
 179 642 179 642 179 650 c 0,10,11
 179 684 179 684 202.5 704 c 128,-1,0
 226 724 226 724 251.5 724 c 128,-1,1
506.5 724 m 128,-1,13
 532 724 532 724 545.5 708.5 c 128,-1,14
 559 693 559 693 559 681 c 0,15,16
 559 642 559 642 535.5 621.5 c 128,-1,17
 512 601 512 601 491 601 c 0,18,19
 451 601 451 601 438 632 c 0,20,21
 434 642 434 642 434 650 c 0,22,23
 434 684 434 684 457.5 704 c 128,-1,12
 481 724 481 724 506.5 724 c 128,-1,13
438 204.5 m 128,-1,25
 405 192 405 192 378.5 189.5 c 128,-1,26
 352 187 352 187 308 187 c 128,-1,27
 264 187 264 187 231 201 c 1,28,29
 228 186 228 186 228 166.5 c 128,-1,30
 228 147 228 147 242 134 c 0,31,32
 257 120 257 120 309 120 c 0,33,34
 418 120 418 120 516 138 c 1,35,-1
 496 22 l 1,36,37
 395 -10 395 -10 278 -10 c 0,38,39
 244 -10 244 -10 210 -7 c 0,40,41
 63 2 63 2 63 189 c 0,42,43
 63 242 63 242 74 301 c 128,-1,44
 85 360 85 360 97 395 c 128,-1,45
 109 430 109 430 128.5 459.5 c 128,-1,46
 148 489 148 489 176 506 c 1,47,48
 238 541 238 541 351 541 c 0,49,50
 438 541 438 541 497 512 c 0,51,52
 561 480 561 480 561 398 c 0,53,54
 561 342 561 342 542.5 301 c 128,-1,55
 524 260 524 260 497.5 238.5 c 128,-1,24
 471 217 471 217 438 204.5 c 128,-1,25
244 307 m 1,56,57
 265 303 265 303 291 303 c 128,-1,58
 317 303 317 303 335.5 307 c 128,-1,59
 354 311 354 311 371 325 c 0,60,61
 394 343 394 343 394 377 c 0,62,63
 394 395 394 395 382 405 c 128,-1,64
 370 415 370 415 338 415 c 0,65,66
 278 415 278 415 260 368 c 0,67,68
 251 347 251 347 244 307 c 1,56,57
EndSplineSet
Substitution2: "'smcp' Lowercase to Small Capitals lookup 1 subtable" edieresis.smcp
EndChar

StartChar: igrave
Encoding: 236 236 173
Width: 237
GlyphClass: 2
Flags: W
LayerCount: 2
Fore
SplineSet
57 739 m 1,0,-1
 187 739 l 1,1,-1
 254 598 l 1,2,-1
 155 598 l 1,3,-1
 57 739 l 1,0,-1
30 0 m 1,4,-1
 114 531 l 1,5,-1
 278 531 l 1,6,-1
 194 0 l 1,7,-1
 30 0 l 1,4,-1
EndSplineSet
Substitution2: "'smcp' Lowercase to Small Capitals lookup 1 subtable" igrave.smcp
EndChar

StartChar: iacute
Encoding: 237 237 174
Width: 237
GlyphClass: 2
Flags: W
LayerCount: 2
Fore
SplineSet
155 598 m 1,0,-1
 262 739 l 1,1,-1
 394 739 l 1,2,-1
 254 598 l 1,3,-1
 155 598 l 1,0,-1
30 0 m 1,4,-1
 114 531 l 1,5,-1
 278 531 l 1,6,-1
 194 0 l 1,7,-1
 30 0 l 1,4,-1
EndSplineSet
Substitution2: "'smcp' Lowercase to Small Capitals lookup 1 subtable" iacute.smcp
EndChar

StartChar: icircumflex
Encoding: 238 238 175
Width: 237
GlyphClass: 2
Flags: W
LayerCount: 2
Fore
SplineSet
47 598 m 1,0,-1
 173 736 l 1,1,-1
 289 736 l 1,2,-1
 362 598 l 1,3,-1
 262 598 l 1,4,-1
 225 657 l 1,5,-1
 159 598 l 1,6,-1
 47 598 l 1,0,-1
30 0 m 1,7,-1
 114 531 l 1,8,-1
 278 531 l 1,9,-1
 194 0 l 1,10,-1
 30 0 l 1,7,-1
EndSplineSet
Substitution2: "'smcp' Lowercase to Small Capitals lookup 1 subtable" icircumflex.smcp
EndChar

StartChar: idieresis
Encoding: 239 239 176
Width: 237
GlyphClass: 2
Flags: W
LayerCount: 2
Fore
SplineSet
96.5 722 m 128,-1,1
 122 722 122 722 135.5 706 c 128,-1,2
 149 690 149 690 149 678 c 0,3,4
 149 639 149 639 125.5 618.5 c 128,-1,5
 102 598 102 598 76.5 598 c 128,-1,6
 51 598 51 598 37.5 614.5 c 128,-1,7
 24 631 24 631 24 643 c 0,8,9
 24 682 24 682 47.5 702 c 128,-1,0
 71 722 71 722 96.5 722 c 128,-1,1
351.5 722 m 128,-1,11
 377 722 377 722 390.5 706 c 128,-1,12
 404 690 404 690 404 678 c 0,13,14
 404 639 404 639 380.5 618.5 c 128,-1,15
 357 598 357 598 331.5 598 c 128,-1,16
 306 598 306 598 292.5 614.5 c 128,-1,17
 279 631 279 631 279 643 c 0,18,19
 279 682 279 682 302.5 702 c 128,-1,10
 326 722 326 722 351.5 722 c 128,-1,11
30 0 m 1,20,-1
 114 531 l 1,21,-1
 278 531 l 1,22,-1
 194 0 l 1,23,-1
 30 0 l 1,20,-1
EndSplineSet
Substitution2: "'smcp' Lowercase to Small Capitals lookup 1 subtable" idieresis.smcp
EndChar

StartChar: eth
Encoding: 240 240 177
Width: 540
GlyphClass: 2
Flags: W
LayerCount: 2
Fore
SplineSet
214 0 m 2,0,1
 59 0 59 0 59 189 c 0,2,3
 59 230 59 230 67 280 c 0,4,5
 88 411 88 411 143 471 c 128,-1,6
 198 531 198 531 298 531 c 2,7,-1
 339 531 l 2,8,9
 398 531 398 531 416 524 c 1,10,11
 408 575 408 575 378 608 c 1,12,-1
 267 556 l 1,13,-1
 246 612 l 1,14,-1
 309 642 l 1,15,16
 275 651 275 651 237.5 651 c 128,-1,17
 200 651 200 651 186 650 c 1,18,-1
 208 783 l 1,19,20
 385 783 385 783 472 722 c 1,21,-1
 560 764 l 1,22,-1
 582 707 l 1,23,-1
 518 678 l 1,24,25
 574 606 574 606 574 450 c 0,26,27
 574 359 574 359 553.5 231.5 c 128,-1,28
 533 104 533 104 475.5 52 c 128,-1,29
 418 0 418 0 324 0 c 2,30,-1
 214 0 l 2,0,1
249 338 m 128,-1,32
 239 312 239 312 232 266.5 c 128,-1,33
 225 221 225 221 225 200 c 128,-1,34
 225 179 225 179 228 171 c 0,35,36
 235 150 235 150 268 150 c 0,37,38
 269 150 269 150 270 150 c 2,39,-1
 317 150 l 1,40,41
 317 150 317 150 326 150 c 128,-1,42
 335 150 335 150 345 153.5 c 128,-1,43
 355 157 355 157 364 169 c 0,44,45
 384 195 384 195 398 307 c 0,46,47
 400 325 400 325 400 339.5 c 128,-1,48
 400 354 400 354 397.5 361.5 c 128,-1,49
 395 369 395 369 389 374 c 0,50,51
 380 382 380 382 353 382 c 2,52,-1
 308 382 l 2,53,54
 285 382 285 382 272 373 c 128,-1,31
 259 364 259 364 249 338 c 128,-1,32
EndSplineSet
Substitution2: "'smcp' Lowercase to Small Capitals lookup 1 subtable" eth.smcp
EndChar

StartChar: ntilde
Encoding: 241 241 178
Width: 552
GlyphClass: 2
Flags: W
LayerCount: 2
Fore
SplineSet
443 697 m 0,0,1
 445 697 445 697 458 697 c 128,-1,2
 471 697 471 697 498 708.5 c 128,-1,3
 525 720 525 720 543 736 c 1,4,-1
 557 670 l 1,5,6
 489 600 489 600 433 600 c 0,7,8
 409 600 409 600 376 617.5 c 128,-1,9
 343 635 343 635 320 635 c 0,10,11
 281 635 281 635 226 600 c 1,12,-1
 210 660 l 1,13,14
 280 732 280 732 343 732 c 0,15,16
 367 732 367 732 396 714.5 c 128,-1,17
 425 697 425 697 443 697 c 0,0,1
413 373 m 0,18,19
 413 414 413 414 374 414 c 0,20,21
 339 414 339 414 313.5 404 c 128,-1,22
 288 394 288 394 264 372 c 1,23,-1
 204 0 l 1,24,-1
 40 0 l 1,25,-1
 124 531 l 1,26,-1
 259 531 l 1,27,-1
 280 476 l 1,28,29
 351 527 351 527 396 535 c 0,30,31
 420 540 420 540 458 540 c 128,-1,32
 496 540 496 540 526 525 c 128,-1,33
 556 510 556 510 567 484 c 0,34,35
 581 451 581 451 581 414.5 c 128,-1,36
 581 378 581 378 575 348 c 1,37,-1
 520 0 l 1,38,-1
 356 0 l 1,39,-1
 411 350 l 2,40,41
 413 363 413 363 413 373 c 0,18,19
EndSplineSet
AlternateSubs2: "'salt' Stylistic Alternatives in Latin lookup 16 subtable" ntilde.salt
Substitution2: "'smcp' Lowercase to Small Capitals lookup 1 subtable" ntilde.smcp
EndChar

StartChar: ograve
Encoding: 242 242 179
Width: 555
GlyphClass: 2
Flags: W
LayerCount: 2
Fore
SplineSet
215 739 m 1,0,-1
 346 739 l 1,1,-1
 413 598 l 1,2,-1
 314 598 l 1,3,-1
 215 739 l 1,0,-1
362 538 m 0,4,5
 496 538 496 538 542 467 c 0,6,7
 572 420 572 420 572 338 c 0,8,9
 572 294 572 294 563 236.5 c 128,-1,10
 554 179 554 179 539.5 138 c 128,-1,11
 525 97 525 97 504 68.5 c 128,-1,12
 483 40 483 40 451 24 c 0,13,14
 391 -5 391 -5 279 -5 c 0,15,16
 145 -5 145 -5 97 63 c 1,17,18
 66 109 66 109 66 190 c 0,19,20
 66 229 66 229 75 285.5 c 128,-1,21
 84 342 84 342 99.5 387 c 128,-1,22
 115 432 115 432 137 462 c 128,-1,23
 159 492 159 492 192 509 c 0,24,25
 252 538 252 538 362 538 c 0,4,5
271 385 m 128,-1,27
 253 358 253 358 241 283 c 128,-1,28
 229 208 229 208 229 191.5 c 128,-1,29
 229 175 229 175 230 164 c 128,-1,30
 231 153 231 153 235 144 c 128,-1,31
 239 135 239 135 249 130 c 0,32,33
 263 122 263 122 294 122 c 128,-1,34
 325 122 325 122 339 125 c 128,-1,35
 353 128 353 128 365.5 142.5 c 128,-1,36
 378 157 378 157 385 183 c 128,-1,37
 392 209 392 209 401 260.5 c 128,-1,38
 410 312 410 312 410 331 c 0,39,40
 410 388 410 388 394.5 400 c 128,-1,41
 379 412 379 412 334 412 c 128,-1,26
 289 412 289 412 271 385 c 128,-1,27
EndSplineSet
Substitution2: "'smcp' Lowercase to Small Capitals lookup 1 subtable" ograve.smcp
EndChar

StartChar: oacute
Encoding: 243 243 180
Width: 555
GlyphClass: 2
Flags: W
LayerCount: 2
Fore
SplineSet
318 598 m 1,0,-1
 425 739 l 1,1,-1
 558 739 l 1,2,-1
 417 598 l 1,3,-1
 318 598 l 1,0,-1
362 538 m 0,4,5
 496 538 496 538 542 467 c 0,6,7
 572 420 572 420 572 338 c 0,8,9
 572 294 572 294 563 236.5 c 128,-1,10
 554 179 554 179 539.5 138 c 128,-1,11
 525 97 525 97 504 68.5 c 128,-1,12
 483 40 483 40 451 24 c 0,13,14
 391 -5 391 -5 279 -5 c 0,15,16
 145 -5 145 -5 97 63 c 1,17,18
 66 109 66 109 66 190 c 0,19,20
 66 229 66 229 75 285.5 c 128,-1,21
 84 342 84 342 99.5 387 c 128,-1,22
 115 432 115 432 137 462 c 128,-1,23
 159 492 159 492 192 509 c 0,24,25
 252 538 252 538 362 538 c 0,4,5
271 385 m 128,-1,27
 253 358 253 358 241 283 c 128,-1,28
 229 208 229 208 229 191.5 c 128,-1,29
 229 175 229 175 230 164 c 128,-1,30
 231 153 231 153 235 144 c 128,-1,31
 239 135 239 135 249 130 c 0,32,33
 263 122 263 122 294 122 c 128,-1,34
 325 122 325 122 339 125 c 128,-1,35
 353 128 353 128 365.5 142.5 c 128,-1,36
 378 157 378 157 385 183 c 128,-1,37
 392 209 392 209 401 260.5 c 128,-1,38
 410 312 410 312 410 331 c 0,39,40
 410 388 410 388 394.5 400 c 128,-1,41
 379 412 379 412 334 412 c 128,-1,26
 289 412 289 412 271 385 c 128,-1,27
EndSplineSet
Substitution2: "'smcp' Lowercase to Small Capitals lookup 1 subtable" oacute.smcp
EndChar

StartChar: ocircumflex
Encoding: 244 244 181
Width: 555
GlyphClass: 2
Flags: W
LayerCount: 2
Fore
SplineSet
203 598 m 1,0,-1
 329 736 l 1,1,-1
 445 736 l 1,2,-1
 518 598 l 1,3,-1
 418 598 l 1,4,-1
 381 657 l 1,5,-1
 315 598 l 1,6,-1
 203 598 l 1,0,-1
362 538 m 0,7,8
 496 538 496 538 542 467 c 0,9,10
 572 420 572 420 572 338 c 0,11,12
 572 294 572 294 563 236.5 c 128,-1,13
 554 179 554 179 539.5 138 c 128,-1,14
 525 97 525 97 504 68.5 c 128,-1,15
 483 40 483 40 451 24 c 0,16,17
 391 -5 391 -5 279 -5 c 0,18,19
 145 -5 145 -5 97 63 c 1,20,21
 66 109 66 109 66 190 c 0,22,23
 66 229 66 229 75 285.5 c 128,-1,24
 84 342 84 342 99.5 387 c 128,-1,25
 115 432 115 432 137 462 c 128,-1,26
 159 492 159 492 192 509 c 0,27,28
 252 538 252 538 362 538 c 0,7,8
271 385 m 128,-1,30
 253 358 253 358 241 283 c 128,-1,31
 229 208 229 208 229 191.5 c 128,-1,32
 229 175 229 175 230 164 c 128,-1,33
 231 153 231 153 235 144 c 128,-1,34
 239 135 239 135 249 130 c 0,35,36
 263 122 263 122 294 122 c 128,-1,37
 325 122 325 122 339 125 c 128,-1,38
 353 128 353 128 365.5 142.5 c 128,-1,39
 378 157 378 157 385 183 c 128,-1,40
 392 209 392 209 401 260.5 c 128,-1,41
 410 312 410 312 410 331 c 0,42,43
 410 388 410 388 394.5 400 c 128,-1,44
 379 412 379 412 334 412 c 128,-1,29
 289 412 289 412 271 385 c 128,-1,30
EndSplineSet
Substitution2: "'smcp' Lowercase to Small Capitals lookup 1 subtable" ocircumflex.smcp
EndChar

StartChar: otilde
Encoding: 245 245 182
Width: 555
GlyphClass: 2
Flags: W
LayerCount: 2
Fore
SplineSet
434 696 m 1,0,1
 436 695 436 695 448.5 695 c 128,-1,2
 461 695 461 695 488.5 706.5 c 128,-1,3
 516 718 516 718 534 734 c 1,4,-1
 548 668 l 1,5,6
 479 598 479 598 424 598 c 0,7,8
 400 598 400 598 367 615.5 c 128,-1,9
 334 633 334 633 311 633 c 0,10,11
 272 633 272 633 216 598 c 1,12,-1
 200 659 l 1,13,14
 270 730 270 730 334 730 c 0,15,16
 357 730 357 730 386.5 713 c 128,-1,17
 416 696 416 696 434 696 c 1,0,1
362 538 m 0,18,19
 496 538 496 538 542 467 c 0,20,21
 572 420 572 420 572 338 c 0,22,23
 572 294 572 294 563 236.5 c 128,-1,24
 554 179 554 179 539.5 138 c 128,-1,25
 525 97 525 97 504 68.5 c 128,-1,26
 483 40 483 40 451 24 c 0,27,28
 391 -5 391 -5 279 -5 c 0,29,30
 145 -5 145 -5 97 63 c 1,31,32
 66 109 66 109 66 190 c 0,33,34
 66 229 66 229 75 285.5 c 128,-1,35
 84 342 84 342 99.5 387 c 128,-1,36
 115 432 115 432 137 462 c 128,-1,37
 159 492 159 492 192 509 c 0,38,39
 252 538 252 538 362 538 c 0,18,19
271 385 m 128,-1,41
 253 358 253 358 241 283 c 128,-1,42
 229 208 229 208 229 191.5 c 128,-1,43
 229 175 229 175 230 164 c 128,-1,44
 231 153 231 153 235 144 c 128,-1,45
 239 135 239 135 249 130 c 0,46,47
 263 122 263 122 294 122 c 128,-1,48
 325 122 325 122 339 125 c 128,-1,49
 353 128 353 128 365.5 142.5 c 128,-1,50
 378 157 378 157 385 183 c 128,-1,51
 392 209 392 209 401 260.5 c 128,-1,52
 410 312 410 312 410 331 c 0,53,54
 410 388 410 388 394.5 400 c 128,-1,55
 379 412 379 412 334 412 c 128,-1,40
 289 412 289 412 271 385 c 128,-1,41
EndSplineSet
Substitution2: "'smcp' Lowercase to Small Capitals lookup 1 subtable" otilde.smcp
EndChar

StartChar: odieresis
Encoding: 246 246 183
Width: 555
GlyphClass: 2
Flags: W
LayerCount: 2
Fore
SplineSet
258.5 722 m 128,-1,1
 284 722 284 722 297.5 706 c 128,-1,2
 311 690 311 690 311 678 c 0,3,4
 311 639 311 639 287.5 618.5 c 128,-1,5
 264 598 264 598 238.5 598 c 128,-1,6
 213 598 213 598 199.5 614.5 c 128,-1,7
 186 631 186 631 186 643 c 0,8,9
 186 682 186 682 209.5 702 c 128,-1,0
 233 722 233 722 258.5 722 c 128,-1,1
513.5 722 m 128,-1,11
 539 722 539 722 552.5 706 c 128,-1,12
 566 690 566 690 566 678 c 0,13,14
 566 639 566 639 542.5 618.5 c 128,-1,15
 519 598 519 598 493.5 598 c 128,-1,16
 468 598 468 598 454.5 614.5 c 128,-1,17
 441 631 441 631 441 643 c 0,18,19
 441 682 441 682 464.5 702 c 128,-1,10
 488 722 488 722 513.5 722 c 128,-1,11
362 538 m 0,20,21
 496 538 496 538 542 467 c 0,22,23
 572 420 572 420 572 338 c 0,24,25
 572 294 572 294 563 236.5 c 128,-1,26
 554 179 554 179 539.5 138 c 128,-1,27
 525 97 525 97 504 68.5 c 128,-1,28
 483 40 483 40 451 24 c 0,29,30
 391 -5 391 -5 279 -5 c 0,31,32
 145 -5 145 -5 97 63 c 1,33,34
 66 109 66 109 66 190 c 0,35,36
 66 229 66 229 75 285.5 c 128,-1,37
 84 342 84 342 99.5 387 c 128,-1,38
 115 432 115 432 137 462 c 128,-1,39
 159 492 159 492 192 509 c 0,40,41
 252 538 252 538 362 538 c 0,20,21
271 385 m 128,-1,43
 253 358 253 358 241 283 c 128,-1,44
 229 208 229 208 229 191.5 c 128,-1,45
 229 175 229 175 230 164 c 128,-1,46
 231 153 231 153 235 144 c 128,-1,47
 239 135 239 135 249 130 c 0,48,49
 263 122 263 122 294 122 c 128,-1,50
 325 122 325 122 339 125 c 128,-1,51
 353 128 353 128 365.5 142.5 c 128,-1,52
 378 157 378 157 385 183 c 128,-1,53
 392 209 392 209 401 260.5 c 128,-1,54
 410 312 410 312 410 331 c 0,55,56
 410 388 410 388 394.5 400 c 128,-1,57
 379 412 379 412 334 412 c 128,-1,42
 289 412 289 412 271 385 c 128,-1,43
EndSplineSet
Substitution2: "'smcp' Lowercase to Small Capitals lookup 1 subtable" odieresis.smcp
EndChar

StartChar: divide
Encoding: 247 247 184
Width: 490
GlyphClass: 2
Flags: W
LayerCount: 2
Fore
SplineSet
78 286 m 1,0,-1
 99 420 l 1,1,-1
 524 420 l 1,2,-1
 502 286 l 1,3,-1
 78 286 l 1,0,-1
239 244 m 2,4,-1
 322 244 l 2,5,6
 343 244 343 244 343 226 c 0,7,8
 343 223 343 223 342 220 c 2,9,-1
 330 148 l 2,10,11
 326 125 326 125 302 125 c 2,12,-1
 220 125 l 2,13,14
 210 125 210 125 204 131.5 c 128,-1,15
 198 138 198 138 199 148 c 2,16,-1
 211 220 l 2,17,18
 215 244 215 244 239 244 c 2,4,-1
292 576 m 2,20,-1
 374 576 l 2,21,22
 395 576 395 576 395 558 c 0,23,24
 395 555 395 555 394 552 c 2,25,-1
 383 480 l 2,26,27
 380 457 380 457 355 457 c 2,28,-1
 272 457 l 2,29,30
 262 457 262 457 256.5 463.5 c 128,-1,31
 251 470 251 470 252 480 c 2,32,-1
 264 552 l 2,33,19
 267 576 267 576 292 576 c 2,20,-1
EndSplineSet
EndChar

StartChar: oslash
Encoding: 248 248 185
Width: 556
GlyphClass: 2
Flags: W
LayerCount: 2
Fore
SplineSet
87 70 m 1,0,1
 66 109 66 109 66 164.5 c 128,-1,2
 66 220 66 220 76.5 288.5 c 128,-1,3
 87 357 87 357 107.5 407.5 c 128,-1,4
 128 458 128 458 164 487 c 128,-1,5
 200 516 200 516 245.5 526 c 128,-1,6
 291 536 291 536 377 536 c 128,-1,7
 463 536 463 536 512 505 c 1,8,-1
 538 531 l 1,9,-1
 618 531 l 1,10,-1
 552 462 l 1,11,12
 575 422 575 422 575 361.5 c 128,-1,13
 575 301 575 301 564 233 c 128,-1,14
 553 165 553 165 534 118.5 c 128,-1,15
 515 72 515 72 480.5 44 c 128,-1,16
 446 16 446 16 399.5 5.5 c 128,-1,17
 353 -5 353 -5 265 -5 c 128,-1,18
 177 -5 177 -5 126 28 c 1,19,-1
 98 0 l 1,20,-1
 19 0 l 1,21,-1
 87 70 l 1,0,1
287 398.5 m 128,-1,23
 271 387 271 387 264 368 c 0,24,25
 251 334 251 334 243.5 288.5 c 128,-1,26
 236 243 236 243 236 234 c 128,-1,27
 236 225 236 225 238 221 c 1,28,-1
 400 391 l 1,29,30
 389 410 389 410 346 410 c 128,-1,22
 303 410 303 410 287 398.5 c 128,-1,23
259.5 126 m 128,-1,32
 273 122 273 122 299.5 122 c 128,-1,33
 326 122 326 122 340 125 c 128,-1,34
 354 128 354 128 366.5 142.5 c 128,-1,35
 379 157 379 157 385.5 182.5 c 128,-1,36
 392 208 392 208 398.5 245.5 c 128,-1,37
 405 283 405 283 405 295.5 c 128,-1,38
 405 308 405 308 404 314 c 1,39,-1
 239 142 l 1,40,31
 246 130 246 130 259.5 126 c 128,-1,32
EndSplineSet
Substitution2: "'smcp' Lowercase to Small Capitals lookup 1 subtable" oslash.smcp
EndChar

StartChar: ugrave
Encoding: 249 249 186
Width: 551
GlyphClass: 2
Flags: W
LayerCount: 2
Fore
SplineSet
219 739 m 1,0,-1
 350 739 l 1,1,-1
 417 598 l 1,2,-1
 318 598 l 1,3,-1
 219 739 l 1,0,-1
226 180 m 2,4,5
 224 167 224 167 224 153.5 c 128,-1,6
 224 140 224 140 231.5 129 c 128,-1,7
 239 118 239 118 269 118 c 0,8,9
 327 118 327 118 374 160 c 1,10,-1
 432 531 l 1,11,-1
 596 531 l 1,12,-1
 512 0 l 1,13,-1
 377 0 l 1,14,-1
 357 54 l 1,15,16
 315 21 315 21 279.5 6 c 128,-1,17
 244 -9 244 -9 192.5 -9 c 128,-1,18
 141 -9 141 -9 111.5 6 c 128,-1,19
 82 21 82 21 70 47 c 0,20,21
 56 79 56 79 56 115.5 c 128,-1,22
 56 152 56 152 62 184 c 2,23,-1
 118 531 l 1,24,-1
 282 531 l 1,25,-1
 226 180 l 2,4,5
EndSplineSet
AlternateSubs2: "'salt' Stylistic Alternatives in Latin lookup 16 subtable" ugrave.salt
Substitution2: "'smcp' Lowercase to Small Capitals lookup 1 subtable" ugrave.smcp
EndChar

StartChar: uacute
Encoding: 250 250 187
Width: 551
GlyphClass: 2
Flags: W
LayerCount: 2
Fore
SplineSet
318 598 m 1,0,-1
 425 739 l 1,1,-1
 557 739 l 1,2,-1
 417 598 l 1,3,-1
 318 598 l 1,0,-1
226 180 m 2,4,5
 224 167 224 167 224 153.5 c 128,-1,6
 224 140 224 140 231.5 129 c 128,-1,7
 239 118 239 118 269 118 c 0,8,9
 327 118 327 118 374 160 c 1,10,-1
 432 531 l 1,11,-1
 596 531 l 1,12,-1
 512 0 l 1,13,-1
 377 0 l 1,14,-1
 357 54 l 1,15,16
 315 21 315 21 279.5 6 c 128,-1,17
 244 -9 244 -9 192.5 -9 c 128,-1,18
 141 -9 141 -9 111.5 6 c 128,-1,19
 82 21 82 21 70 47 c 0,20,21
 56 79 56 79 56 115.5 c 128,-1,22
 56 152 56 152 62 184 c 2,23,-1
 118 531 l 1,24,-1
 282 531 l 1,25,-1
 226 180 l 2,4,5
EndSplineSet
AlternateSubs2: "'salt' Stylistic Alternatives in Latin lookup 16 subtable" uacute.salt
Substitution2: "'smcp' Lowercase to Small Capitals lookup 1 subtable" uacute.smcp
EndChar

StartChar: ucircumflex
Encoding: 251 251 188
Width: 551
GlyphClass: 2
Flags: W
LayerCount: 2
Fore
SplineSet
211 598 m 1,0,-1
 337 736 l 1,1,-1
 453 736 l 1,2,-1
 525 598 l 1,3,-1
 426 598 l 1,4,-1
 388 657 l 1,5,-1
 322 598 l 1,6,-1
 211 598 l 1,0,-1
226 180 m 2,7,8
 224 167 224 167 224 153.5 c 128,-1,9
 224 140 224 140 231.5 129 c 128,-1,10
 239 118 239 118 269 118 c 0,11,12
 327 118 327 118 374 160 c 1,13,-1
 432 531 l 1,14,-1
 596 531 l 1,15,-1
 512 0 l 1,16,-1
 377 0 l 1,17,-1
 357 54 l 1,18,19
 315 21 315 21 279.5 6 c 128,-1,20
 244 -9 244 -9 192.5 -9 c 128,-1,21
 141 -9 141 -9 111.5 6 c 128,-1,22
 82 21 82 21 70 47 c 0,23,24
 56 79 56 79 56 115.5 c 128,-1,25
 56 152 56 152 62 184 c 2,26,-1
 118 531 l 1,27,-1
 282 531 l 1,28,-1
 226 180 l 2,7,8
EndSplineSet
AlternateSubs2: "'salt' Stylistic Alternatives in Latin lookup 16 subtable" ucircumflex.salt
Substitution2: "'smcp' Lowercase to Small Capitals lookup 1 subtable" ucircumflex.smcp
EndChar

StartChar: udieresis
Encoding: 252 252 189
Width: 551
GlyphClass: 2
Flags: W
LayerCount: 2
Fore
SplineSet
259.5 722 m 128,-1,1
 285 722 285 722 299 706 c 128,-1,2
 313 690 313 690 313 678 c 0,3,4
 313 639 313 639 289.5 618.5 c 128,-1,5
 266 598 266 598 240.5 598 c 128,-1,6
 215 598 215 598 201 614.5 c 128,-1,7
 187 631 187 631 187 643 c 0,8,9
 187 682 187 682 210.5 702 c 128,-1,0
 234 722 234 722 259.5 722 c 128,-1,1
514.5 722 m 128,-1,11
 540 722 540 722 554 706 c 128,-1,12
 568 690 568 690 568 678 c 0,13,14
 568 639 568 639 544.5 618.5 c 128,-1,15
 521 598 521 598 495.5 598 c 128,-1,16
 470 598 470 598 456 614.5 c 128,-1,17
 442 631 442 631 442 643 c 0,18,19
 442 682 442 682 465.5 702 c 128,-1,10
 489 722 489 722 514.5 722 c 128,-1,11
226 180 m 2,20,21
 224 167 224 167 224 153.5 c 128,-1,22
 224 140 224 140 231.5 129 c 128,-1,23
 239 118 239 118 269 118 c 0,24,25
 327 118 327 118 374 160 c 1,26,-1
 432 531 l 1,27,-1
 596 531 l 1,28,-1
 512 0 l 1,29,-1
 377 0 l 1,30,-1
 357 54 l 1,31,32
 315 21 315 21 279.5 6 c 128,-1,33
 244 -9 244 -9 192.5 -9 c 128,-1,34
 141 -9 141 -9 111.5 6 c 128,-1,35
 82 21 82 21 70 47 c 0,36,37
 56 79 56 79 56 115.5 c 128,-1,38
 56 152 56 152 62 184 c 2,39,-1
 118 531 l 1,40,-1
 282 531 l 1,41,-1
 226 180 l 2,20,21
EndSplineSet
AlternateSubs2: "'salt' Stylistic Alternatives in Latin lookup 16 subtable" udieresis.salt
Substitution2: "'smcp' Lowercase to Small Capitals lookup 1 subtable" udieresis.smcp
EndChar

StartChar: yacute
Encoding: 253 253 190
Width: 568
GlyphClass: 2
Flags: W
LayerCount: 2
Fore
SplineSet
314 595 m 1,0,-1
 421 735 l 1,1,-1
 554 735 l 1,2,-1
 413 595 l 1,3,-1
 314 595 l 1,0,-1
614 491 m 0,4,5
 614 428 614 428 581 352 c 2,6,-1
 428 0 l 2,7,8
 362 -151 362 -151 269 -221 c 0,9,10
 215 -261 215 -261 177 -274 c 1,11,12
 131 -288 131 -288 90 -295 c 1,13,-1
 90 -180 l 1,14,15
 154 -148 154 -148 193.5 -104.5 c 128,-1,16
 233 -61 233 -61 264 0 c 1,17,18
 127 0 127 0 114 144 c 2,19,-1
 80 531 l 1,20,-1
 250 531 l 1,21,-1
 272 175 l 2,22,23
 275 139 275 139 317 136 c 1,24,-1
 430 409 l 2,25,26
 449 457 449 457 456 532 c 1,27,-1
 610 532 l 1,28,29
 614 512 614 512 614 491 c 0,4,5
EndSplineSet
Substitution2: "'smcp' Lowercase to Small Capitals lookup 1 subtable" yacute.smcp
EndChar

StartChar: thorn
Encoding: 254 254 191
Width: 556
GlyphClass: 2
Flags: W
LayerCount: 2
Fore
SplineSet
286 474 m 1,0,1
 366 532 366 532 447.5 532 c 128,-1,2
 529 532 529 532 561 455 c 0,3,4
 581 408 581 408 581 352.5 c 128,-1,5
 581 297 581 297 573.5 250 c 128,-1,6
 566 203 566 203 558.5 172 c 128,-1,7
 551 141 551 141 539.5 110 c 128,-1,8
 528 79 528 79 512 58 c 128,-1,9
 496 37 496 37 475 20 c 0,10,11
 432 -14 432 -14 352 -14 c 128,-1,12
 272 -14 272 -14 215 22 c 1,13,-1
 168 -270 l 1,14,-1
 4 -270 l 1,15,-1
 172 782 l 1,16,-1
 336 782 l 1,17,-1
 286 474 l 1,0,1
384.5 161.5 m 128,-1,19
 398 195 398 195 405.5 248.5 c 128,-1,20
 413 302 413 302 413 329 c 128,-1,21
 413 356 413 356 409 369 c 0,22,23
 401 397 401 397 373 397 c 0,24,25
 310 397 310 397 269 367 c 1,26,-1
 232 126 l 1,27,28
 261 110 261 110 324 109 c 0,29,30
 344 109 344 109 357.5 118.5 c 128,-1,18
 371 128 371 128 384.5 161.5 c 128,-1,19
EndSplineSet
Substitution2: "'smcp' Lowercase to Small Capitals lookup 1 subtable" thorn.smcp
EndChar

StartChar: ydieresis
Encoding: 255 255 192
Width: 568
GlyphClass: 2
Flags: W
LayerCount: 2
Fore
SplineSet
258.5 703 m 128,-1,1
 284 703 284 703 297.5 687 c 128,-1,2
 311 671 311 671 311 659 c 0,3,4
 311 621 311 621 287.5 600.5 c 128,-1,5
 264 580 264 580 243 580 c 0,6,7
 203 580 203 580 190 611 c 0,8,9
 186 621 186 621 186 629 c 0,10,11
 186 663 186 663 209.5 683 c 128,-1,0
 233 703 233 703 258.5 703 c 128,-1,1
513.5 703 m 128,-1,13
 539 703 539 703 552.5 687 c 128,-1,14
 566 671 566 671 566 659 c 0,15,16
 566 621 566 621 542.5 600.5 c 128,-1,17
 519 580 519 580 498 580 c 0,18,19
 458 580 458 580 445 611 c 0,20,21
 441 621 441 621 441 629 c 0,22,23
 441 663 441 663 464.5 683 c 128,-1,12
 488 703 488 703 513.5 703 c 128,-1,13
614 491 m 0,24,25
 614 428 614 428 581 352 c 2,26,-1
 428 0 l 2,27,28
 362 -151 362 -151 269 -221 c 0,29,30
 215 -261 215 -261 177 -274 c 1,31,32
 131 -288 131 -288 90 -295 c 1,33,-1
 90 -180 l 1,34,35
 154 -148 154 -148 193.5 -104.5 c 128,-1,36
 233 -61 233 -61 264 0 c 1,37,38
 127 0 127 0 114 144 c 2,39,-1
 80 531 l 1,40,-1
 250 531 l 1,41,-1
 272 175 l 2,42,43
 275 139 275 139 317 136 c 1,44,-1
 430 409 l 2,45,46
 449 457 449 457 456 532 c 1,47,-1
 610 532 l 1,48,49
 614 512 614 512 614 491 c 0,24,25
EndSplineSet
Substitution2: "'smcp' Lowercase to Small Capitals lookup 1 subtable" ydieresis.smcp
EndChar

StartChar: Amacron
Encoding: 256 256 193
Width: 698
GlyphClass: 2
Flags: W
LayerCount: 2
Fore
SplineSet
345 797 m 1,0,-1
 358 882 l 1,1,-1
 650 882 l 1,2,-1
 637 797 l 1,3,-1
 345 797 l 1,0,-1
30 0 m 1,4,-1
 385 732 l 1,5,-1
 575 732 l 1,6,-1
 690 0 l 1,7,-1
 522 0 l 1,8,-1
 496 147 l 1,9,-1
 281 147 l 1,10,-1
 212 0 l 1,11,-1
 30 0 l 1,4,-1
344 289 m 1,12,-1
 483 289 l 1,13,-1
 450 524 l 1,14,-1
 344 289 l 1,12,-1
EndSplineSet
Substitution2: "'c2sc' Capitals to Small Capitals in Latin lookup 2 subtable" amacron.smcp
EndChar

StartChar: amacron
Encoding: 257 257 194
Width: 544
GlyphClass: 2
Flags: W
LayerCount: 2
Fore
SplineSet
205 601 m 1,0,-1
 218 687 l 1,1,-1
 510 687 l 1,2,-1
 497 601 l 1,3,-1
 205 601 l 1,0,-1
481 527 m 128,-1,5
 548 513 548 513 583 479 c 1,6,-1
 513 2 l 1,7,-1
 385 2 l 1,8,-1
 360 54 l 1,9,10
 341 27 341 27 297.5 10.5 c 128,-1,11
 254 -6 254 -6 208 -6 c 0,12,13
 127 -6 127 -6 85 74 c 0,14,15
 61 121 61 121 61 181 c 128,-1,16
 61 241 61 241 72 295 c 128,-1,17
 83 349 83 349 97.5 385.5 c 128,-1,18
 112 422 112 422 128 446.5 c 128,-1,19
 144 471 144 471 165.5 488.5 c 128,-1,20
 187 506 187 506 205.5 516 c 128,-1,21
 224 526 224 526 250 531 c 1,22,23
 293 541 293 541 353.5 541 c 128,-1,4
 414 541 414 541 481 527 c 128,-1,5
408 407 m 1,24,25
 385 417 385 417 361.5 417 c 128,-1,26
 338 417 338 417 325.5 414.5 c 128,-1,27
 313 412 313 412 305.5 409 c 128,-1,28
 298 406 298 406 288 400.5 c 128,-1,29
 278 395 278 395 271 385.5 c 128,-1,30
 264 376 264 376 257 362 c 0,31,32
 242 335 242 335 235 285 c 0,33,34
 227 227 227 227 227 196 c 0,35,36
 227 129 227 129 278 129 c 0,37,38
 344 129 344 129 374 180 c 1,39,-1
 408 407 l 1,24,25
EndSplineSet
AlternateSubs2: "'salt' Stylistic Alternatives in Latin lookup 16 subtable" amacron.salt
Substitution2: "'smcp' Lowercase to Small Capitals lookup 1 subtable" amacron.smcp
EndChar

StartChar: Abreve
Encoding: 258 258 195
Width: 698
GlyphClass: 2
Flags: W
LayerCount: 2
Fore
SplineSet
456 910 m 1,0,1
 455 905 455 905 455 893.5 c 128,-1,2
 455 882 455 882 466 869.5 c 128,-1,3
 477 857 477 857 501 857 c 2,4,5
 501 857 501 857 502 857 c 0,6,7
 556 857 556 857 562 910 c 1,8,-1
 623 910 l 1,9,10
 616 837 616 837 562 810 c 0,11,12
 535 797 535 797 492.5 797 c 128,-1,13
 450 797 450 797 421.5 826 c 128,-1,14
 393 855 393 855 393 897 c 0,15,16
 393 903 393 903 394 910 c 1,17,-1
 456 910 l 1,0,1
30 0 m 1,18,-1
 385 732 l 1,19,-1
 575 732 l 1,20,-1
 690 0 l 1,21,-1
 522 0 l 1,22,-1
 496 147 l 1,23,-1
 281 147 l 1,24,-1
 212 0 l 1,25,-1
 30 0 l 1,18,-1
344 289 m 1,26,-1
 483 289 l 1,27,-1
 450 524 l 1,28,-1
 344 289 l 1,26,-1
EndSplineSet
Substitution2: "'c2sc' Capitals to Small Capitals in Latin lookup 2 subtable" abreve.smcp
EndChar

StartChar: abreve
Encoding: 259 259 196
Width: 544
GlyphClass: 2
Flags: W
LayerCount: 2
Fore
SplineSet
323 715 m 1,0,1
 322 711 322 711 322 699.5 c 128,-1,2
 322 688 322 688 333 675.5 c 128,-1,3
 344 663 344 663 368 663 c 0,4,5
 369 663 369 663 369 663 c 2,6,7
 423 663 423 663 429 715 c 1,8,-1
 490 715 l 1,9,10
 485 662 485 662 452.5 632.5 c 128,-1,11
 420 603 420 603 368.5 603 c 128,-1,12
 317 603 317 603 289 632 c 128,-1,13
 261 661 261 661 261 703 c 0,14,15
 261 709 261 709 261 715 c 1,16,-1
 323 715 l 1,0,1
481 527 m 128,-1,18
 548 513 548 513 583 479 c 1,19,-1
 513 2 l 1,20,-1
 385 2 l 1,21,-1
 360 54 l 1,22,23
 341 27 341 27 297.5 10.5 c 128,-1,24
 254 -6 254 -6 208 -6 c 0,25,26
 127 -6 127 -6 85 74 c 0,27,28
 61 121 61 121 61 181 c 128,-1,29
 61 241 61 241 72 295 c 128,-1,30
 83 349 83 349 97.5 385.5 c 128,-1,31
 112 422 112 422 128 446.5 c 128,-1,32
 144 471 144 471 165.5 488.5 c 128,-1,33
 187 506 187 506 205.5 516 c 128,-1,34
 224 526 224 526 250 531 c 1,35,36
 293 541 293 541 353.5 541 c 128,-1,17
 414 541 414 541 481 527 c 128,-1,18
408 407 m 1,37,38
 385 417 385 417 361.5 417 c 128,-1,39
 338 417 338 417 325.5 414.5 c 128,-1,40
 313 412 313 412 305.5 409 c 128,-1,41
 298 406 298 406 288 400.5 c 128,-1,42
 278 395 278 395 271 385.5 c 128,-1,43
 264 376 264 376 257 362 c 0,44,45
 242 335 242 335 235 285 c 0,46,47
 227 227 227 227 227 196 c 0,48,49
 227 129 227 129 278 129 c 0,50,51
 344 129 344 129 374 180 c 1,52,-1
 408 407 l 1,37,38
EndSplineSet
Substitution2: "'smcp' Lowercase to Small Capitals lookup 1 subtable" abreve.smcp
EndChar

StartChar: Aogonek
Encoding: 260 260 197
Width: 722
GlyphClass: 2
Flags: W
LayerCount: 2
Fore
SplineSet
612 -68 m 0,0,1
 612 -74 612 -74 614 -79 c 0,2,3
 622 -110 622 -110 660 -105 c 1,4,-1
 648 -188 l 1,5,6
 633 -192 633 -192 618 -192 c 128,-1,7
 603 -192 603 -192 580.5 -184.5 c 128,-1,8
 558 -177 558 -177 543 -155 c 1,9,10
 523 -128 523 -128 523 -102 c 128,-1,11
 523 -76 523 -76 542.5 -48 c 128,-1,12
 562 -20 562 -20 605 1 c 1,13,-1
 667 1 l 1,14,15
 612 -35 612 -35 612 -68 c 0,0,1
56 0 m 1,16,-1
 410 732 l 1,17,-1
 601 732 l 1,18,-1
 716 0 l 1,19,-1
 548 0 l 1,20,-1
 522 147 l 1,21,-1
 307 147 l 1,22,-1
 237 0 l 1,23,-1
 56 0 l 1,16,-1
369 289 m 1,24,-1
 509 289 l 1,25,-1
 476 524 l 1,26,-1
 369 289 l 1,24,-1
EndSplineSet
Substitution2: "'c2sc' Capitals to Small Capitals in Latin lookup 2 subtable" aogonek.smcp
EndChar

StartChar: aogonek
Encoding: 261 261 198
Width: 523
GlyphClass: 2
Flags: W
LayerCount: 2
Fore
SplineSet
417 -68 m 0,0,1
 417 -74 417 -74 418 -79 c 0,2,3
 426 -110 426 -110 465 -105 c 1,4,-1
 452 -188 l 1,5,6
 437 -192 437 -192 422 -192 c 128,-1,7
 407 -192 407 -192 385 -184.5 c 128,-1,8
 363 -177 363 -177 347 -155 c 0,9,10
 328 -128 328 -128 328 -102 c 128,-1,11
 328 -76 328 -76 347.5 -48 c 128,-1,12
 367 -20 367 -20 410 1 c 1,13,-1
 472 1 l 1,14,15
 417 -35 417 -35 417 -68 c 0,0,1
475.5 527 m 128,-1,17
 542 513 542 513 577 479 c 1,18,-1
 507 2 l 1,19,-1
 379 2 l 1,20,-1
 354 54 l 1,21,22
 336 27 336 27 292.5 10.5 c 128,-1,23
 249 -6 249 -6 202 -6 c 0,24,25
 121 -6 121 -6 80 74 c 0,26,27
 56 121 56 121 56 181 c 128,-1,28
 56 241 56 241 68.5 304 c 128,-1,29
 81 367 81 367 104 412.5 c 128,-1,30
 127 458 127 458 151 482 c 128,-1,31
 175 506 175 506 210 519.5 c 128,-1,32
 245 533 245 533 270 537 c 1,33,34
 304 541 304 541 356.5 541 c 128,-1,16
 409 541 409 541 475.5 527 c 128,-1,17
402 407 m 1,35,36
 380 417 380 417 356 417 c 128,-1,37
 332 417 332 417 320 414.5 c 128,-1,38
 308 412 308 412 300.5 409 c 128,-1,39
 293 406 293 406 283 400.5 c 128,-1,40
 273 395 273 395 266 385.5 c 128,-1,41
 259 376 259 376 251 362 c 0,42,43
 237 335 237 335 230 285 c 0,44,45
 221 227 221 227 221 196 c 0,46,47
 221 129 221 129 272 129 c 0,48,49
 338 129 338 129 369 180 c 1,50,-1
 402 407 l 1,35,36
EndSplineSet
AlternateSubs2: "'salt' Stylistic Alternatives in Latin lookup 16 subtable" aogonek.salt
Substitution2: "'smcp' Lowercase to Small Capitals lookup 1 subtable" aogonek.smcp
EndChar

StartChar: Cacute
Encoding: 262 262 199
Width: 569
GlyphClass: 2
Flags: W
LayerCount: 2
Fore
SplineSet
406 800 m 1,0,-1
 513 940 l 1,1,-1
 646 940 l 1,2,-1
 505 800 l 1,3,-1
 406 800 l 1,0,-1
277 719 m 128,-1,5
 330 740 330 740 411 740 c 128,-1,6
 492 740 492 740 544.5 732 c 128,-1,7
 597 724 597 724 658 702 c 1,8,-1
 637 574 l 1,9,10
 500 591 500 591 429 591 c 0,11,12
 428 591 428 591 426.5 591 c 128,-1,13
 425 591 425 591 415.5 591 c 128,-1,14
 406 591 406 591 398 590.5 c 128,-1,15
 390 590 390 590 376 588 c 128,-1,16
 362 586 362 586 354.5 582.5 c 128,-1,17
 347 579 347 579 335.5 571 c 128,-1,18
 324 563 324 563 317 552 c 128,-1,19
 310 541 310 541 300.5 524 c 128,-1,20
 291 507 291 507 285 485 c 0,21,22
 269 430 269 430 258.5 366 c 128,-1,23
 248 302 248 302 248 260 c 128,-1,24
 248 218 248 218 257 194 c 0,25,26
 277 145 277 145 354 143 c 0,27,28
 360 143 360 143 403 143 c 128,-1,29
 446 143 446 143 571 152 c 1,30,-1
 551 24 l 1,31,32
 498 5 498 5 447 -0.5 c 128,-1,33
 396 -6 396 -6 351.5 -6 c 128,-1,34
 307 -6 307 -6 287 -6 c 0,35,36
 219 -5 219 -5 173.5 25 c 128,-1,37
 128 55 128 55 108 108 c 0,38,39
 83 174 83 174 83 249 c 128,-1,40
 83 324 83 324 96 403 c 128,-1,41
 109 482 109 482 130.5 544.5 c 128,-1,42
 152 607 152 607 188 652.5 c 128,-1,4
 224 698 224 698 277 719 c 128,-1,5
EndSplineSet
Substitution2: "'c2sc' Capitals to Small Capitals in Latin lookup 2 subtable" cacute.smcp
EndChar

StartChar: cacute
Encoding: 263 263 200
Width: 490
GlyphClass: 2
Flags: W
LayerCount: 2
Fore
SplineSet
306 599 m 1,0,-1
 413 739 l 1,1,-1
 546 739 l 1,2,-1
 405 599 l 1,3,-1
 306 599 l 1,0,-1
234.5 535 m 128,-1,5
 259 540 259 540 302 540 c 128,-1,6
 345 540 345 540 416.5 532 c 128,-1,7
 488 524 488 524 538 506 c 1,8,-1
 522 407 l 1,9,10
 444 414 444 414 387.5 414 c 128,-1,11
 331 414 331 414 319 412 c 128,-1,12
 307 410 307 410 293 403 c 128,-1,13
 279 396 279 396 271 379 c 0,14,15
 251 341 251 341 242 286 c 0,16,17
 230 215 230 215 230 196.5 c 128,-1,18
 230 178 230 178 232 165.5 c 128,-1,19
 234 153 234 153 239 144 c 128,-1,20
 244 135 244 135 254 129 c 1,21,22
 272 121 272 121 310 121 c 0,23,24
 390 121 390 121 462 128 c 2,25,-1
 486 130 l 1,26,-1
 470 30 l 1,27,28
 415 8 415 8 363 1.5 c 128,-1,29
 311 -5 311 -5 267.5 -5 c 128,-1,30
 224 -5 224 -5 210 -5 c 0,31,32
 129 -4 129 -4 90 69 c 0,33,34
 66 114 66 114 66 173.5 c 128,-1,35
 66 233 66 233 76 293 c 128,-1,36
 86 353 86 353 102.5 399 c 128,-1,37
 119 445 119 445 138 472 c 128,-1,38
 157 499 157 499 183.5 514.5 c 128,-1,4
 210 530 210 530 234.5 535 c 128,-1,5
EndSplineSet
Substitution2: "'smcp' Lowercase to Small Capitals lookup 1 subtable" cacute.smcp
EndChar

StartChar: Ccircumflex
Encoding: 264 264 201
Width: 569
GlyphClass: 2
Flags: W
LayerCount: 2
Fore
SplineSet
284 800 m 1,0,-1
 410 938 l 1,1,-1
 526 938 l 1,2,-1
 599 800 l 1,3,-1
 499 800 l 1,4,-1
 462 859 l 1,5,-1
 396 800 l 1,6,-1
 284 800 l 1,0,-1
277 719 m 128,-1,8
 330 740 330 740 411 740 c 128,-1,9
 492 740 492 740 544.5 732 c 128,-1,10
 597 724 597 724 658 702 c 1,11,-1
 637 574 l 1,12,13
 500 591 500 591 429 591 c 0,14,15
 428 591 428 591 426.5 591 c 128,-1,16
 425 591 425 591 415.5 591 c 128,-1,17
 406 591 406 591 398 590.5 c 128,-1,18
 390 590 390 590 376 588 c 128,-1,19
 362 586 362 586 354.5 582.5 c 128,-1,20
 347 579 347 579 335.5 571 c 128,-1,21
 324 563 324 563 317 552 c 128,-1,22
 310 541 310 541 300.5 524 c 128,-1,23
 291 507 291 507 285 485 c 0,24,25
 269 430 269 430 258.5 366 c 128,-1,26
 248 302 248 302 248 260 c 128,-1,27
 248 218 248 218 257 194 c 0,28,29
 277 145 277 145 354 143 c 0,30,31
 360 143 360 143 403 143 c 128,-1,32
 446 143 446 143 571 152 c 1,33,-1
 551 24 l 1,34,35
 498 5 498 5 447 -0.5 c 128,-1,36
 396 -6 396 -6 351.5 -6 c 128,-1,37
 307 -6 307 -6 287 -6 c 0,38,39
 219 -5 219 -5 173.5 25 c 128,-1,40
 128 55 128 55 108 108 c 0,41,42
 83 174 83 174 83 249 c 128,-1,43
 83 324 83 324 96 403 c 128,-1,44
 109 482 109 482 130.5 544.5 c 128,-1,45
 152 607 152 607 188 652.5 c 128,-1,7
 224 698 224 698 277 719 c 128,-1,8
EndSplineSet
Substitution2: "'c2sc' Capitals to Small Capitals in Latin lookup 2 subtable" ccircumflex.smcp
EndChar

StartChar: ccircumflex
Encoding: 265 265 202
Width: 490
GlyphClass: 2
Flags: W
LayerCount: 2
Fore
SplineSet
192 598 m 1,0,-1
 318 736 l 1,1,-1
 434 736 l 1,2,-1
 507 598 l 1,3,-1
 407 598 l 1,4,-1
 370 657 l 1,5,-1
 304 598 l 1,6,-1
 192 598 l 1,0,-1
234 535 m 128,-1,8
 259 540 259 540 301.5 540 c 128,-1,9
 344 540 344 540 415.5 532 c 128,-1,10
 487 524 487 524 538 506 c 1,11,-1
 522 407 l 1,12,13
 443 414 443 414 387 414 c 128,-1,14
 331 414 331 414 319 412 c 128,-1,15
 307 410 307 410 292.5 403 c 128,-1,16
 278 396 278 396 270 379 c 0,17,18
 251 341 251 341 241 283 c 0,19,20
 230 218 230 218 230 194 c 128,-1,21
 230 170 230 170 233 156 c 128,-1,22
 236 142 236 142 247 134 c 0,23,24
 265 121 265 121 307 121 c 0,25,26
 390 121 390 121 462 128 c 2,27,-1
 486 130 l 1,28,-1
 470 30 l 1,29,30
 414 8 414 8 362.5 1.5 c 128,-1,31
 311 -5 311 -5 267.5 -5 c 128,-1,32
 224 -5 224 -5 209 -5 c 0,33,34
 129 -4 129 -4 90 69 c 0,35,36
 66 114 66 114 66 173.5 c 128,-1,37
 66 233 66 233 75.5 293 c 128,-1,38
 85 353 85 353 101.5 399 c 128,-1,39
 118 445 118 445 137.5 472 c 128,-1,40
 157 499 157 499 183 514.5 c 128,-1,7
 209 530 209 530 234 535 c 128,-1,8
EndSplineSet
Substitution2: "'smcp' Lowercase to Small Capitals lookup 1 subtable" ccircumflex.smcp
EndChar

StartChar: Cdotaccent
Encoding: 266 266 203
Width: 569
GlyphClass: 2
Flags: W
LayerCount: 2
Fore
SplineSet
425 932 m 2,0,-1
 505 932 l 2,1,2
 528 932 528 932 524 907 c 2,3,-1
 511 823 l 2,4,5
 508 800 508 800 485 800 c 2,6,-1
 405 800 l 2,7,8
 394 800 394 800 388 806.5 c 128,-1,9
 382 813 382 813 384 823 c 2,10,-1
 397 907 l 2,11,12
 401 932 401 932 425 932 c 2,0,-1
277 719 m 128,-1,14
 330 740 330 740 411 740 c 128,-1,15
 492 740 492 740 544.5 732 c 128,-1,16
 597 724 597 724 658 702 c 1,17,-1
 637 574 l 1,18,19
 500 591 500 591 429 591 c 0,20,21
 428 591 428 591 426.5 591 c 128,-1,22
 425 591 425 591 415.5 591 c 128,-1,23
 406 591 406 591 398 590.5 c 128,-1,24
 390 590 390 590 376 588 c 128,-1,25
 362 586 362 586 354.5 582.5 c 128,-1,26
 347 579 347 579 335.5 571 c 128,-1,27
 324 563 324 563 317 552 c 128,-1,28
 310 541 310 541 300.5 524 c 128,-1,29
 291 507 291 507 285 485 c 0,30,31
 269 430 269 430 258.5 366 c 128,-1,32
 248 302 248 302 248 260 c 128,-1,33
 248 218 248 218 257 194 c 0,34,35
 277 145 277 145 354 143 c 0,36,37
 360 143 360 143 403 143 c 128,-1,38
 446 143 446 143 571 152 c 1,39,-1
 551 24 l 1,40,41
 498 5 498 5 447 -0.5 c 128,-1,42
 396 -6 396 -6 351.5 -6 c 128,-1,43
 307 -6 307 -6 287 -6 c 0,44,45
 219 -5 219 -5 173.5 25 c 128,-1,46
 128 55 128 55 108 108 c 0,47,48
 83 174 83 174 83 249 c 128,-1,49
 83 324 83 324 96 403 c 128,-1,50
 109 482 109 482 130.5 544.5 c 128,-1,51
 152 607 152 607 188 652.5 c 128,-1,13
 224 698 224 698 277 719 c 128,-1,14
EndSplineSet
Substitution2: "'c2sc' Capitals to Small Capitals in Latin lookup 2 subtable" cdotaccent.smcp
EndChar

